<svg width="1134" height="100" viewBox="0 0 1134 100" fill="none" xmlns="http://www.w3.org/2000/svg">
<rect width="1134" height="100" rx="20" fill="url(#paint0_linear_73_107)"/>
<rect x="87" y="30" width="170" height="40" rx="6" fill="#D9D9D9" fill-opacity="0.2"/>
<path d="M116 55.84H128V43.84H116V55.84ZM131.095 55V46.06H136.855V46.96H132.055V50.068H136.615V50.968H132.055V54.1H136.855V55H131.095ZM138.311 55V48.568H139.211V49.792L139.067 49.612C139.243 49.236 139.503 48.944 139.847 48.736C140.199 48.528 140.583 48.424 140.999 48.424C141.495 48.424 141.943 48.564 142.343 48.844C142.743 49.124 143.027 49.488 143.195 49.936L142.943 49.948C143.103 49.452 143.379 49.076 143.771 48.82C144.171 48.556 144.611 48.424 145.091 48.424C145.523 48.424 145.919 48.528 146.279 48.736C146.647 48.944 146.939 49.232 147.155 49.6C147.379 49.96 147.491 50.368 147.491 50.824V55H146.591V51.172C146.591 50.78 146.519 50.448 146.375 50.176C146.239 49.904 146.051 49.696 145.811 49.552C145.571 49.4 145.295 49.324 144.983 49.324C144.679 49.324 144.403 49.4 144.155 49.552C143.907 49.696 143.711 49.908 143.567 50.188C143.423 50.46 143.351 50.788 143.351 51.172V55H142.451V51.172C142.451 50.78 142.379 50.448 142.235 50.176C142.099 49.904 141.911 49.696 141.671 49.552C141.431 49.4 141.155 49.324 140.843 49.324C140.531 49.324 140.251 49.4 140.003 49.552C139.763 49.696 139.571 49.908 139.427 50.188C139.283 50.46 139.211 50.788 139.211 51.172V55H138.311ZM149.209 57.4V48.568H150.109V50.008L149.965 49.756C150.221 49.348 150.561 49.024 150.985 48.784C151.417 48.544 151.909 48.424 152.461 48.424C153.069 48.424 153.609 48.572 154.081 48.868C154.561 49.156 154.937 49.552 155.209 50.056C155.489 50.56 155.629 51.136 155.629 51.784C155.629 52.424 155.489 53 155.209 53.512C154.937 54.016 154.561 54.416 154.081 54.712C153.609 55 153.069 55.144 152.461 55.144C151.909 55.144 151.409 55.02 150.961 54.772C150.521 54.516 150.189 54.156 149.965 53.692L150.109 53.56V57.4H149.209ZM152.413 54.244C152.845 54.244 153.229 54.136 153.565 53.92C153.909 53.704 154.177 53.412 154.369 53.044C154.569 52.668 154.669 52.248 154.669 51.784C154.669 51.312 154.569 50.892 154.369 50.524C154.177 50.156 153.909 49.864 153.565 49.648C153.229 49.432 152.845 49.324 152.413 49.324C151.981 49.324 151.589 49.432 151.237 49.648C150.893 49.864 150.617 50.16 150.409 50.536C150.209 50.904 150.109 51.32 150.109 51.784C150.109 52.248 150.209 52.668 150.409 53.044C150.617 53.412 150.893 53.704 151.237 53.92C151.589 54.136 151.981 54.244 152.413 54.244ZM157.213 55V45.916H158.113V55H157.213ZM162.967 55.144C162.359 55.144 161.807 55 161.311 54.712C160.815 54.416 160.419 54.016 160.123 53.512C159.835 53 159.691 52.42 159.691 51.772C159.691 51.132 159.835 50.56 160.123 50.056C160.411 49.552 160.799 49.156 161.287 48.868C161.783 48.572 162.343 48.424 162.967 48.424C163.591 48.424 164.147 48.568 164.635 48.856C165.131 49.144 165.519 49.54 165.799 50.044C166.087 50.548 166.231 51.124 166.231 51.772C166.231 52.428 166.083 53.012 165.787 53.524C165.491 54.028 165.095 54.424 164.599 54.712C164.111 55 163.567 55.144 162.967 55.144ZM162.967 54.244C163.399 54.244 163.787 54.136 164.131 53.92C164.483 53.704 164.759 53.408 164.959 53.032C165.167 52.656 165.271 52.236 165.271 51.772C165.271 51.308 165.167 50.892 164.959 50.524C164.759 50.156 164.483 49.864 164.131 49.648C163.787 49.432 163.399 49.324 162.967 49.324C162.535 49.324 162.143 49.432 161.791 49.648C161.447 49.864 161.171 50.156 160.963 50.524C160.755 50.892 160.651 51.308 160.651 51.772C160.651 52.236 160.755 52.656 160.963 53.032C161.171 53.408 161.447 53.704 161.791 53.92C162.143 54.136 162.535 54.244 162.967 54.244ZM167.833 57.64C167.705 57.64 167.573 57.628 167.437 57.604C167.309 57.588 167.181 57.556 167.053 57.508V56.668C167.133 56.676 167.233 56.688 167.353 56.704C167.481 56.728 167.609 56.74 167.737 56.74C168.129 56.74 168.429 56.656 168.637 56.488C168.845 56.328 169.049 56.016 169.249 55.552L169.657 54.592L169.633 55.384L166.909 48.568H167.881L170.113 54.196H169.861L172.081 48.568H173.077L170.137 55.816C170.009 56.128 169.845 56.424 169.645 56.704C169.453 56.984 169.209 57.208 168.913 57.376C168.617 57.552 168.257 57.64 167.833 57.64ZM176.946 55.144C176.346 55.144 175.802 55 175.314 54.712C174.834 54.416 174.454 54.012 174.174 53.5C173.894 52.988 173.754 52.408 173.754 51.76C173.754 51.112 173.89 50.54 174.162 50.044C174.434 49.54 174.802 49.144 175.266 48.856C175.738 48.568 176.266 48.424 176.85 48.424C177.314 48.424 177.726 48.512 178.086 48.688C178.454 48.856 178.766 49.088 179.022 49.384C179.278 49.672 179.474 50 179.61 50.368C179.746 50.728 179.814 51.1 179.814 51.484C179.814 51.564 179.81 51.656 179.802 51.76C179.794 51.856 179.782 51.956 179.766 52.06H174.33V51.22H179.25L178.818 51.58C178.89 51.14 178.838 50.748 178.662 50.404C178.494 50.052 178.25 49.776 177.93 49.576C177.61 49.368 177.25 49.264 176.85 49.264C176.45 49.264 176.078 49.368 175.734 49.576C175.398 49.784 175.134 50.076 174.942 50.452C174.75 50.82 174.674 51.26 174.714 51.772C174.674 52.284 174.754 52.732 174.954 53.116C175.162 53.492 175.442 53.784 175.794 53.992C176.154 54.2 176.538 54.304 176.946 54.304C177.418 54.304 177.814 54.192 178.134 53.968C178.454 53.744 178.714 53.464 178.914 53.128L179.682 53.536C179.554 53.824 179.358 54.092 179.094 54.34C178.83 54.58 178.514 54.776 178.146 54.928C177.786 55.072 177.386 55.144 176.946 55.144ZM184.329 55.144C183.729 55.144 183.185 55 182.697 54.712C182.217 54.416 181.837 54.012 181.557 53.5C181.277 52.988 181.137 52.408 181.137 51.76C181.137 51.112 181.273 50.54 181.545 50.044C181.817 49.54 182.185 49.144 182.649 48.856C183.121 48.568 183.649 48.424 184.233 48.424C184.697 48.424 185.109 48.512 185.469 48.688C185.837 48.856 186.149 49.088 186.405 49.384C186.661 49.672 186.857 50 186.993 50.368C187.129 50.728 187.197 51.1 187.197 51.484C187.197 51.564 187.193 51.656 187.185 51.76C187.177 51.856 187.165 51.956 187.149 52.06H181.713V51.22H186.633L186.201 51.58C186.273 51.14 186.221 50.748 186.045 50.404C185.877 50.052 185.633 49.776 185.313 49.576C184.993 49.368 184.633 49.264 184.233 49.264C183.833 49.264 183.461 49.368 183.117 49.576C182.781 49.784 182.517 50.076 182.325 50.452C182.133 50.82 182.057 51.26 182.097 51.772C182.057 52.284 182.137 52.732 182.337 53.116C182.545 53.492 182.825 53.784 183.177 53.992C183.537 54.2 183.921 54.304 184.329 54.304C184.801 54.304 185.197 54.192 185.517 53.968C185.837 53.744 186.097 53.464 186.297 53.128L187.065 53.536C186.937 53.824 186.741 54.092 186.477 54.34C186.213 54.58 185.897 54.776 185.529 54.928C185.169 55.072 184.769 55.144 184.329 55.144ZM193.726 55.144C193.126 55.144 192.586 55 192.106 54.712C191.626 54.416 191.246 54.016 190.966 53.512C190.694 53 190.558 52.424 190.558 51.784C190.558 51.136 190.694 50.56 190.966 50.056C191.246 49.552 191.622 49.156 192.094 48.868C192.574 48.572 193.118 48.424 193.726 48.424C194.278 48.424 194.77 48.544 195.202 48.784C195.634 49.024 195.974 49.348 196.222 49.756L196.078 50.008V45.916H196.978V55H196.078V53.56L196.222 53.692C195.998 54.156 195.662 54.516 195.214 54.772C194.774 55.02 194.278 55.144 193.726 55.144ZM193.774 54.244C194.206 54.244 194.594 54.136 194.938 53.92C195.29 53.704 195.566 53.412 195.766 53.044C195.974 52.668 196.078 52.248 196.078 51.784C196.078 51.32 195.974 50.904 195.766 50.536C195.566 50.16 195.29 49.864 194.938 49.648C194.594 49.432 194.206 49.324 193.774 49.324C193.35 49.324 192.966 49.432 192.622 49.648C192.278 49.864 192.006 50.156 191.806 50.524C191.614 50.892 191.518 51.312 191.518 51.784C191.518 52.248 191.614 52.668 191.806 53.044C192.006 53.412 192.274 53.704 192.61 53.92C192.954 54.136 193.342 54.244 193.774 54.244ZM201.754 55.144C201.154 55.144 200.61 55 200.122 54.712C199.642 54.416 199.262 54.012 198.982 53.5C198.702 52.988 198.562 52.408 198.562 51.76C198.562 51.112 198.698 50.54 198.97 50.044C199.242 49.54 199.61 49.144 200.074 48.856C200.546 48.568 201.074 48.424 201.658 48.424C202.122 48.424 202.534 48.512 202.894 48.688C203.262 48.856 203.574 49.088 203.83 49.384C204.086 49.672 204.282 50 204.418 50.368C204.554 50.728 204.622 51.1 204.622 51.484C204.622 51.564 204.618 51.656 204.61 51.76C204.602 51.856 204.59 51.956 204.574 52.06H199.138V51.22H204.058L203.626 51.58C203.698 51.14 203.646 50.748 203.47 50.404C203.302 50.052 203.058 49.776 202.738 49.576C202.418 49.368 202.058 49.264 201.658 49.264C201.258 49.264 200.886 49.368 200.542 49.576C200.206 49.784 199.942 50.076 199.75 50.452C199.558 50.82 199.482 51.26 199.522 51.772C199.482 52.284 199.562 52.732 199.762 53.116C199.97 53.492 200.25 53.784 200.602 53.992C200.962 54.2 201.346 54.304 201.754 54.304C202.226 54.304 202.622 54.192 202.942 53.968C203.262 53.744 203.522 53.464 203.722 53.128L204.49 53.536C204.362 53.824 204.166 54.092 203.902 54.34C203.638 54.58 203.322 54.776 202.954 54.928C202.594 55.072 202.194 55.144 201.754 55.144ZM207.808 55L205.3 48.568H206.308L208.42 54.208H208.096L210.22 48.568H211.24L208.708 55H207.808ZM212.291 55V48.568H213.191V55H212.291ZM212.291 47.38V46.06H213.191V47.38H212.291ZM217.973 55.144C217.341 55.144 216.785 54.996 216.305 54.7C215.825 54.404 215.449 54.004 215.177 53.5C214.905 52.988 214.769 52.412 214.769 51.772C214.769 51.132 214.905 50.56 215.177 50.056C215.449 49.552 215.825 49.156 216.305 48.868C216.785 48.572 217.341 48.424 217.973 48.424C218.373 48.424 218.749 48.496 219.101 48.64C219.453 48.784 219.765 48.98 220.037 49.228C220.309 49.468 220.513 49.748 220.649 50.068L219.833 50.488C219.673 50.144 219.429 49.864 219.101 49.648C218.773 49.432 218.397 49.324 217.973 49.324C217.549 49.324 217.165 49.432 216.821 49.648C216.485 49.856 216.217 50.148 216.017 50.524C215.825 50.892 215.729 51.312 215.729 51.784C215.729 52.248 215.825 52.668 216.017 53.044C216.217 53.412 216.485 53.704 216.821 53.92C217.165 54.136 217.549 54.244 217.973 54.244C218.397 54.244 218.769 54.136 219.089 53.92C219.417 53.704 219.665 53.416 219.833 53.056L220.649 53.5C220.513 53.812 220.309 54.092 220.037 54.34C219.765 54.588 219.453 54.784 219.101 54.928C218.749 55.072 218.373 55.144 217.973 55.144ZM225.157 55.144C224.557 55.144 224.013 55 223.525 54.712C223.045 54.416 222.665 54.012 222.385 53.5C222.105 52.988 221.965 52.408 221.965 51.76C221.965 51.112 222.101 50.54 222.373 50.044C222.645 49.54 223.013 49.144 223.477 48.856C223.949 48.568 224.477 48.424 225.061 48.424C225.525 48.424 225.937 48.512 226.297 48.688C226.665 48.856 226.977 49.088 227.233 49.384C227.489 49.672 227.685 50 227.821 50.368C227.957 50.728 228.025 51.1 228.025 51.484C228.025 51.564 228.021 51.656 228.013 51.76C228.005 51.856 227.993 51.956 227.977 52.06H222.541V51.22H227.461L227.029 51.58C227.101 51.14 227.049 50.748 226.873 50.404C226.705 50.052 226.461 49.776 226.141 49.576C225.821 49.368 225.461 49.264 225.061 49.264C224.661 49.264 224.289 49.368 223.945 49.576C223.609 49.784 223.345 50.076 223.153 50.452C222.961 50.82 222.885 51.26 222.925 51.772C222.885 52.284 222.965 52.732 223.165 53.116C223.373 53.492 223.653 53.784 224.005 53.992C224.365 54.2 224.749 54.304 225.157 54.304C225.629 54.304 226.025 54.192 226.345 53.968C226.665 53.744 226.925 53.464 227.125 53.128L227.893 53.536C227.765 53.824 227.569 54.092 227.305 54.34C227.041 54.58 226.725 54.776 226.357 54.928C225.997 55.072 225.597 55.144 225.157 55.144Z" fill="white"/>
<rect x="305" y="30" width="210" height="40" rx="6" fill="#D9D9D9" fill-opacity="0.2"/>
<path d="M327 55.84H339V43.84H327V55.84ZM342.095 55V46.06H345.851C346.355 46.06 346.791 46.156 347.159 46.348C347.535 46.532 347.823 46.792 348.023 47.128C348.231 47.464 348.335 47.856 348.335 48.304C348.335 48.768 348.219 49.18 347.987 49.54C347.763 49.892 347.439 50.16 347.015 50.344L347.003 50.056C347.355 50.184 347.655 50.364 347.903 50.596C348.159 50.828 348.355 51.1 348.491 51.412C348.627 51.716 348.695 52.044 348.695 52.396C348.695 53.196 348.439 53.832 347.927 54.304C347.423 54.768 346.735 55 345.863 55H342.095ZM343.055 54.1H345.863C346.431 54.1 346.883 53.952 347.219 53.656C347.563 53.352 347.735 52.936 347.735 52.408C347.735 51.888 347.563 51.476 347.219 51.172C346.883 50.86 346.431 50.704 345.863 50.704H343.055V54.1ZM343.055 49.84H345.779C346.259 49.84 346.643 49.7 346.931 49.42C347.227 49.14 347.375 48.78 347.375 48.34C347.375 47.892 347.227 47.552 346.931 47.32C346.643 47.08 346.259 46.96 345.779 46.96H343.055V49.84ZM350.283 55V48.568H351.183V49.624L351.063 49.468C351.215 49.164 351.443 48.924 351.747 48.748C352.059 48.572 352.435 48.484 352.875 48.484H353.283V49.384H352.719C352.255 49.384 351.883 49.528 351.603 49.816C351.323 50.104 351.183 50.512 351.183 51.04V55H350.283ZM357.35 55.144C356.742 55.144 356.19 55 355.694 54.712C355.198 54.416 354.802 54.016 354.506 53.512C354.218 53 354.074 52.42 354.074 51.772C354.074 51.132 354.218 50.56 354.506 50.056C354.794 49.552 355.182 49.156 355.67 48.868C356.166 48.572 356.726 48.424 357.35 48.424C357.974 48.424 358.53 48.568 359.018 48.856C359.514 49.144 359.902 49.54 360.182 50.044C360.47 50.548 360.614 51.124 360.614 51.772C360.614 52.428 360.466 53.012 360.17 53.524C359.874 54.028 359.478 54.424 358.982 54.712C358.494 55 357.95 55.144 357.35 55.144ZM357.35 54.244C357.782 54.244 358.17 54.136 358.514 53.92C358.866 53.704 359.142 53.408 359.342 53.032C359.55 52.656 359.654 52.236 359.654 51.772C359.654 51.308 359.55 50.892 359.342 50.524C359.142 50.156 358.866 49.864 358.514 49.648C358.17 49.432 357.782 49.324 357.35 49.324C356.918 49.324 356.526 49.432 356.174 49.648C355.83 49.864 355.554 50.156 355.346 50.524C355.138 50.892 355.034 51.308 355.034 51.772C355.034 52.236 355.138 52.656 355.346 53.032C355.554 53.408 355.83 53.704 356.174 53.92C356.526 54.136 356.918 54.244 357.35 54.244ZM363.5 55L361.292 48.568H362.312L364.136 54.196H363.776L365.492 48.568H366.392L368.108 54.196H367.748L369.584 48.568H370.592L368.384 55H367.484L365.816 49.492H366.068L364.4 55H363.5ZM373.879 55.144C373.263 55.144 372.723 54.988 372.259 54.676C371.795 54.364 371.459 53.94 371.251 53.404L372.007 53.044C372.191 53.436 372.447 53.748 372.775 53.98C373.111 54.212 373.479 54.328 373.879 54.328C374.263 54.328 374.587 54.236 374.851 54.052C375.115 53.86 375.247 53.612 375.247 53.308C375.247 53.084 375.183 52.908 375.055 52.78C374.927 52.644 374.779 52.54 374.611 52.468C374.443 52.396 374.295 52.344 374.167 52.312L373.243 52.048C372.651 51.88 372.223 51.644 371.959 51.34C371.695 51.036 371.563 50.684 371.563 50.284C371.563 49.908 371.659 49.58 371.851 49.3C372.043 49.02 372.303 48.804 372.631 48.652C372.959 48.5 373.323 48.424 373.723 48.424C374.267 48.424 374.759 48.568 375.199 48.856C375.647 49.136 375.963 49.528 376.147 50.032L375.379 50.392C375.219 50.032 374.987 49.752 374.683 49.552C374.387 49.344 374.055 49.24 373.687 49.24C373.327 49.24 373.039 49.332 372.823 49.516C372.607 49.7 372.499 49.932 372.499 50.212C372.499 50.428 372.555 50.6 372.667 50.728C372.779 50.856 372.907 50.952 373.051 51.016C373.203 51.08 373.335 51.128 373.447 51.16L374.515 51.472C375.035 51.624 375.439 51.86 375.727 52.18C376.023 52.5 376.171 52.876 376.171 53.308C376.171 53.66 376.071 53.976 375.871 54.256C375.679 54.536 375.411 54.756 375.067 54.916C374.723 55.068 374.327 55.144 373.879 55.144ZM380.68 55.144C380.08 55.144 379.536 55 379.048 54.712C378.568 54.416 378.188 54.012 377.908 53.5C377.628 52.988 377.488 52.408 377.488 51.76C377.488 51.112 377.624 50.54 377.896 50.044C378.168 49.54 378.536 49.144 379 48.856C379.472 48.568 380 48.424 380.584 48.424C381.048 48.424 381.46 48.512 381.82 48.688C382.188 48.856 382.5 49.088 382.756 49.384C383.012 49.672 383.208 50 383.344 50.368C383.48 50.728 383.548 51.1 383.548 51.484C383.548 51.564 383.544 51.656 383.536 51.76C383.528 51.856 383.516 51.956 383.5 52.06H378.064V51.22H382.984L382.552 51.58C382.624 51.14 382.572 50.748 382.396 50.404C382.228 50.052 381.984 49.776 381.664 49.576C381.344 49.368 380.984 49.264 380.584 49.264C380.184 49.264 379.812 49.368 379.468 49.576C379.132 49.784 378.868 50.076 378.676 50.452C378.484 50.82 378.408 51.26 378.448 51.772C378.408 52.284 378.488 52.732 378.688 53.116C378.896 53.492 379.176 53.784 379.528 53.992C379.888 54.2 380.272 54.304 380.68 54.304C381.152 54.304 381.548 54.192 381.868 53.968C382.188 53.744 382.448 53.464 382.648 53.128L383.416 53.536C383.288 53.824 383.092 54.092 382.828 54.34C382.564 54.58 382.248 54.776 381.88 54.928C381.52 55.072 381.12 55.144 380.68 55.144ZM385.135 55V48.568H386.035V49.624L385.915 49.468C386.067 49.164 386.295 48.924 386.599 48.748C386.911 48.572 387.287 48.484 387.727 48.484H388.135V49.384H387.571C387.107 49.384 386.735 49.528 386.455 49.816C386.175 50.104 386.035 50.512 386.035 51.04V55H385.135ZM389.154 52.204V51.364H393.354V52.204H389.154ZM397.398 55.144C396.782 55.144 396.242 54.988 395.778 54.676C395.314 54.364 394.978 53.94 394.77 53.404L395.526 53.044C395.71 53.436 395.966 53.748 396.294 53.98C396.63 54.212 396.998 54.328 397.398 54.328C397.782 54.328 398.106 54.236 398.37 54.052C398.634 53.86 398.766 53.612 398.766 53.308C398.766 53.084 398.702 52.908 398.574 52.78C398.446 52.644 398.298 52.54 398.13 52.468C397.962 52.396 397.814 52.344 397.686 52.312L396.762 52.048C396.17 51.88 395.742 51.644 395.478 51.34C395.214 51.036 395.082 50.684 395.082 50.284C395.082 49.908 395.178 49.58 395.37 49.3C395.562 49.02 395.822 48.804 396.15 48.652C396.478 48.5 396.842 48.424 397.242 48.424C397.786 48.424 398.278 48.568 398.718 48.856C399.166 49.136 399.482 49.528 399.666 50.032L398.898 50.392C398.738 50.032 398.506 49.752 398.202 49.552C397.906 49.344 397.574 49.24 397.206 49.24C396.846 49.24 396.558 49.332 396.342 49.516C396.126 49.7 396.018 49.932 396.018 50.212C396.018 50.428 396.074 50.6 396.186 50.728C396.298 50.856 396.426 50.952 396.57 51.016C396.722 51.08 396.854 51.128 396.966 51.16L398.034 51.472C398.554 51.624 398.958 51.86 399.246 52.18C399.542 52.5 399.69 52.876 399.69 53.308C399.69 53.66 399.59 53.976 399.39 54.256C399.198 54.536 398.93 54.756 398.586 54.916C398.242 55.068 397.846 55.144 397.398 55.144ZM403.132 55.144C402.724 55.144 402.36 55.068 402.04 54.916C401.72 54.756 401.468 54.54 401.284 54.268C401.1 53.996 401.008 53.684 401.008 53.332C401.008 52.996 401.08 52.692 401.224 52.42C401.368 52.14 401.592 51.904 401.896 51.712C402.2 51.52 402.588 51.384 403.06 51.304L405.58 50.884V51.7L403.276 52.084C402.812 52.164 402.476 52.312 402.268 52.528C402.068 52.744 401.968 53 401.968 53.296C401.968 53.584 402.08 53.828 402.304 54.028C402.536 54.228 402.832 54.328 403.192 54.328C403.632 54.328 404.016 54.236 404.344 54.052C404.672 53.86 404.928 53.604 405.112 53.284C405.296 52.964 405.388 52.608 405.388 52.216V50.584C405.388 50.2 405.248 49.888 404.968 49.648C404.688 49.408 404.324 49.288 403.876 49.288C403.484 49.288 403.14 49.388 402.844 49.588C402.548 49.78 402.328 50.032 402.184 50.344L401.368 49.9C401.488 49.628 401.676 49.38 401.932 49.156C402.196 48.932 402.496 48.756 402.832 48.628C403.168 48.492 403.516 48.424 403.876 48.424C404.348 48.424 404.764 48.516 405.124 48.7C405.492 48.884 405.776 49.14 405.976 49.468C406.184 49.788 406.288 50.16 406.288 50.584V55H405.388V53.716L405.52 53.848C405.408 54.088 405.232 54.308 404.992 54.508C404.76 54.7 404.484 54.856 404.164 54.976C403.852 55.088 403.508 55.144 403.132 55.144ZM409.738 55L407.23 48.568H408.238L410.35 54.208H410.026L412.15 48.568H413.17L410.638 55H409.738ZM417.032 55.144C416.432 55.144 415.888 55 415.4 54.712C414.92 54.416 414.54 54.012 414.26 53.5C413.98 52.988 413.84 52.408 413.84 51.76C413.84 51.112 413.976 50.54 414.248 50.044C414.52 49.54 414.888 49.144 415.352 48.856C415.824 48.568 416.352 48.424 416.936 48.424C417.4 48.424 417.812 48.512 418.172 48.688C418.54 48.856 418.852 49.088 419.108 49.384C419.364 49.672 419.56 50 419.696 50.368C419.832 50.728 419.9 51.1 419.9 51.484C419.9 51.564 419.896 51.656 419.888 51.76C419.88 51.856 419.868 51.956 419.852 52.06H414.416V51.22H419.336L418.904 51.58C418.976 51.14 418.924 50.748 418.748 50.404C418.58 50.052 418.336 49.776 418.016 49.576C417.696 49.368 417.336 49.264 416.936 49.264C416.536 49.264 416.164 49.368 415.82 49.576C415.484 49.784 415.22 50.076 415.028 50.452C414.836 50.82 414.76 51.26 414.8 51.772C414.76 52.284 414.84 52.732 415.04 53.116C415.248 53.492 415.528 53.784 415.88 53.992C416.24 54.2 416.624 54.304 417.032 54.304C417.504 54.304 417.9 54.192 418.22 53.968C418.54 53.744 418.8 53.464 419 53.128L419.768 53.536C419.64 53.824 419.444 54.092 419.18 54.34C418.916 54.58 418.6 54.776 418.232 54.928C417.872 55.072 417.472 55.144 417.032 55.144ZM424.391 55.144C423.791 55.144 423.251 55 422.771 54.712C422.291 54.416 421.911 54.016 421.631 53.512C421.359 53 421.223 52.424 421.223 51.784C421.223 51.136 421.359 50.56 421.631 50.056C421.911 49.552 422.287 49.156 422.759 48.868C423.239 48.572 423.783 48.424 424.391 48.424C424.943 48.424 425.435 48.544 425.867 48.784C426.299 49.024 426.639 49.348 426.887 49.756L426.743 50.008V45.916H427.643V55H426.743V53.56L426.887 53.692C426.663 54.156 426.327 54.516 425.879 54.772C425.439 55.02 424.943 55.144 424.391 55.144ZM424.439 54.244C424.871 54.244 425.259 54.136 425.603 53.92C425.955 53.704 426.231 53.412 426.431 53.044C426.639 52.668 426.743 52.248 426.743 51.784C426.743 51.32 426.639 50.904 426.431 50.536C426.231 50.16 425.955 49.864 425.603 49.648C425.259 49.432 424.871 49.324 424.439 49.324C424.015 49.324 423.631 49.432 423.287 49.648C422.943 49.864 422.671 50.156 422.471 50.524C422.279 50.892 422.183 51.312 422.183 51.784C422.183 52.248 422.279 52.668 422.471 53.044C422.671 53.412 422.939 53.704 423.275 53.92C423.619 54.136 424.007 54.244 424.439 54.244ZM431.529 57.4V48.568H432.429V50.008L432.285 49.756C432.541 49.348 432.881 49.024 433.305 48.784C433.737 48.544 434.229 48.424 434.781 48.424C435.389 48.424 435.929 48.572 436.401 48.868C436.881 49.156 437.257 49.552 437.529 50.056C437.809 50.56 437.949 51.136 437.949 51.784C437.949 52.424 437.809 53 437.529 53.512C437.257 54.016 436.881 54.416 436.401 54.712C435.929 55 435.389 55.144 434.781 55.144C434.229 55.144 433.729 55.02 433.281 54.772C432.841 54.516 432.509 54.156 432.285 53.692L432.429 53.56V57.4H431.529ZM434.733 54.244C435.165 54.244 435.549 54.136 435.885 53.92C436.229 53.704 436.497 53.412 436.689 53.044C436.889 52.668 436.989 52.248 436.989 51.784C436.989 51.312 436.889 50.892 436.689 50.524C436.497 50.156 436.229 49.864 435.885 49.648C435.549 49.432 435.165 49.324 434.733 49.324C434.301 49.324 433.909 49.432 433.557 49.648C433.213 49.864 432.937 50.16 432.729 50.536C432.529 50.904 432.429 51.32 432.429 51.784C432.429 52.248 432.529 52.668 432.729 53.044C432.937 53.412 433.213 53.704 433.557 53.92C433.909 54.136 434.301 54.244 434.733 54.244ZM441.393 55.144C440.985 55.144 440.621 55.068 440.301 54.916C439.981 54.756 439.729 54.54 439.545 54.268C439.361 53.996 439.269 53.684 439.269 53.332C439.269 52.996 439.341 52.692 439.485 52.42C439.629 52.14 439.853 51.904 440.157 51.712C440.461 51.52 440.849 51.384 441.321 51.304L443.841 50.884V51.7L441.537 52.084C441.073 52.164 440.737 52.312 440.529 52.528C440.329 52.744 440.229 53 440.229 53.296C440.229 53.584 440.341 53.828 440.565 54.028C440.797 54.228 441.093 54.328 441.453 54.328C441.893 54.328 442.277 54.236 442.605 54.052C442.933 53.86 443.189 53.604 443.373 53.284C443.557 52.964 443.649 52.608 443.649 52.216V50.584C443.649 50.2 443.509 49.888 443.229 49.648C442.949 49.408 442.585 49.288 442.137 49.288C441.745 49.288 441.401 49.388 441.105 49.588C440.809 49.78 440.589 50.032 440.445 50.344L439.629 49.9C439.749 49.628 439.937 49.38 440.193 49.156C440.457 48.932 440.757 48.756 441.093 48.628C441.429 48.492 441.777 48.424 442.137 48.424C442.609 48.424 443.025 48.516 443.385 48.7C443.753 48.884 444.037 49.14 444.237 49.468C444.445 49.788 444.549 50.16 444.549 50.584V55H443.649V53.716L443.781 53.848C443.669 54.088 443.493 54.308 443.253 54.508C443.021 54.7 442.745 54.856 442.425 54.976C442.113 55.088 441.769 55.144 441.393 55.144ZM448.633 55.144C448.017 55.144 447.477 54.988 447.013 54.676C446.549 54.364 446.213 53.94 446.005 53.404L446.761 53.044C446.945 53.436 447.201 53.748 447.529 53.98C447.865 54.212 448.233 54.328 448.633 54.328C449.017 54.328 449.341 54.236 449.605 54.052C449.869 53.86 450.001 53.612 450.001 53.308C450.001 53.084 449.937 52.908 449.809 52.78C449.681 52.644 449.533 52.54 449.365 52.468C449.197 52.396 449.049 52.344 448.921 52.312L447.997 52.048C447.405 51.88 446.977 51.644 446.713 51.34C446.449 51.036 446.317 50.684 446.317 50.284C446.317 49.908 446.413 49.58 446.605 49.3C446.797 49.02 447.057 48.804 447.385 48.652C447.713 48.5 448.077 48.424 448.477 48.424C449.021 48.424 449.513 48.568 449.953 48.856C450.401 49.136 450.717 49.528 450.901 50.032L450.133 50.392C449.973 50.032 449.741 49.752 449.437 49.552C449.141 49.344 448.809 49.24 448.441 49.24C448.081 49.24 447.793 49.332 447.577 49.516C447.361 49.7 447.253 49.932 447.253 50.212C447.253 50.428 447.309 50.6 447.421 50.728C447.533 50.856 447.661 50.952 447.805 51.016C447.957 51.08 448.089 51.128 448.201 51.16L449.269 51.472C449.789 51.624 450.193 51.86 450.481 52.18C450.777 52.5 450.925 52.876 450.925 53.308C450.925 53.66 450.825 53.976 450.625 54.256C450.433 54.536 450.165 54.756 449.821 54.916C449.477 55.068 449.081 55.144 448.633 55.144ZM454.738 55.144C454.122 55.144 453.582 54.988 453.118 54.676C452.654 54.364 452.318 53.94 452.11 53.404L452.866 53.044C453.05 53.436 453.306 53.748 453.634 53.98C453.97 54.212 454.338 54.328 454.738 54.328C455.122 54.328 455.446 54.236 455.71 54.052C455.974 53.86 456.106 53.612 456.106 53.308C456.106 53.084 456.042 52.908 455.914 52.78C455.786 52.644 455.638 52.54 455.47 52.468C455.302 52.396 455.154 52.344 455.026 52.312L454.102 52.048C453.51 51.88 453.082 51.644 452.818 51.34C452.554 51.036 452.422 50.684 452.422 50.284C452.422 49.908 452.518 49.58 452.71 49.3C452.902 49.02 453.162 48.804 453.49 48.652C453.818 48.5 454.182 48.424 454.582 48.424C455.126 48.424 455.618 48.568 456.058 48.856C456.506 49.136 456.822 49.528 457.006 50.032L456.238 50.392C456.078 50.032 455.846 49.752 455.542 49.552C455.246 49.344 454.914 49.24 454.546 49.24C454.186 49.24 453.898 49.332 453.682 49.516C453.466 49.7 453.358 49.932 453.358 50.212C453.358 50.428 453.414 50.6 453.526 50.728C453.638 50.856 453.766 50.952 453.91 51.016C454.062 51.08 454.194 51.128 454.306 51.16L455.374 51.472C455.894 51.624 456.298 51.86 456.586 52.18C456.882 52.5 457.03 52.876 457.03 53.308C457.03 53.66 456.93 53.976 456.73 54.256C456.538 54.536 456.27 54.756 455.926 54.916C455.582 55.068 455.186 55.144 454.738 55.144ZM459.91 55L457.702 48.568H458.722L460.546 54.196H460.186L461.902 48.568H462.802L464.518 54.196H464.158L465.994 48.568H467.002L464.794 55H463.894L462.226 49.492H462.478L460.81 55H459.91ZM470.952 55.144C470.344 55.144 469.792 55 469.296 54.712C468.8 54.416 468.404 54.016 468.108 53.512C467.82 53 467.676 52.42 467.676 51.772C467.676 51.132 467.82 50.56 468.108 50.056C468.396 49.552 468.784 49.156 469.272 48.868C469.768 48.572 470.328 48.424 470.952 48.424C471.576 48.424 472.132 48.568 472.62 48.856C473.116 49.144 473.504 49.54 473.784 50.044C474.072 50.548 474.216 51.124 474.216 51.772C474.216 52.428 474.068 53.012 473.772 53.524C473.476 54.028 473.08 54.424 472.584 54.712C472.096 55 471.552 55.144 470.952 55.144ZM470.952 54.244C471.384 54.244 471.772 54.136 472.116 53.92C472.468 53.704 472.744 53.408 472.944 53.032C473.152 52.656 473.256 52.236 473.256 51.772C473.256 51.308 473.152 50.892 472.944 50.524C472.744 50.156 472.468 49.864 472.116 49.648C471.772 49.432 471.384 49.324 470.952 49.324C470.52 49.324 470.128 49.432 469.776 49.648C469.432 49.864 469.156 50.156 468.948 50.524C468.74 50.892 468.636 51.308 468.636 51.772C468.636 52.236 468.74 52.656 468.948 53.032C469.156 53.408 469.432 53.704 469.776 53.92C470.128 54.136 470.52 54.244 470.952 54.244ZM475.803 55V48.568H476.703V49.624L476.583 49.468C476.735 49.164 476.963 48.924 477.267 48.748C477.579 48.572 477.955 48.484 478.395 48.484H478.803V49.384H478.239C477.775 49.384 477.403 49.528 477.123 49.816C476.843 50.104 476.703 50.512 476.703 51.04V55H475.803ZM482.762 55.144C482.162 55.144 481.622 55 481.142 54.712C480.662 54.416 480.282 54.016 480.002 53.512C479.73 53 479.594 52.424 479.594 51.784C479.594 51.136 479.73 50.56 480.002 50.056C480.282 49.552 480.658 49.156 481.13 48.868C481.61 48.572 482.154 48.424 482.762 48.424C483.314 48.424 483.806 48.544 484.238 48.784C484.67 49.024 485.01 49.348 485.258 49.756L485.114 50.008V45.916H486.014V55H485.114V53.56L485.258 53.692C485.034 54.156 484.698 54.516 484.25 54.772C483.81 55.02 483.314 55.144 482.762 55.144ZM482.81 54.244C483.242 54.244 483.63 54.136 483.974 53.92C484.326 53.704 484.602 53.412 484.802 53.044C485.01 52.668 485.114 52.248 485.114 51.784C485.114 51.32 485.01 50.904 484.802 50.536C484.602 50.16 484.326 49.864 483.974 49.648C483.63 49.432 483.242 49.324 482.81 49.324C482.386 49.324 482.002 49.432 481.658 49.648C481.314 49.864 481.042 50.156 480.842 50.524C480.65 50.892 480.554 51.312 480.554 51.784C480.554 52.248 480.65 52.668 480.842 53.044C481.042 53.412 481.31 53.704 481.646 53.92C481.99 54.136 482.378 54.244 482.81 54.244ZM490.094 55.144C489.478 55.144 488.938 54.988 488.474 54.676C488.01 54.364 487.674 53.94 487.466 53.404L488.222 53.044C488.406 53.436 488.662 53.748 488.99 53.98C489.326 54.212 489.694 54.328 490.094 54.328C490.478 54.328 490.802 54.236 491.066 54.052C491.33 53.86 491.462 53.612 491.462 53.308C491.462 53.084 491.398 52.908 491.27 52.78C491.142 52.644 490.994 52.54 490.826 52.468C490.658 52.396 490.51 52.344 490.382 52.312L489.458 52.048C488.866 51.88 488.438 51.644 488.174 51.34C487.91 51.036 487.778 50.684 487.778 50.284C487.778 49.908 487.874 49.58 488.066 49.3C488.258 49.02 488.518 48.804 488.846 48.652C489.174 48.5 489.538 48.424 489.938 48.424C490.482 48.424 490.974 48.568 491.414 48.856C491.862 49.136 492.178 49.528 492.362 50.032L491.594 50.392C491.434 50.032 491.202 49.752 490.898 49.552C490.602 49.344 490.27 49.24 489.902 49.24C489.542 49.24 489.254 49.332 489.038 49.516C488.822 49.7 488.714 49.932 488.714 50.212C488.714 50.428 488.77 50.6 488.882 50.728C488.994 50.856 489.122 50.952 489.266 51.016C489.418 51.08 489.55 51.128 489.662 51.16L490.73 51.472C491.25 51.624 491.654 51.86 491.942 52.18C492.238 52.5 492.386 52.876 492.386 53.308C492.386 53.66 492.286 53.976 492.086 54.256C491.894 54.536 491.626 54.756 491.282 54.916C490.938 55.068 490.542 55.144 490.094 55.144Z" fill="white"/>
<rect x="563" y="30" width="248" height="40" rx="6" fill="#D9D9D9" fill-opacity="0.2"/>
<path d="M582 55.84H594V43.84H582V55.84ZM597.095 55V46.06H598.055V55H597.095ZM600.033 55V48.568H600.933V49.816L600.729 49.768C600.889 49.352 601.149 49.024 601.509 48.784C601.877 48.544 602.301 48.424 602.781 48.424C603.237 48.424 603.645 48.528 604.005 48.736C604.373 48.944 604.661 49.232 604.869 49.6C605.085 49.96 605.193 50.368 605.193 50.824V55H604.293V51.172C604.293 50.78 604.221 50.448 604.077 50.176C603.941 49.904 603.745 49.696 603.489 49.552C603.241 49.4 602.953 49.324 602.625 49.324C602.297 49.324 602.005 49.4 601.749 49.552C601.493 49.696 601.293 49.908 601.149 50.188C601.005 50.46 600.933 50.788 600.933 51.172V55H600.033ZM607.572 55V49.468H606.288V48.568H607.572V47.992C607.572 47.544 607.672 47.168 607.872 46.864C608.072 46.552 608.336 46.316 608.664 46.156C608.992 45.996 609.344 45.916 609.72 45.916C609.8 45.916 609.892 45.924 609.996 45.94C610.1 45.948 610.184 45.96 610.248 45.976V46.792C610.192 46.776 610.116 46.768 610.02 46.768C609.924 46.76 609.856 46.756 609.816 46.756C609.432 46.756 609.112 46.848 608.856 47.032C608.6 47.216 608.472 47.536 608.472 47.992V48.568H610.044V49.468H608.472V55H607.572ZM614.272 55.144C613.664 55.144 613.112 55 612.616 54.712C612.12 54.416 611.724 54.016 611.428 53.512C611.14 53 610.996 52.42 610.996 51.772C610.996 51.132 611.14 50.56 611.428 50.056C611.716 49.552 612.104 49.156 612.592 48.868C613.088 48.572 613.648 48.424 614.272 48.424C614.896 48.424 615.452 48.568 615.94 48.856C616.436 49.144 616.824 49.54 617.104 50.044C617.392 50.548 617.536 51.124 617.536 51.772C617.536 52.428 617.388 53.012 617.092 53.524C616.796 54.028 616.4 54.424 615.904 54.712C615.416 55 614.872 55.144 614.272 55.144ZM614.272 54.244C614.704 54.244 615.092 54.136 615.436 53.92C615.788 53.704 616.064 53.408 616.264 53.032C616.472 52.656 616.576 52.236 616.576 51.772C616.576 51.308 616.472 50.892 616.264 50.524C616.064 50.156 615.788 49.864 615.436 49.648C615.092 49.432 614.704 49.324 614.272 49.324C613.84 49.324 613.448 49.432 613.096 49.648C612.752 49.864 612.476 50.156 612.268 50.524C612.06 50.892 611.956 51.308 611.956 51.772C611.956 52.236 612.06 52.656 612.268 53.032C612.476 53.408 612.752 53.704 613.096 53.92C613.448 54.136 613.84 54.244 614.272 54.244ZM621.355 55.144C620.739 55.144 620.199 54.988 619.735 54.676C619.271 54.364 618.935 53.94 618.727 53.404L619.483 53.044C619.667 53.436 619.923 53.748 620.251 53.98C620.587 54.212 620.955 54.328 621.355 54.328C621.739 54.328 622.063 54.236 622.327 54.052C622.591 53.86 622.723 53.612 622.723 53.308C622.723 53.084 622.659 52.908 622.531 52.78C622.403 52.644 622.255 52.54 622.087 52.468C621.919 52.396 621.771 52.344 621.643 52.312L620.719 52.048C620.127 51.88 619.699 51.644 619.435 51.34C619.171 51.036 619.039 50.684 619.039 50.284C619.039 49.908 619.135 49.58 619.327 49.3C619.519 49.02 619.779 48.804 620.107 48.652C620.435 48.5 620.799 48.424 621.199 48.424C621.743 48.424 622.235 48.568 622.675 48.856C623.123 49.136 623.439 49.528 623.623 50.032L622.855 50.392C622.695 50.032 622.463 49.752 622.159 49.552C621.863 49.344 621.531 49.24 621.163 49.24C620.803 49.24 620.515 49.332 620.299 49.516C620.083 49.7 619.975 49.932 619.975 50.212C619.975 50.428 620.031 50.6 620.143 50.728C620.255 50.856 620.383 50.952 620.527 51.016C620.679 51.08 620.811 51.128 620.923 51.16L621.991 51.472C622.511 51.624 622.915 51.86 623.203 52.18C623.499 52.5 623.647 52.876 623.647 53.308C623.647 53.66 623.547 53.976 623.347 54.256C623.155 54.536 622.887 54.756 622.543 54.916C622.199 55.068 621.803 55.144 621.355 55.144ZM627.689 55.072C627.113 55.072 626.669 54.904 626.357 54.568C626.045 54.232 625.889 53.752 625.889 53.128V49.468H624.701V48.568H625.001C625.273 48.568 625.489 48.48 625.649 48.304C625.809 48.12 625.889 47.892 625.889 47.62V47.08H626.789V48.568H628.205V49.468H626.789V53.128C626.789 53.344 626.821 53.536 626.885 53.704C626.949 53.864 627.057 53.992 627.209 54.088C627.369 54.184 627.581 54.232 627.845 54.232C627.909 54.232 627.985 54.228 628.073 54.22C628.161 54.212 628.237 54.204 628.301 54.196V55C628.205 55.024 628.097 55.04 627.977 55.048C627.857 55.064 627.761 55.072 627.689 55.072ZM632.575 55.144C631.975 55.144 631.431 55 630.943 54.712C630.463 54.416 630.083 54.012 629.803 53.5C629.523 52.988 629.383 52.408 629.383 51.76C629.383 51.112 629.519 50.54 629.791 50.044C630.063 49.54 630.431 49.144 630.895 48.856C631.367 48.568 631.895 48.424 632.479 48.424C632.943 48.424 633.355 48.512 633.715 48.688C634.083 48.856 634.395 49.088 634.651 49.384C634.907 49.672 635.103 50 635.239 50.368C635.375 50.728 635.443 51.1 635.443 51.484C635.443 51.564 635.439 51.656 635.431 51.76C635.423 51.856 635.411 51.956 635.395 52.06H629.959V51.22H634.879L634.447 51.58C634.519 51.14 634.467 50.748 634.291 50.404C634.123 50.052 633.879 49.776 633.559 49.576C633.239 49.368 632.879 49.264 632.479 49.264C632.079 49.264 631.707 49.368 631.363 49.576C631.027 49.784 630.763 50.076 630.571 50.452C630.379 50.82 630.303 51.26 630.343 51.772C630.303 52.284 630.383 52.732 630.583 53.116C630.791 53.492 631.071 53.784 631.423 53.992C631.783 54.2 632.167 54.304 632.575 54.304C633.047 54.304 633.443 54.192 633.763 53.968C634.083 53.744 634.343 53.464 634.543 53.128L635.311 53.536C635.183 53.824 634.987 54.092 634.723 54.34C634.459 54.58 634.143 54.776 633.775 54.928C633.415 55.072 633.015 55.144 632.575 55.144ZM638.772 55.144C638.364 55.144 638 55.068 637.68 54.916C637.36 54.756 637.108 54.54 636.924 54.268C636.74 53.996 636.648 53.684 636.648 53.332C636.648 52.996 636.72 52.692 636.864 52.42C637.008 52.14 637.232 51.904 637.536 51.712C637.84 51.52 638.228 51.384 638.7 51.304L641.22 50.884V51.7L638.916 52.084C638.452 52.164 638.116 52.312 637.908 52.528C637.708 52.744 637.608 53 637.608 53.296C637.608 53.584 637.72 53.828 637.944 54.028C638.176 54.228 638.472 54.328 638.832 54.328C639.272 54.328 639.656 54.236 639.984 54.052C640.312 53.86 640.568 53.604 640.752 53.284C640.936 52.964 641.028 52.608 641.028 52.216V50.584C641.028 50.2 640.888 49.888 640.608 49.648C640.328 49.408 639.964 49.288 639.516 49.288C639.124 49.288 638.78 49.388 638.484 49.588C638.188 49.78 637.968 50.032 637.824 50.344L637.008 49.9C637.128 49.628 637.316 49.38 637.572 49.156C637.836 48.932 638.136 48.756 638.472 48.628C638.808 48.492 639.156 48.424 639.516 48.424C639.988 48.424 640.404 48.516 640.764 48.7C641.132 48.884 641.416 49.14 641.616 49.468C641.824 49.788 641.928 50.16 641.928 50.584V55H641.028V53.716L641.16 53.848C641.048 54.088 640.872 54.308 640.632 54.508C640.4 54.7 640.124 54.856 639.804 54.976C639.492 55.088 639.148 55.144 638.772 55.144ZM643.779 55V45.916H644.679V55H643.779ZM649.45 55.144C648.85 55.144 648.306 55 647.818 54.712C647.338 54.416 646.958 54.012 646.678 53.5C646.398 52.988 646.258 52.408 646.258 51.76C646.258 51.112 646.394 50.54 646.666 50.044C646.938 49.54 647.306 49.144 647.77 48.856C648.242 48.568 648.77 48.424 649.354 48.424C649.818 48.424 650.23 48.512 650.59 48.688C650.958 48.856 651.27 49.088 651.526 49.384C651.782 49.672 651.978 50 652.114 50.368C652.25 50.728 652.318 51.1 652.318 51.484C652.318 51.564 652.314 51.656 652.306 51.76C652.298 51.856 652.286 51.956 652.27 52.06H646.834V51.22H651.754L651.322 51.58C651.394 51.14 651.342 50.748 651.166 50.404C650.998 50.052 650.754 49.776 650.434 49.576C650.114 49.368 649.754 49.264 649.354 49.264C648.954 49.264 648.582 49.368 648.238 49.576C647.902 49.784 647.638 50.076 647.446 50.452C647.254 50.82 647.178 51.26 647.218 51.772C647.178 52.284 647.258 52.732 647.458 53.116C647.666 53.492 647.946 53.784 648.298 53.992C648.658 54.2 649.042 54.304 649.45 54.304C649.922 54.304 650.318 54.192 650.638 53.968C650.958 53.744 651.218 53.464 651.418 53.128L652.186 53.536C652.058 53.824 651.862 54.092 651.598 54.34C651.334 54.58 651.018 54.776 650.65 54.928C650.29 55.072 649.89 55.144 649.45 55.144ZM653.904 55V48.568H654.804V49.624L654.684 49.468C654.836 49.164 655.064 48.924 655.368 48.748C655.68 48.572 656.056 48.484 656.496 48.484H656.904V49.384H656.34C655.876 49.384 655.504 49.528 655.224 49.816C654.944 50.104 654.804 50.512 654.804 51.04V55H653.904ZM661.594 56.68C660.962 55.96 660.478 55.148 660.142 54.244C659.814 53.34 659.65 52.38 659.65 51.364C659.65 50.34 659.814 49.38 660.142 48.484C660.478 47.58 660.962 46.772 661.594 46.06H662.374C661.798 46.86 661.358 47.712 661.054 48.616C660.758 49.52 660.61 50.436 660.61 51.364C660.61 52.292 660.758 53.208 661.054 54.112C661.358 55.016 661.798 55.872 662.374 56.68H661.594ZM663.669 55V46.06H666.741C667.325 46.06 667.837 46.176 668.277 46.408C668.717 46.632 669.057 46.952 669.297 47.368C669.545 47.776 669.669 48.252 669.669 48.796C669.669 49.428 669.501 49.968 669.165 50.416C668.837 50.864 668.389 51.18 667.821 51.364L669.909 55H668.781L666.597 51.148L667.245 51.52H664.629V55H663.669ZM664.629 50.62H666.789C667.173 50.62 667.509 50.548 667.797 50.404C668.085 50.252 668.309 50.04 668.469 49.768C668.629 49.488 668.709 49.16 668.709 48.784C668.709 48.408 668.629 48.084 668.469 47.812C668.309 47.54 668.085 47.332 667.797 47.188C667.509 47.036 667.173 46.96 666.789 46.96H664.629V50.62ZM673.085 55.144C672.677 55.144 672.313 55.068 671.993 54.916C671.673 54.756 671.421 54.54 671.237 54.268C671.053 53.996 670.961 53.684 670.961 53.332C670.961 52.996 671.033 52.692 671.177 52.42C671.321 52.14 671.545 51.904 671.849 51.712C672.153 51.52 672.541 51.384 673.013 51.304L675.533 50.884V51.7L673.229 52.084C672.765 52.164 672.429 52.312 672.221 52.528C672.021 52.744 671.921 53 671.921 53.296C671.921 53.584 672.033 53.828 672.257 54.028C672.489 54.228 672.785 54.328 673.145 54.328C673.585 54.328 673.969 54.236 674.297 54.052C674.625 53.86 674.881 53.604 675.065 53.284C675.249 52.964 675.341 52.608 675.341 52.216V50.584C675.341 50.2 675.201 49.888 674.921 49.648C674.641 49.408 674.277 49.288 673.829 49.288C673.437 49.288 673.093 49.388 672.797 49.588C672.501 49.78 672.281 50.032 672.137 50.344L671.321 49.9C671.441 49.628 671.629 49.38 671.885 49.156C672.149 48.932 672.449 48.756 672.785 48.628C673.121 48.492 673.469 48.424 673.829 48.424C674.301 48.424 674.717 48.516 675.077 48.7C675.445 48.884 675.729 49.14 675.929 49.468C676.137 49.788 676.241 50.16 676.241 50.584V55H675.341V53.716L675.473 53.848C675.361 54.088 675.185 54.308 674.945 54.508C674.713 54.7 674.437 54.856 674.117 54.976C673.805 55.088 673.461 55.144 673.085 55.144ZM681.032 55.144C680.4 55.144 679.844 54.996 679.364 54.7C678.884 54.404 678.508 54.004 678.236 53.5C677.964 52.988 677.828 52.412 677.828 51.772C677.828 51.132 677.964 50.56 678.236 50.056C678.508 49.552 678.884 49.156 679.364 48.868C679.844 48.572 680.4 48.424 681.032 48.424C681.432 48.424 681.808 48.496 682.16 48.64C682.512 48.784 682.824 48.98 683.096 49.228C683.368 49.468 683.572 49.748 683.708 50.068L682.892 50.488C682.732 50.144 682.488 49.864 682.16 49.648C681.832 49.432 681.456 49.324 681.032 49.324C680.608 49.324 680.224 49.432 679.88 49.648C679.544 49.856 679.276 50.148 679.076 50.524C678.884 50.892 678.788 51.312 678.788 51.784C678.788 52.248 678.884 52.668 679.076 53.044C679.276 53.412 679.544 53.704 679.88 53.92C680.224 54.136 680.608 54.244 681.032 54.244C681.456 54.244 681.828 54.136 682.148 53.92C682.476 53.704 682.724 53.416 682.892 53.056L683.708 53.5C683.572 53.812 683.368 54.092 683.096 54.34C682.824 54.588 682.512 54.784 682.16 54.928C681.808 55.072 681.432 55.144 681.032 55.144ZM688.227 55.144C687.595 55.144 687.039 54.996 686.559 54.7C686.079 54.404 685.703 54.004 685.431 53.5C685.159 52.988 685.023 52.412 685.023 51.772C685.023 51.132 685.159 50.56 685.431 50.056C685.703 49.552 686.079 49.156 686.559 48.868C687.039 48.572 687.595 48.424 688.227 48.424C688.627 48.424 689.003 48.496 689.355 48.64C689.707 48.784 690.019 48.98 690.291 49.228C690.563 49.468 690.767 49.748 690.903 50.068L690.087 50.488C689.927 50.144 689.683 49.864 689.355 49.648C689.027 49.432 688.651 49.324 688.227 49.324C687.803 49.324 687.419 49.432 687.075 49.648C686.739 49.856 686.471 50.148 686.271 50.524C686.079 50.892 685.983 51.312 685.983 51.784C685.983 52.248 686.079 52.668 686.271 53.044C686.471 53.412 686.739 53.704 687.075 53.92C687.419 54.136 687.803 54.244 688.227 54.244C688.651 54.244 689.023 54.136 689.343 53.92C689.671 53.704 689.919 53.416 690.087 53.056L690.903 53.5C690.767 53.812 690.563 54.092 690.291 54.34C690.019 54.588 689.707 54.784 689.355 54.928C689.003 55.072 688.627 55.144 688.227 55.144ZM695.495 55.144C694.887 55.144 694.335 55 693.839 54.712C693.343 54.416 692.947 54.016 692.651 53.512C692.363 53 692.219 52.42 692.219 51.772C692.219 51.132 692.363 50.56 692.651 50.056C692.939 49.552 693.327 49.156 693.815 48.868C694.311 48.572 694.871 48.424 695.495 48.424C696.119 48.424 696.675 48.568 697.163 48.856C697.659 49.144 698.047 49.54 698.327 50.044C698.615 50.548 698.759 51.124 698.759 51.772C698.759 52.428 698.611 53.012 698.315 53.524C698.019 54.028 697.623 54.424 697.127 54.712C696.639 55 696.095 55.144 695.495 55.144ZM695.495 54.244C695.927 54.244 696.315 54.136 696.659 53.92C697.011 53.704 697.287 53.408 697.487 53.032C697.695 52.656 697.799 52.236 697.799 51.772C697.799 51.308 697.695 50.892 697.487 50.524C697.287 50.156 697.011 49.864 696.659 49.648C696.315 49.432 695.927 49.324 695.495 49.324C695.063 49.324 694.671 49.432 694.319 49.648C693.975 49.864 693.699 50.156 693.491 50.524C693.283 50.892 693.179 51.308 693.179 51.772C693.179 52.236 693.283 52.656 693.491 53.032C693.699 53.408 693.975 53.704 694.319 53.92C694.671 54.136 695.063 54.244 695.495 54.244ZM703.358 55.144C702.75 55.144 702.198 55 701.702 54.712C701.206 54.416 700.81 54.016 700.514 53.512C700.226 53 700.082 52.42 700.082 51.772C700.082 51.132 700.226 50.56 700.514 50.056C700.802 49.552 701.19 49.156 701.678 48.868C702.174 48.572 702.734 48.424 703.358 48.424C703.982 48.424 704.538 48.568 705.026 48.856C705.522 49.144 705.91 49.54 706.19 50.044C706.478 50.548 706.622 51.124 706.622 51.772C706.622 52.428 706.474 53.012 706.178 53.524C705.882 54.028 705.486 54.424 704.99 54.712C704.502 55 703.958 55.144 703.358 55.144ZM703.358 54.244C703.79 54.244 704.178 54.136 704.522 53.92C704.874 53.704 705.15 53.408 705.35 53.032C705.558 52.656 705.662 52.236 705.662 51.772C705.662 51.308 705.558 50.892 705.35 50.524C705.15 50.156 704.874 49.864 704.522 49.648C704.178 49.432 703.79 49.324 703.358 49.324C702.926 49.324 702.534 49.432 702.182 49.648C701.838 49.864 701.562 50.156 701.354 50.524C701.146 50.892 701.042 51.308 701.042 51.772C701.042 52.236 701.146 52.656 701.354 53.032C701.562 53.408 701.838 53.704 702.182 53.92C702.534 54.136 702.926 54.244 703.358 54.244ZM708.209 55V48.568H709.109V49.816L708.905 49.768C709.065 49.352 709.325 49.024 709.685 48.784C710.053 48.544 710.477 48.424 710.957 48.424C711.413 48.424 711.821 48.528 712.181 48.736C712.549 48.944 712.837 49.232 713.045 49.6C713.261 49.96 713.369 50.368 713.369 50.824V55H712.469V51.172C712.469 50.78 712.397 50.448 712.253 50.176C712.117 49.904 711.921 49.696 711.665 49.552C711.417 49.4 711.129 49.324 710.801 49.324C710.473 49.324 710.181 49.4 709.925 49.552C709.669 49.696 709.469 49.908 709.325 50.188C709.181 50.46 709.109 50.788 709.109 51.172V55H708.209ZM715.124 56.56V56.14C715.364 56.076 715.54 55.952 715.652 55.768C715.764 55.584 715.82 55.328 715.82 55H715.364V53.68H716.324V54.688C716.324 55.208 716.224 55.624 716.024 55.936C715.824 56.256 715.524 56.464 715.124 56.56ZM720.494 55V46.06H721.334L724.694 50.932H724.226L727.574 46.06H728.414V55H727.454V47.356L727.766 47.476L724.478 52.24H724.43L721.154 47.476L721.454 47.356V55H720.494ZM733.321 55.144C732.721 55.144 732.177 55 731.689 54.712C731.209 54.416 730.829 54.012 730.549 53.5C730.269 52.988 730.129 52.408 730.129 51.76C730.129 51.112 730.265 50.54 730.537 50.044C730.809 49.54 731.177 49.144 731.641 48.856C732.113 48.568 732.641 48.424 733.225 48.424C733.689 48.424 734.101 48.512 734.461 48.688C734.829 48.856 735.141 49.088 735.397 49.384C735.653 49.672 735.849 50 735.985 50.368C736.121 50.728 736.189 51.1 736.189 51.484C736.189 51.564 736.185 51.656 736.177 51.76C736.169 51.856 736.157 51.956 736.141 52.06H730.705V51.22H735.625L735.193 51.58C735.265 51.14 735.213 50.748 735.037 50.404C734.869 50.052 734.625 49.776 734.305 49.576C733.985 49.368 733.625 49.264 733.225 49.264C732.825 49.264 732.453 49.368 732.109 49.576C731.773 49.784 731.509 50.076 731.317 50.452C731.125 50.82 731.049 51.26 731.089 51.772C731.049 52.284 731.129 52.732 731.329 53.116C731.537 53.492 731.817 53.784 732.169 53.992C732.529 54.2 732.913 54.304 733.321 54.304C733.793 54.304 734.189 54.192 734.509 53.968C734.829 53.744 735.089 53.464 735.289 53.128L736.057 53.536C735.929 53.824 735.733 54.092 735.469 54.34C735.205 54.58 734.889 54.776 734.521 54.928C734.161 55.072 733.761 55.144 733.321 55.144ZM740.236 55.072C739.66 55.072 739.216 54.904 738.904 54.568C738.592 54.232 738.436 53.752 738.436 53.128V49.468H737.248V48.568H737.548C737.82 48.568 738.036 48.48 738.196 48.304C738.356 48.12 738.436 47.892 738.436 47.62V47.08H739.336V48.568H740.752V49.468H739.336V53.128C739.336 53.344 739.368 53.536 739.432 53.704C739.496 53.864 739.604 53.992 739.756 54.088C739.916 54.184 740.128 54.232 740.392 54.232C740.456 54.232 740.532 54.228 740.62 54.22C740.708 54.212 740.784 54.204 740.848 54.196V55C740.752 55.024 740.644 55.04 740.524 55.048C740.404 55.064 740.308 55.072 740.236 55.072ZM744.171 55.144C743.763 55.144 743.399 55.068 743.079 54.916C742.759 54.756 742.507 54.54 742.323 54.268C742.139 53.996 742.047 53.684 742.047 53.332C742.047 52.996 742.119 52.692 742.263 52.42C742.407 52.14 742.631 51.904 742.935 51.712C743.239 51.52 743.627 51.384 744.099 51.304L746.619 50.884V51.7L744.315 52.084C743.851 52.164 743.515 52.312 743.307 52.528C743.107 52.744 743.007 53 743.007 53.296C743.007 53.584 743.119 53.828 743.343 54.028C743.575 54.228 743.871 54.328 744.231 54.328C744.671 54.328 745.055 54.236 745.383 54.052C745.711 53.86 745.967 53.604 746.151 53.284C746.335 52.964 746.427 52.608 746.427 52.216V50.584C746.427 50.2 746.287 49.888 746.007 49.648C745.727 49.408 745.363 49.288 744.915 49.288C744.523 49.288 744.179 49.388 743.883 49.588C743.587 49.78 743.367 50.032 743.223 50.344L742.407 49.9C742.527 49.628 742.715 49.38 742.971 49.156C743.235 48.932 743.535 48.756 743.871 48.628C744.207 48.492 744.555 48.424 744.915 48.424C745.387 48.424 745.803 48.516 746.163 48.7C746.531 48.884 746.815 49.14 747.015 49.468C747.223 49.788 747.327 50.16 747.327 50.584V55H746.427V53.716L746.559 53.848C746.447 54.088 746.271 54.308 746.031 54.508C745.799 54.7 745.523 54.856 745.203 54.976C744.891 55.088 744.547 55.144 744.171 55.144ZM749.214 56.56V56.14C749.454 56.076 749.63 55.952 749.742 55.768C749.854 55.584 749.91 55.328 749.91 55H749.454V53.68H750.414V54.688C750.414 55.208 750.314 55.624 750.114 55.936C749.914 56.256 749.614 56.464 749.214 56.56ZM756.935 55L753.659 46.06H754.655L757.535 54.148H757.343L760.211 46.06H761.219L757.943 55H756.935ZM762.279 55V48.568H763.179V55H762.279ZM762.279 47.38V46.06H763.179V47.38H762.279ZM767.926 55.144C767.326 55.144 766.786 55 766.306 54.712C765.826 54.416 765.446 54.016 765.166 53.512C764.894 53 764.758 52.424 764.758 51.784C764.758 51.136 764.894 50.56 765.166 50.056C765.446 49.552 765.822 49.156 766.294 48.868C766.774 48.572 767.318 48.424 767.926 48.424C768.478 48.424 768.97 48.544 769.402 48.784C769.834 49.024 770.174 49.348 770.422 49.756L770.278 50.008V45.916H771.178V55H770.278V53.56L770.422 53.692C770.198 54.156 769.862 54.516 769.414 54.772C768.974 55.02 768.478 55.144 767.926 55.144ZM767.974 54.244C768.406 54.244 768.794 54.136 769.138 53.92C769.49 53.704 769.766 53.412 769.966 53.044C770.174 52.668 770.278 52.248 770.278 51.784C770.278 51.32 770.174 50.904 769.966 50.536C769.766 50.16 769.49 49.864 769.138 49.648C768.794 49.432 768.406 49.324 767.974 49.324C767.55 49.324 767.166 49.432 766.822 49.648C766.478 49.864 766.206 50.156 766.006 50.524C765.814 50.892 765.718 51.312 765.718 51.784C765.718 52.248 765.814 52.668 766.006 53.044C766.206 53.412 766.474 53.704 766.81 53.92C767.154 54.136 767.542 54.244 767.974 54.244ZM774.886 55.144C774.478 55.144 774.114 55.068 773.794 54.916C773.474 54.756 773.222 54.54 773.038 54.268C772.854 53.996 772.762 53.684 772.762 53.332C772.762 52.996 772.834 52.692 772.978 52.42C773.122 52.14 773.346 51.904 773.65 51.712C773.954 51.52 774.342 51.384 774.814 51.304L777.334 50.884V51.7L775.03 52.084C774.566 52.164 774.23 52.312 774.022 52.528C773.822 52.744 773.722 53 773.722 53.296C773.722 53.584 773.834 53.828 774.058 54.028C774.29 54.228 774.586 54.328 774.946 54.328C775.386 54.328 775.77 54.236 776.098 54.052C776.426 53.86 776.682 53.604 776.866 53.284C777.05 52.964 777.142 52.608 777.142 52.216V50.584C777.142 50.2 777.002 49.888 776.722 49.648C776.442 49.408 776.078 49.288 775.63 49.288C775.238 49.288 774.894 49.388 774.598 49.588C774.302 49.78 774.082 50.032 773.938 50.344L773.122 49.9C773.242 49.628 773.43 49.38 773.686 49.156C773.95 48.932 774.25 48.756 774.586 48.628C774.922 48.492 775.27 48.424 775.63 48.424C776.102 48.424 776.518 48.516 776.878 48.7C777.246 48.884 777.53 49.14 777.73 49.468C777.938 49.788 778.042 50.16 778.042 50.584V55H777.142V53.716L777.274 53.848C777.162 54.088 776.986 54.308 776.746 54.508C776.514 54.7 776.238 54.856 775.918 54.976C775.606 55.088 775.262 55.144 774.886 55.144ZM779.893 55V48.568H780.793V49.624L780.673 49.468C780.825 49.164 781.053 48.924 781.357 48.748C781.669 48.572 782.045 48.484 782.485 48.484H782.893V49.384H782.329C781.865 49.384 781.493 49.528 781.213 49.816C780.933 50.104 780.793 50.512 780.793 51.04V55H779.893ZM783.263 56.68C783.839 55.872 784.275 55.016 784.571 54.112C784.875 53.208 785.027 52.292 785.027 51.364C785.027 50.436 784.875 49.52 784.571 48.616C784.275 47.712 783.839 46.86 783.263 46.06H784.043C784.683 46.772 785.167 47.58 785.495 48.484C785.823 49.38 785.987 50.34 785.987 51.364C785.987 52.38 785.823 53.34 785.495 54.244C785.167 55.148 784.683 55.96 784.043 56.68H783.263Z" fill="white"/>
<rect x="864" y="30" width="185" height="40" rx="6" fill="#D9D9D9" fill-opacity="0.2"/>
<path d="M883 55.84H895V43.84H883V55.84ZM900.303 55V50.848L897.171 46.06H898.239L900.975 50.224H900.591L903.315 46.06H904.383L901.263 50.848V55H900.303ZM907.256 55.144C906.648 55.144 906.096 55 905.6 54.712C905.104 54.416 904.708 54.016 904.412 53.512C904.124 53 903.98 52.42 903.98 51.772C903.98 51.132 904.124 50.56 904.412 50.056C904.7 49.552 905.088 49.156 905.576 48.868C906.072 48.572 906.632 48.424 907.256 48.424C907.88 48.424 908.436 48.568 908.924 48.856C909.42 49.144 909.808 49.54 910.088 50.044C910.376 50.548 910.52 51.124 910.52 51.772C910.52 52.428 910.372 53.012 910.076 53.524C909.78 54.028 909.384 54.424 908.888 54.712C908.4 55 907.856 55.144 907.256 55.144ZM907.256 54.244C907.688 54.244 908.076 54.136 908.42 53.92C908.772 53.704 909.048 53.408 909.248 53.032C909.456 52.656 909.56 52.236 909.56 51.772C909.56 51.308 909.456 50.892 909.248 50.524C909.048 50.156 908.772 49.864 908.42 49.648C908.076 49.432 907.688 49.324 907.256 49.324C906.824 49.324 906.432 49.432 906.08 49.648C905.736 49.864 905.46 50.156 905.252 50.524C905.044 50.892 904.94 51.308 904.94 51.772C904.94 52.236 905.044 52.656 905.252 53.032C905.46 53.408 905.736 53.704 906.08 53.92C906.432 54.136 906.824 54.244 907.256 54.244ZM914.388 55.144C913.94 55.144 913.532 55.04 913.164 54.832C912.796 54.616 912.504 54.32 912.288 53.944C912.08 53.56 911.976 53.12 911.976 52.624V48.568H912.876V52.516C912.876 52.86 912.944 53.164 913.08 53.428C913.224 53.684 913.42 53.884 913.668 54.028C913.924 54.172 914.216 54.244 914.544 54.244C914.872 54.244 915.164 54.172 915.42 54.028C915.676 53.876 915.876 53.664 916.02 53.392C916.164 53.112 916.236 52.78 916.236 52.396V48.568H917.136V55H916.236V53.752L916.44 53.8C916.288 54.216 916.028 54.544 915.66 54.784C915.292 55.024 914.868 55.144 914.388 55.144ZM918.987 55V48.568H919.887V49.624L919.767 49.468C919.919 49.164 920.147 48.924 920.451 48.748C920.763 48.572 921.139 48.484 921.579 48.484H921.987V49.384H921.423C920.959 49.384 920.587 49.528 920.307 49.816C920.027 50.104 919.887 50.512 919.887 51.04V55H918.987ZM928.02 55.144C927.388 55.144 926.832 54.996 926.352 54.7C925.872 54.404 925.496 54.004 925.224 53.5C924.952 52.988 924.816 52.412 924.816 51.772C924.816 51.132 924.952 50.56 925.224 50.056C925.496 49.552 925.872 49.156 926.352 48.868C926.832 48.572 927.388 48.424 928.02 48.424C928.42 48.424 928.796 48.496 929.148 48.64C929.5 48.784 929.812 48.98 930.084 49.228C930.356 49.468 930.56 49.748 930.696 50.068L929.88 50.488C929.72 50.144 929.476 49.864 929.148 49.648C928.82 49.432 928.444 49.324 928.02 49.324C927.596 49.324 927.212 49.432 926.868 49.648C926.532 49.856 926.264 50.148 926.064 50.524C925.872 50.892 925.776 51.312 925.776 51.784C925.776 52.248 925.872 52.668 926.064 53.044C926.264 53.412 926.532 53.704 926.868 53.92C927.212 54.136 927.596 54.244 928.02 54.244C928.444 54.244 928.816 54.136 929.136 53.92C929.464 53.704 929.712 53.416 929.88 53.056L930.696 53.5C930.56 53.812 930.356 54.092 930.084 54.34C929.812 54.588 929.5 54.784 929.148 54.928C928.796 55.072 928.42 55.144 928.02 55.144ZM935.288 55.144C934.68 55.144 934.128 55 933.632 54.712C933.136 54.416 932.74 54.016 932.444 53.512C932.156 53 932.012 52.42 932.012 51.772C932.012 51.132 932.156 50.56 932.444 50.056C932.732 49.552 933.12 49.156 933.608 48.868C934.104 48.572 934.664 48.424 935.288 48.424C935.912 48.424 936.468 48.568 936.956 48.856C937.452 49.144 937.84 49.54 938.12 50.044C938.408 50.548 938.552 51.124 938.552 51.772C938.552 52.428 938.404 53.012 938.108 53.524C937.812 54.028 937.416 54.424 936.92 54.712C936.432 55 935.888 55.144 935.288 55.144ZM935.288 54.244C935.72 54.244 936.108 54.136 936.452 53.92C936.804 53.704 937.08 53.408 937.28 53.032C937.488 52.656 937.592 52.236 937.592 51.772C937.592 51.308 937.488 50.892 937.28 50.524C937.08 50.156 936.804 49.864 936.452 49.648C936.108 49.432 935.72 49.324 935.288 49.324C934.856 49.324 934.464 49.432 934.112 49.648C933.768 49.864 933.492 50.156 933.284 50.524C933.076 50.892 932.972 51.308 932.972 51.772C932.972 52.236 933.076 52.656 933.284 53.032C933.492 53.408 933.768 53.704 934.112 53.92C934.464 54.136 934.856 54.244 935.288 54.244ZM940.139 55V48.568H941.039V49.624L940.919 49.468C941.071 49.164 941.299 48.924 941.603 48.748C941.915 48.572 942.291 48.484 942.731 48.484H943.139V49.384H942.575C942.111 49.384 941.739 49.528 941.459 49.816C941.179 50.104 941.039 50.512 941.039 51.04V55H940.139ZM944.194 57.4V48.568H945.094V50.008L944.95 49.756C945.206 49.348 945.546 49.024 945.97 48.784C946.402 48.544 946.894 48.424 947.446 48.424C948.054 48.424 948.594 48.572 949.066 48.868C949.546 49.156 949.922 49.552 950.194 50.056C950.474 50.56 950.614 51.136 950.614 51.784C950.614 52.424 950.474 53 950.194 53.512C949.922 54.016 949.546 54.416 949.066 54.712C948.594 55 948.054 55.144 947.446 55.144C946.894 55.144 946.394 55.02 945.946 54.772C945.506 54.516 945.174 54.156 944.95 53.692L945.094 53.56V57.4H944.194ZM947.398 54.244C947.83 54.244 948.214 54.136 948.55 53.92C948.894 53.704 949.162 53.412 949.354 53.044C949.554 52.668 949.654 52.248 949.654 51.784C949.654 51.312 949.554 50.892 949.354 50.524C949.162 50.156 948.894 49.864 948.55 49.648C948.214 49.432 947.83 49.324 947.398 49.324C946.966 49.324 946.574 49.432 946.222 49.648C945.878 49.864 945.602 50.16 945.394 50.536C945.194 50.904 945.094 51.32 945.094 51.784C945.094 52.248 945.194 52.668 945.394 53.044C945.602 53.412 945.878 53.704 946.222 53.92C946.574 54.136 946.966 54.244 947.398 54.244ZM955.209 55.144C954.601 55.144 954.049 55 953.553 54.712C953.057 54.416 952.661 54.016 952.365 53.512C952.077 53 951.933 52.42 951.933 51.772C951.933 51.132 952.077 50.56 952.365 50.056C952.653 49.552 953.041 49.156 953.529 48.868C954.025 48.572 954.585 48.424 955.209 48.424C955.833 48.424 956.389 48.568 956.877 48.856C957.373 49.144 957.761 49.54 958.041 50.044C958.329 50.548 958.473 51.124 958.473 51.772C958.473 52.428 958.325 53.012 958.029 53.524C957.733 54.028 957.337 54.424 956.841 54.712C956.353 55 955.809 55.144 955.209 55.144ZM955.209 54.244C955.641 54.244 956.029 54.136 956.373 53.92C956.725 53.704 957.001 53.408 957.201 53.032C957.409 52.656 957.513 52.236 957.513 51.772C957.513 51.308 957.409 50.892 957.201 50.524C957.001 50.156 956.725 49.864 956.373 49.648C956.029 49.432 955.641 49.324 955.209 49.324C954.777 49.324 954.385 49.432 954.033 49.648C953.689 49.864 953.413 50.156 953.205 50.524C952.997 50.892 952.893 51.308 952.893 51.772C952.893 52.236 952.997 52.656 953.205 53.032C953.413 53.408 953.689 53.704 954.033 53.92C954.385 54.136 954.777 54.244 955.209 54.244ZM960.061 55V48.568H960.961V49.624L960.841 49.468C960.993 49.164 961.221 48.924 961.525 48.748C961.837 48.572 962.213 48.484 962.653 48.484H963.061V49.384H962.497C962.033 49.384 961.661 49.528 961.381 49.816C961.101 50.104 960.961 50.512 960.961 51.04V55H960.061ZM965.975 55.144C965.567 55.144 965.203 55.068 964.883 54.916C964.563 54.756 964.311 54.54 964.127 54.268C963.943 53.996 963.851 53.684 963.851 53.332C963.851 52.996 963.923 52.692 964.067 52.42C964.211 52.14 964.435 51.904 964.739 51.712C965.043 51.52 965.431 51.384 965.903 51.304L968.423 50.884V51.7L966.119 52.084C965.655 52.164 965.319 52.312 965.111 52.528C964.911 52.744 964.811 53 964.811 53.296C964.811 53.584 964.923 53.828 965.147 54.028C965.379 54.228 965.675 54.328 966.035 54.328C966.475 54.328 966.859 54.236 967.187 54.052C967.515 53.86 967.771 53.604 967.955 53.284C968.139 52.964 968.231 52.608 968.231 52.216V50.584C968.231 50.2 968.091 49.888 967.811 49.648C967.531 49.408 967.167 49.288 966.719 49.288C966.327 49.288 965.983 49.388 965.687 49.588C965.391 49.78 965.171 50.032 965.027 50.344L964.211 49.9C964.331 49.628 964.519 49.38 964.775 49.156C965.039 48.932 965.339 48.756 965.675 48.628C966.011 48.492 966.359 48.424 966.719 48.424C967.191 48.424 967.607 48.516 967.967 48.7C968.335 48.884 968.619 49.14 968.819 49.468C969.027 49.788 969.131 50.16 969.131 50.584V55H968.231V53.716L968.363 53.848C968.251 54.088 968.075 54.308 967.835 54.508C967.603 54.7 967.327 54.856 967.007 54.976C966.695 55.088 966.351 55.144 965.975 55.144ZM973.325 55.072C972.749 55.072 972.305 54.904 971.993 54.568C971.681 54.232 971.525 53.752 971.525 53.128V49.468H970.337V48.568H970.637C970.909 48.568 971.125 48.48 971.285 48.304C971.445 48.12 971.525 47.892 971.525 47.62V47.08H972.425V48.568H973.841V49.468H972.425V53.128C972.425 53.344 972.457 53.536 972.521 53.704C972.585 53.864 972.693 53.992 972.845 54.088C973.005 54.184 973.217 54.232 973.481 54.232C973.545 54.232 973.621 54.228 973.709 54.22C973.797 54.212 973.873 54.204 973.937 54.196V55C973.841 55.024 973.733 55.04 973.613 55.048C973.493 55.064 973.397 55.072 973.325 55.072ZM978.211 55.144C977.611 55.144 977.067 55 976.579 54.712C976.099 54.416 975.719 54.012 975.439 53.5C975.159 52.988 975.019 52.408 975.019 51.76C975.019 51.112 975.155 50.54 975.427 50.044C975.699 49.54 976.067 49.144 976.531 48.856C977.003 48.568 977.531 48.424 978.115 48.424C978.579 48.424 978.991 48.512 979.351 48.688C979.719 48.856 980.031 49.088 980.287 49.384C980.543 49.672 980.739 50 980.875 50.368C981.011 50.728 981.079 51.1 981.079 51.484C981.079 51.564 981.075 51.656 981.067 51.76C981.059 51.856 981.047 51.956 981.031 52.06H975.595V51.22H980.515L980.083 51.58C980.155 51.14 980.103 50.748 979.927 50.404C979.759 50.052 979.515 49.776 979.195 49.576C978.875 49.368 978.515 49.264 978.115 49.264C977.715 49.264 977.343 49.368 976.999 49.576C976.663 49.784 976.399 50.076 976.207 50.452C976.015 50.82 975.939 51.26 975.979 51.772C975.939 52.284 976.019 52.732 976.219 53.116C976.427 53.492 976.707 53.784 977.059 53.992C977.419 54.2 977.803 54.304 978.211 54.304C978.683 54.304 979.079 54.192 979.399 53.968C979.719 53.744 979.979 53.464 980.179 53.128L980.947 53.536C980.819 53.824 980.623 54.092 980.359 54.34C980.095 54.58 979.779 54.776 979.411 54.928C979.051 55.072 978.651 55.144 978.211 55.144ZM986.937 55.144C986.321 55.144 985.781 54.988 985.317 54.676C984.853 54.364 984.517 53.94 984.309 53.404L985.065 53.044C985.249 53.436 985.505 53.748 985.833 53.98C986.169 54.212 986.537 54.328 986.937 54.328C987.321 54.328 987.645 54.236 987.909 54.052C988.173 53.86 988.305 53.612 988.305 53.308C988.305 53.084 988.241 52.908 988.113 52.78C987.985 52.644 987.837 52.54 987.669 52.468C987.501 52.396 987.353 52.344 987.225 52.312L986.301 52.048C985.709 51.88 985.281 51.644 985.017 51.34C984.753 51.036 984.621 50.684 984.621 50.284C984.621 49.908 984.717 49.58 984.909 49.3C985.101 49.02 985.361 48.804 985.689 48.652C986.017 48.5 986.381 48.424 986.781 48.424C987.325 48.424 987.817 48.568 988.257 48.856C988.705 49.136 989.021 49.528 989.205 50.032L988.437 50.392C988.277 50.032 988.045 49.752 987.741 49.552C987.445 49.344 987.113 49.24 986.745 49.24C986.385 49.24 986.097 49.332 985.881 49.516C985.665 49.7 985.557 49.932 985.557 50.212C985.557 50.428 985.613 50.6 985.725 50.728C985.837 50.856 985.965 50.952 986.109 51.016C986.261 51.08 986.393 51.128 986.505 51.16L987.573 51.472C988.093 51.624 988.497 51.86 988.785 52.18C989.081 52.5 989.229 52.876 989.229 53.308C989.229 53.66 989.129 53.976 988.929 54.256C988.737 54.536 988.469 54.756 988.125 54.916C987.781 55.068 987.385 55.144 986.937 55.144ZM990.826 57.64C990.698 57.64 990.566 57.628 990.43 57.604C990.302 57.588 990.174 57.556 990.046 57.508V56.668C990.126 56.676 990.226 56.688 990.346 56.704C990.474 56.728 990.602 56.74 990.73 56.74C991.122 56.74 991.422 56.656 991.63 56.488C991.838 56.328 992.042 56.016 992.242 55.552L992.65 54.592L992.626 55.384L989.902 48.568H990.874L993.106 54.196H992.854L995.074 48.568H996.07L993.13 55.816C993.002 56.128 992.838 56.424 992.638 56.704C992.446 56.984 992.202 57.208 991.906 57.376C991.61 57.552 991.25 57.64 990.826 57.64ZM999.359 55.144C998.743 55.144 998.203 54.988 997.739 54.676C997.275 54.364 996.939 53.94 996.731 53.404L997.487 53.044C997.671 53.436 997.927 53.748 998.255 53.98C998.591 54.212 998.959 54.328 999.359 54.328C999.743 54.328 1000.07 54.236 1000.33 54.052C1000.6 53.86 1000.73 53.612 1000.73 53.308C1000.73 53.084 1000.66 52.908 1000.54 52.78C1000.41 52.644 1000.26 52.54 1000.09 52.468C999.923 52.396 999.775 52.344 999.647 52.312L998.723 52.048C998.131 51.88 997.703 51.644 997.439 51.34C997.175 51.036 997.043 50.684 997.043 50.284C997.043 49.908 997.139 49.58 997.331 49.3C997.523 49.02 997.783 48.804 998.111 48.652C998.439 48.5 998.803 48.424 999.203 48.424C999.747 48.424 1000.24 48.568 1000.68 48.856C1001.13 49.136 1001.44 49.528 1001.63 50.032L1000.86 50.392C1000.7 50.032 1000.47 49.752 1000.16 49.552C999.867 49.344 999.535 49.24 999.167 49.24C998.807 49.24 998.519 49.332 998.303 49.516C998.087 49.7 997.979 49.932 997.979 50.212C997.979 50.428 998.035 50.6 998.147 50.728C998.259 50.856 998.387 50.952 998.531 51.016C998.683 51.08 998.815 51.128 998.927 51.16L999.995 51.472C1000.52 51.624 1000.92 51.86 1001.21 52.18C1001.5 52.5 1001.65 52.876 1001.65 53.308C1001.65 53.66 1001.55 53.976 1001.35 54.256C1001.16 54.536 1000.89 54.756 1000.55 54.916C1000.2 55.068 999.807 55.144 999.359 55.144ZM1005.69 55.072C1005.12 55.072 1004.67 54.904 1004.36 54.568C1004.05 54.232 1003.89 53.752 1003.89 53.128V49.468H1002.7V48.568H1003C1003.28 48.568 1003.49 48.48 1003.65 48.304C1003.81 48.12 1003.89 47.892 1003.89 47.62V47.08H1004.79V48.568H1006.21V49.468H1004.79V53.128C1004.79 53.344 1004.82 53.536 1004.89 53.704C1004.95 53.864 1005.06 53.992 1005.21 54.088C1005.37 54.184 1005.58 54.232 1005.85 54.232C1005.91 54.232 1005.99 54.228 1006.08 54.22C1006.16 54.212 1006.24 54.204 1006.3 54.196V55C1006.21 55.024 1006.1 55.04 1005.98 55.048C1005.86 55.064 1005.76 55.072 1005.69 55.072ZM1010.58 55.144C1009.98 55.144 1009.43 55 1008.95 54.712C1008.47 54.416 1008.09 54.012 1007.81 53.5C1007.53 52.988 1007.39 52.408 1007.39 51.76C1007.39 51.112 1007.52 50.54 1007.79 50.044C1008.07 49.54 1008.43 49.144 1008.9 48.856C1009.37 48.568 1009.9 48.424 1010.48 48.424C1010.95 48.424 1011.36 48.512 1011.72 48.688C1012.09 48.856 1012.4 49.088 1012.65 49.384C1012.91 49.672 1013.11 50 1013.24 50.368C1013.38 50.728 1013.45 51.1 1013.45 51.484C1013.45 51.564 1013.44 51.656 1013.43 51.76C1013.43 51.856 1013.41 51.956 1013.4 52.06H1007.96V51.22H1012.88L1012.45 51.58C1012.52 51.14 1012.47 50.748 1012.29 50.404C1012.13 50.052 1011.88 49.776 1011.56 49.576C1011.24 49.368 1010.88 49.264 1010.48 49.264C1010.08 49.264 1009.71 49.368 1009.37 49.576C1009.03 49.784 1008.77 50.076 1008.57 50.452C1008.38 50.82 1008.31 51.26 1008.35 51.772C1008.31 52.284 1008.39 52.732 1008.59 53.116C1008.79 53.492 1009.07 53.784 1009.43 53.992C1009.79 54.2 1010.17 54.304 1010.58 54.304C1011.05 54.304 1011.45 54.192 1011.77 53.968C1012.09 53.744 1012.35 53.464 1012.55 53.128L1013.31 53.536C1013.19 53.824 1012.99 54.092 1012.73 54.34C1012.46 54.58 1012.15 54.776 1011.78 54.928C1011.42 55.072 1011.02 55.144 1010.58 55.144ZM1015.03 55V48.568H1015.93V49.792L1015.79 49.612C1015.97 49.236 1016.23 48.944 1016.57 48.736C1016.92 48.528 1017.31 48.424 1017.72 48.424C1018.22 48.424 1018.67 48.564 1019.07 48.844C1019.47 49.124 1019.75 49.488 1019.92 49.936L1019.67 49.948C1019.83 49.452 1020.1 49.076 1020.49 48.82C1020.89 48.556 1021.33 48.424 1021.81 48.424C1022.25 48.424 1022.64 48.528 1023 48.736C1023.37 48.944 1023.66 49.232 1023.88 49.6C1024.1 49.96 1024.21 50.368 1024.21 50.824V55H1023.31V51.172C1023.31 50.78 1023.24 50.448 1023.1 50.176C1022.96 49.904 1022.77 49.696 1022.53 49.552C1022.29 49.4 1022.02 49.324 1021.71 49.324C1021.4 49.324 1021.13 49.4 1020.88 49.552C1020.63 49.696 1020.43 49.908 1020.29 50.188C1020.15 50.46 1020.07 50.788 1020.07 51.172V55H1019.17V51.172C1019.17 50.78 1019.1 50.448 1018.96 50.176C1018.82 49.904 1018.63 49.696 1018.39 49.552C1018.15 49.4 1017.88 49.324 1017.57 49.324C1017.25 49.324 1016.97 49.4 1016.73 49.552C1016.49 49.696 1016.29 49.908 1016.15 50.188C1016.01 50.46 1015.93 50.788 1015.93 51.172V55H1015.03ZM1028.16 55.144C1027.55 55.144 1027.01 54.988 1026.54 54.676C1026.08 54.364 1025.74 53.94 1025.54 53.404L1026.29 53.044C1026.48 53.436 1026.73 53.748 1027.06 53.98C1027.4 54.212 1027.76 54.328 1028.16 54.328C1028.55 54.328 1028.87 54.236 1029.14 54.052C1029.4 53.86 1029.53 53.612 1029.53 53.308C1029.53 53.084 1029.47 52.908 1029.34 52.78C1029.21 52.644 1029.06 52.54 1028.9 52.468C1028.73 52.396 1028.58 52.344 1028.45 52.312L1027.53 52.048C1026.94 51.88 1026.51 51.644 1026.24 51.34C1025.98 51.036 1025.85 50.684 1025.85 50.284C1025.85 49.908 1025.94 49.58 1026.14 49.3C1026.33 49.02 1026.59 48.804 1026.92 48.652C1027.24 48.5 1027.61 48.424 1028.01 48.424C1028.55 48.424 1029.04 48.568 1029.48 48.856C1029.93 49.136 1030.25 49.528 1030.43 50.032L1029.66 50.392C1029.5 50.032 1029.27 49.752 1028.97 49.552C1028.67 49.344 1028.34 49.24 1027.97 49.24C1027.61 49.24 1027.32 49.332 1027.11 49.516C1026.89 49.7 1026.78 49.932 1026.78 50.212C1026.78 50.428 1026.84 50.6 1026.95 50.728C1027.06 50.856 1027.19 50.952 1027.34 51.016C1027.49 51.08 1027.62 51.128 1027.73 51.16L1028.8 51.472C1029.32 51.624 1029.72 51.86 1030.01 52.18C1030.31 52.5 1030.46 52.876 1030.46 53.308C1030.46 53.66 1030.36 53.976 1030.16 54.256C1029.96 54.536 1029.7 54.756 1029.35 54.916C1029.01 55.068 1028.61 55.144 1028.16 55.144Z" fill="white"/>
<path d="M295.354 51.3536C295.549 51.1583 295.549 50.8417 295.354 50.6464L292.172 47.4645C291.976 47.2692 291.66 47.2692 291.464 47.4645C291.269 47.6597 291.269 47.9763 291.464 48.1716L294.293 51L291.464 53.8284C291.269 54.0237 291.269 54.3403 291.464 54.5355C291.66 54.7308 291.976 54.7308 292.172 54.5355L295.354 51.3536ZM267 51V51.5H295V51V50.5H267V51Z" fill="white"/>
<path d="M553.354 51.3536C553.549 51.1583 553.549 50.8417 553.354 50.6464L550.172 47.4645C549.976 47.2692 549.66 47.2692 549.464 47.4645C549.269 47.6597 549.269 47.9763 549.464 48.1716L552.293 51L549.464 53.8284C549.269 54.0237 549.269 54.3403 549.464 54.5355C549.66 54.7308 549.976 54.7308 550.172 54.5355L553.354 51.3536ZM525 51V51.5H553V51V50.5H525V51Z" fill="white"/>
<path d="M849.354 51.3536C849.549 51.1583 849.549 50.8417 849.354 50.6464L846.172 47.4645C845.976 47.2692 845.66 47.2692 845.464 47.4645C845.269 47.6597 845.269 47.9763 845.464 48.1716L848.293 51L845.464 53.8284C845.269 54.0237 845.269 54.3403 845.464 54.5355C845.66 54.7308 845.976 54.7308 846.172 54.5355L849.354 51.3536ZM821 51V51.5H849V51V50.5H821V51Z" fill="white"/>
<defs>
<linearGradient id="paint0_linear_73_107" x1="-3.88728e-08" y1="14.5" x2="1134" y2="100" gradientUnits="userSpaceOnUse">
<stop stop-color="#7C30F7"/>
<stop offset="1" stop-color="#0E0A2C"/>
</linearGradient>
</defs>
</svg>
