<svg width="522" height="273" viewBox="0 0 522 273" fill="none" xmlns="http://www.w3.org/2000/svg">
<path d="M0.88 11V3.55H1.68V6.9H5.68V3.55H6.48V11H5.68V7.65H1.68V11H0.88ZM8.13328 11V5.64H8.88328V11H8.13328ZM8.13328 4.65V3.55H8.88328V4.65H8.13328ZM12.2784 11.12C11.7651 11.12 11.3151 10.99 10.9284 10.73C10.5418 10.47 10.2618 10.1167 10.0884 9.67L10.7184 9.37C10.8718 9.69667 11.0851 9.95667 11.3584 10.15C11.6384 10.3433 11.9451 10.44 12.2784 10.44C12.5984 10.44 12.8684 10.3633 13.0884 10.21C13.3084 10.05 13.4184 9.84333 13.4184 9.59C13.4184 9.40333 13.3651 9.25667 13.2584 9.15C13.1518 9.03667 13.0284 8.95 12.8884 8.89C12.7484 8.83 12.6251 8.78667 12.5184 8.76L11.7484 8.54C11.2551 8.4 10.8984 8.20333 10.6784 7.95C10.4584 7.69667 10.3484 7.40333 10.3484 7.07C10.3484 6.75667 10.4284 6.48333 10.5884 6.25C10.7484 6.01667 10.9651 5.83667 11.2384 5.71C11.5118 5.58333 11.8151 5.52 12.1484 5.52C12.6018 5.52 13.0118 5.64 13.3784 5.88C13.7518 6.11333 14.0151 6.44 14.1684 6.86L13.5284 7.16C13.3951 6.86 13.2018 6.62667 12.9484 6.46C12.7018 6.28667 12.4251 6.2 12.1184 6.2C11.8184 6.2 11.5784 6.27667 11.3984 6.43C11.2184 6.58333 11.1284 6.77667 11.1284 7.01C11.1284 7.19 11.1751 7.33333 11.2684 7.44C11.3618 7.54667 11.4684 7.62667 11.5884 7.68C11.7151 7.73333 11.8251 7.77333 11.9184 7.8L12.8084 8.06C13.2418 8.18667 13.5784 8.38333 13.8184 8.65C14.0651 8.91667 14.1884 9.23 14.1884 9.59C14.1884 9.88333 14.1051 10.1467 13.9384 10.38C13.7784 10.6133 13.5551 10.7967 13.2684 10.93C12.9818 11.0567 12.6518 11.12 12.2784 11.12ZM17.5563 11.06C17.0763 11.06 16.7063 10.92 16.4463 10.64C16.1863 10.36 16.0563 9.96 16.0563 9.44V6.39H15.0663V5.64H15.3163C15.543 5.64 15.723 5.56667 15.8563 5.42C15.9897 5.26667 16.0563 5.07667 16.0563 4.85V4.4H16.8063V5.64H17.9863V6.39H16.8063V9.44C16.8063 9.62 16.833 9.78 16.8863 9.92C16.9397 10.0533 17.0297 10.16 17.1563 10.24C17.2897 10.32 17.4663 10.36 17.6863 10.36C17.7397 10.36 17.803 10.3567 17.8763 10.35C17.9497 10.3433 18.013 10.3367 18.0663 10.33V11C17.9863 11.02 17.8963 11.0333 17.7963 11.04C17.6963 11.0533 17.6163 11.06 17.5563 11.06ZM21.698 11.12C21.1913 11.12 20.7313 11 20.318 10.76C19.9046 10.5133 19.5746 10.18 19.328 9.76C19.088 9.33333 18.968 8.85 18.968 8.31C18.968 7.77667 19.088 7.3 19.328 6.88C19.568 6.46 19.8913 6.13 20.298 5.89C20.7113 5.64333 21.178 5.52 21.698 5.52C22.218 5.52 22.6813 5.64 23.088 5.88C23.5013 6.12 23.8246 6.45 24.058 6.87C24.298 7.29 24.418 7.77 24.418 8.31C24.418 8.85667 24.2946 9.34333 24.048 9.77C23.8013 10.19 23.4713 10.52 23.058 10.76C22.6513 11 22.198 11.12 21.698 11.12ZM21.698 10.37C22.058 10.37 22.3813 10.28 22.668 10.1C22.9613 9.92 23.1913 9.67333 23.358 9.36C23.5313 9.04667 23.618 8.69667 23.618 8.31C23.618 7.92333 23.5313 7.57667 23.358 7.27C23.1913 6.96333 22.9613 6.72 22.668 6.54C22.3813 6.36 22.058 6.27 21.698 6.27C21.338 6.27 21.0113 6.36 20.718 6.54C20.4313 6.72 20.2013 6.96333 20.028 7.27C19.8546 7.57667 19.768 7.92333 19.768 8.31C19.768 8.69667 19.8546 9.04667 20.028 9.36C20.2013 9.67333 20.4313 9.92 20.718 10.1C21.0113 10.28 21.338 10.37 21.698 10.37ZM25.7407 11V5.64H26.4907V6.52L26.3907 6.39C26.5174 6.13667 26.7074 5.93667 26.9607 5.79C27.2207 5.64333 27.534 5.57 27.9007 5.57H28.2407V6.32H27.7707C27.384 6.32 27.074 6.44 26.8407 6.68C26.6074 6.92 26.4907 7.26 26.4907 7.7V11H25.7407ZM29.1196 11V5.64H29.8696V11H29.1196ZM29.1196 4.65V3.55H29.8696V4.65H29.1196ZM33.8548 11.12C33.3281 11.12 32.8648 10.9967 32.4648 10.75C32.0648 10.5033 31.7514 10.17 31.5248 9.75C31.2981 9.32333 31.1848 8.84333 31.1848 8.31C31.1848 7.77667 31.2981 7.3 31.5248 6.88C31.7514 6.46 32.0648 6.13 32.4648 5.89C32.8648 5.64333 33.3281 5.52 33.8548 5.52C34.1881 5.52 34.5014 5.58 34.7948 5.7C35.0881 5.82 35.3481 5.98333 35.5748 6.19C35.8014 6.39 35.9714 6.62333 36.0848 6.89L35.4048 7.24C35.2714 6.95333 35.0681 6.72 34.7948 6.54C34.5214 6.36 34.2081 6.27 33.8548 6.27C33.5014 6.27 33.1814 6.36 32.8948 6.54C32.6148 6.71333 32.3914 6.95667 32.2248 7.27C32.0648 7.57667 31.9848 7.92667 31.9848 8.32C31.9848 8.70667 32.0648 9.05667 32.2248 9.37C32.3914 9.67667 32.6148 9.92 32.8948 10.1C33.1814 10.28 33.5014 10.37 33.8548 10.37C34.2081 10.37 34.5181 10.28 34.7848 10.1C35.0581 9.92 35.2648 9.68 35.4048 9.38L36.0848 9.75C35.9714 10.01 35.8014 10.2433 35.5748 10.45C35.3481 10.6567 35.0881 10.82 34.7948 10.94C34.5014 11.06 34.1881 11.12 33.8548 11.12ZM38.8532 11.12C38.5132 11.12 38.2099 11.0567 37.9432 10.93C37.6765 10.7967 37.4665 10.6167 37.3132 10.39C37.1599 10.1633 37.0832 9.90333 37.0832 9.61C37.0832 9.33 37.1432 9.07667 37.2632 8.85C37.3832 8.61667 37.5699 8.42 37.8232 8.26C38.0765 8.1 38.3999 7.98667 38.7932 7.92L40.8932 7.57V8.25L38.9732 8.57C38.5865 8.63667 38.3065 8.76 38.1332 8.94C37.9665 9.12 37.8832 9.33333 37.8832 9.58C37.8832 9.82 37.9765 10.0233 38.1632 10.19C38.3565 10.3567 38.6032 10.44 38.9032 10.44C39.2699 10.44 39.5899 10.3633 39.8632 10.21C40.1365 10.05 40.3499 9.83667 40.5032 9.57C40.6565 9.30333 40.7332 9.00667 40.7332 8.68V7.32C40.7332 7 40.6165 6.74 40.3832 6.54C40.1499 6.34 39.8465 6.24 39.4732 6.24C39.1465 6.24 38.8599 6.32333 38.6132 6.49C38.3665 6.65 38.1832 6.86 38.0632 7.12L37.3832 6.75C37.4832 6.52333 37.6399 6.31667 37.8532 6.13C38.0732 5.94333 38.3232 5.79667 38.6032 5.69C38.8832 5.57667 39.1732 5.52 39.4732 5.52C39.8665 5.52 40.2132 5.59667 40.5132 5.75C40.8199 5.90333 41.0565 6.11667 41.2232 6.39C41.3965 6.65667 41.4832 6.96667 41.4832 7.32V11H40.7332V9.93L40.8432 10.04C40.7499 10.24 40.6032 10.4233 40.4032 10.59C40.2099 10.75 39.9799 10.88 39.7132 10.98C39.4532 11.0733 39.1665 11.12 38.8532 11.12ZM43.0259 11V3.43H43.7759V11H43.0259ZM46.2602 12.2L49.6402 3.96H50.5102L47.1302 12.2H46.2602ZM53.1066 11V3.55H55.6666C56.1532 3.55 56.5799 3.64667 56.9466 3.84C57.3132 4.02667 57.5966 4.29333 57.7966 4.64C58.0032 4.98 58.1066 5.37667 58.1066 5.83C58.1066 6.28333 58.0032 6.68 57.7966 7.02C57.5966 7.36 57.3132 7.62667 56.9466 7.82C56.5866 8.00667 56.1599 8.1 55.6666 8.1H53.9066V11H53.1066ZM53.9066 7.35H55.7066C56.0266 7.35 56.3066 7.29 56.5466 7.17C56.7866 7.04333 56.9732 6.86667 57.1066 6.64C57.2399 6.40667 57.3066 6.13333 57.3066 5.82C57.3066 5.50667 57.2399 5.23667 57.1066 5.01C56.9732 4.78333 56.7866 4.61 56.5466 4.49C56.3066 4.36333 56.0266 4.3 55.7066 4.3H53.9066V7.35ZM61.3223 11.12C60.949 11.12 60.609 11.0333 60.3023 10.86C59.9957 10.68 59.7523 10.4333 59.5723 10.12C59.399 9.8 59.3123 9.43333 59.3123 9.02V5.64H60.0623V8.93C60.0623 9.21667 60.119 9.47 60.2323 9.69C60.3523 9.90333 60.5157 10.07 60.7223 10.19C60.9357 10.31 61.179 10.37 61.4523 10.37C61.7257 10.37 61.969 10.31 62.1823 10.19C62.3957 10.0633 62.5623 9.88667 62.6823 9.66C62.8023 9.42667 62.8623 9.15 62.8623 8.83V5.64H63.6123V11H62.8623V9.96L63.0323 10C62.9057 10.3467 62.689 10.62 62.3823 10.82C62.0757 11.02 61.7223 11.12 61.3223 11.12ZM67.8648 11.12C67.4048 11.12 66.9881 11.0167 66.6148 10.81C66.2481 10.5967 65.9714 10.2967 65.7848 9.91L65.9048 9.8V11H65.1548V3.43H65.9048V6.84L65.7848 6.63C65.9981 6.29 66.2814 6.02 66.6348 5.82C66.9948 5.62 67.4048 5.52 67.8648 5.52C68.3714 5.52 68.8214 5.64333 69.2148 5.89C69.6148 6.13 69.9281 6.46 70.1548 6.88C70.3881 7.3 70.5048 7.78 70.5048 8.32C70.5048 8.85333 70.3881 9.33333 70.1548 9.76C69.9281 10.18 69.6148 10.5133 69.2148 10.76C68.8214 11 68.3714 11.12 67.8648 11.12ZM67.8248 10.37C68.1848 10.37 68.5048 10.28 68.7848 10.1C69.0714 9.92 69.2948 9.67667 69.4548 9.37C69.6214 9.05667 69.7048 8.70667 69.7048 8.32C69.7048 7.92667 69.6214 7.57667 69.4548 7.27C69.2948 6.96333 69.0714 6.72 68.7848 6.54C68.5048 6.36 68.1848 6.27 67.8248 6.27C67.4648 6.27 67.1381 6.36 66.8448 6.54C66.5581 6.72 66.3281 6.96667 66.1548 7.28C65.9881 7.58667 65.9048 7.93333 65.9048 8.32C65.9048 8.70667 65.9881 9.05667 66.1548 9.37C66.3281 9.67667 66.5581 9.92 66.8448 10.1C67.1381 10.28 67.4648 10.37 67.8248 10.37ZM71.8247 11V3.43H72.5747V11H71.8247ZM74.1098 11V5.64H74.8598V11H74.1098ZM74.1098 4.65V3.55H74.8598V4.65H74.1098ZM78.845 11.12C78.3183 11.12 77.855 10.9967 77.455 10.75C77.055 10.5033 76.7417 10.17 76.515 9.75C76.2883 9.32333 76.175 8.84333 76.175 8.31C76.175 7.77667 76.2883 7.3 76.515 6.88C76.7417 6.46 77.055 6.13 77.455 5.89C77.855 5.64333 78.3183 5.52 78.845 5.52C79.1783 5.52 79.4917 5.58 79.785 5.7C80.0783 5.82 80.3383 5.98333 80.565 6.19C80.7917 6.39 80.9617 6.62333 81.075 6.89L80.395 7.24C80.2617 6.95333 80.0583 6.72 79.785 6.54C79.5117 6.36 79.1983 6.27 78.845 6.27C78.4917 6.27 78.1717 6.36 77.885 6.54C77.605 6.71333 77.3817 6.95667 77.215 7.27C77.055 7.57667 76.975 7.92667 76.975 8.32C76.975 8.70667 77.055 9.05667 77.215 9.37C77.3817 9.67667 77.605 9.92 77.885 10.1C78.1717 10.28 78.4917 10.37 78.845 10.37C79.1983 10.37 79.5083 10.28 79.775 10.1C80.0483 9.92 80.255 9.68 80.395 9.38L81.075 9.75C80.9617 10.01 80.7917 10.2433 80.565 10.45C80.3383 10.6567 80.0783 10.82 79.785 10.94C79.4917 11.06 79.1783 11.12 78.845 11.12ZM84.2003 11V3.55H85.0003V10.25H88.3003V11H84.2003ZM91.8428 11.12C91.3428 11.12 90.8895 11 90.4828 10.76C90.0828 10.5133 89.7661 10.1767 89.5328 9.75C89.2995 9.32333 89.1828 8.84 89.1828 8.3C89.1828 7.76 89.2961 7.28333 89.5228 6.87C89.7495 6.45 90.0561 6.12 90.4428 5.88C90.8361 5.64 91.2761 5.52 91.7628 5.52C92.1495 5.52 92.4928 5.59333 92.7928 5.74C93.0995 5.88 93.3595 6.07333 93.5728 6.32C93.7861 6.56 93.9495 6.83333 94.0628 7.14C94.1761 7.44 94.2328 7.75 94.2328 8.07C94.2328 8.13667 94.2295 8.21333 94.2228 8.3C94.2161 8.38 94.2061 8.46333 94.1928 8.55H89.6628V7.85H93.7628L93.4028 8.15C93.4628 7.78333 93.4195 7.45667 93.2728 7.17C93.1328 6.87667 92.9295 6.64667 92.6628 6.48C92.3961 6.30667 92.0961 6.22 91.7628 6.22C91.4295 6.22 91.1195 6.30667 90.8328 6.48C90.5528 6.65333 90.3328 6.89667 90.1728 7.21C90.0128 7.51667 89.9495 7.88333 89.9828 8.31C89.9495 8.73667 90.0161 9.11 90.1828 9.43C90.3561 9.74333 90.5895 9.98667 90.8828 10.16C91.1828 10.3333 91.5028 10.42 91.8428 10.42C92.2361 10.42 92.5661 10.3267 92.8328 10.14C93.0995 9.95333 93.3161 9.72 93.4828 9.44L94.1228 9.78C94.0161 10.02 93.8528 10.2433 93.6328 10.45C93.4128 10.65 93.1495 10.8133 92.8428 10.94C92.5428 11.06 92.2095 11.12 91.8428 11.12ZM97.0075 11.12C96.6675 11.12 96.3642 11.0567 96.0975 10.93C95.8308 10.7967 95.6208 10.6167 95.4675 10.39C95.3142 10.1633 95.2375 9.90333 95.2375 9.61C95.2375 9.33 95.2975 9.07667 95.4175 8.85C95.5375 8.61667 95.7242 8.42 95.9775 8.26C96.2308 8.1 96.5542 7.98667 96.9475 7.92L99.0475 7.57V8.25L97.1275 8.57C96.7408 8.63667 96.4608 8.76 96.2875 8.94C96.1208 9.12 96.0375 9.33333 96.0375 9.58C96.0375 9.82 96.1308 10.0233 96.3175 10.19C96.5108 10.3567 96.7575 10.44 97.0575 10.44C97.4242 10.44 97.7442 10.3633 98.0175 10.21C98.2908 10.05 98.5042 9.83667 98.6575 9.57C98.8108 9.30333 98.8875 9.00667 98.8875 8.68V7.32C98.8875 7 98.7708 6.74 98.5375 6.54C98.3042 6.34 98.0008 6.24 97.6275 6.24C97.3008 6.24 97.0142 6.32333 96.7675 6.49C96.5208 6.65 96.3375 6.86 96.2175 7.12L95.5375 6.75C95.6375 6.52333 95.7942 6.31667 96.0075 6.13C96.2275 5.94333 96.4775 5.79667 96.7575 5.69C97.0375 5.57667 97.3275 5.52 97.6275 5.52C98.0208 5.52 98.3675 5.59667 98.6675 5.75C98.9742 5.90333 99.2108 6.11667 99.3775 6.39C99.5508 6.65667 99.6375 6.96667 99.6375 7.32V11H98.8875V9.93L98.9975 10.04C98.9042 10.24 98.7575 10.4233 98.5575 10.59C98.3642 10.75 98.1342 10.88 97.8675 10.98C97.6075 11.0733 97.3208 11.12 97.0075 11.12ZM101.18 11V3.43H101.93V8.73L101.61 8.68L104.62 5.64H105.59L103.49 7.79L105.78 11H104.88L102.73 8.03L103.21 8.07L101.68 9.65L101.93 9.03V11H101.18Z" fill="#B4B4B4"/>
<path d="M507.81 11V4.25H506.41V3.55H508.61V11H507.81ZM512.651 11.12C512.264 11.12 511.908 11.0533 511.581 10.92C511.254 10.7867 510.968 10.5967 510.721 10.35C510.481 10.1033 510.298 9.81 510.171 9.47L510.811 9.17C510.964 9.55667 511.204 9.86333 511.531 10.09C511.858 10.31 512.231 10.42 512.651 10.42C512.984 10.42 513.281 10.3567 513.541 10.23C513.801 10.0967 514.004 9.90667 514.151 9.66C514.298 9.41333 514.371 9.11333 514.371 8.76C514.371 8.40667 514.294 8.10667 514.141 7.86C513.994 7.61333 513.791 7.42667 513.531 7.3C513.271 7.17333 512.974 7.11 512.641 7.11C512.554 7.11 512.458 7.11333 512.351 7.12C512.251 7.12667 512.168 7.13667 512.101 7.15L511.941 6.8L513.951 4.25H510.521V3.55H514.851V4.25L512.971 6.62L512.871 6.49C513.318 6.50333 513.714 6.61 514.061 6.81C514.408 7.00333 514.678 7.26667 514.871 7.6C515.071 7.93333 515.171 8.32 515.171 8.76C515.171 9.2 515.064 9.6 514.851 9.96C514.638 10.3133 514.341 10.5967 513.961 10.81C513.581 11.0167 513.144 11.12 512.651 11.12ZM518.745 11.12C518.358 11.12 518.001 11.0533 517.675 10.92C517.348 10.7867 517.061 10.5967 516.815 10.35C516.575 10.1033 516.391 9.81 516.265 9.47L516.905 9.17C517.058 9.55667 517.298 9.86333 517.625 10.09C517.951 10.31 518.325 10.42 518.745 10.42C519.078 10.42 519.375 10.3567 519.635 10.23C519.895 10.0967 520.098 9.90667 520.245 9.66C520.391 9.41333 520.465 9.11333 520.465 8.76C520.465 8.40667 520.388 8.10667 520.235 7.86C520.088 7.61333 519.885 7.42667 519.625 7.3C519.365 7.17333 519.068 7.11 518.735 7.11C518.648 7.11 518.551 7.11333 518.445 7.12C518.345 7.12667 518.261 7.13667 518.195 7.15L518.035 6.8L520.045 4.25H516.615V3.55H520.945V4.25L519.065 6.62L518.965 6.49C519.411 6.50333 519.808 6.61 520.155 6.81C520.501 7.00333 520.771 7.26667 520.965 7.6C521.165 7.93333 521.265 8.32 521.265 8.76C521.265 9.2 521.158 9.6 520.945 9.96C520.731 10.3133 520.435 10.5967 520.055 10.81C519.675 11.0167 519.238 11.12 518.745 11.12Z" fill="#B4B4B4"/>
<line x1="118" y1="8" x2="482" y2="8" stroke="#343B4B" stroke-width="6" stroke-linecap="round"/>
<line x1="118" y1="8" x2="482" y2="8" stroke="url(#paint0_linear_91_101)" stroke-width="6" stroke-linecap="round"/>
<path d="M0.88 37V29.55H3.44C3.92667 29.55 4.35333 29.6467 4.72 29.84C5.08667 30.0267 5.37 30.2933 5.57 30.64C5.77667 30.98 5.88 31.3767 5.88 31.83C5.88 32.3567 5.74 32.8067 5.46 33.18C5.18667 33.5533 4.81333 33.8167 4.34 33.97L6.08 37H5.14L3.32 33.79L3.86 34.1H1.68V37H0.88ZM1.68 33.35H3.48C3.8 33.35 4.08 33.29 4.32 33.17C4.56 33.0433 4.74667 32.8667 4.88 32.64C5.01333 32.4067 5.08 32.1333 5.08 31.82C5.08 31.5067 5.01333 31.2367 4.88 31.01C4.74667 30.7833 4.56 30.61 4.32 30.49C4.08 30.3633 3.8 30.3 3.48 30.3H1.68V33.35ZM8.72625 37.12C8.38625 37.12 8.08292 37.0567 7.81625 36.93C7.54958 36.7967 7.33958 36.6167 7.18625 36.39C7.03292 36.1633 6.95625 35.9033 6.95625 35.61C6.95625 35.33 7.01625 35.0767 7.13625 34.85C7.25625 34.6167 7.44292 34.42 7.69625 34.26C7.94958 34.1 8.27292 33.9867 8.66625 33.92L10.7663 33.57V34.25L8.84625 34.57C8.45958 34.6367 8.17958 34.76 8.00625 34.94C7.83958 35.12 7.75625 35.3333 7.75625 35.58C7.75625 35.82 7.84958 36.0233 8.03625 36.19C8.22958 36.3567 8.47625 36.44 8.77625 36.44C9.14292 36.44 9.46292 36.3633 9.73625 36.21C10.0096 36.05 10.2229 35.8367 10.3763 35.57C10.5296 35.3033 10.6063 35.0067 10.6063 34.68V33.32C10.6063 33 10.4896 32.74 10.2563 32.54C10.0229 32.34 9.71958 32.24 9.34625 32.24C9.01958 32.24 8.73292 32.3233 8.48625 32.49C8.23958 32.65 8.05625 32.86 7.93625 33.12L7.25625 32.75C7.35625 32.5233 7.51292 32.3167 7.72625 32.13C7.94625 31.9433 8.19625 31.7967 8.47625 31.69C8.75625 31.5767 9.04625 31.52 9.34625 31.52C9.73958 31.52 10.0863 31.5967 10.3863 31.75C10.6929 31.9033 10.9296 32.1167 11.0963 32.39C11.2696 32.6567 11.3563 32.9667 11.3563 33.32V37H10.6063V35.93L10.7163 36.04C10.6229 36.24 10.4763 36.4233 10.2763 36.59C10.0829 36.75 9.85292 36.88 9.58625 36.98C9.32625 37.0733 9.03958 37.12 8.72625 37.12ZM15.3489 37.12C14.8222 37.12 14.3589 36.9967 13.9589 36.75C13.5589 36.5033 13.2456 36.17 13.0189 35.75C12.7922 35.3233 12.6789 34.8433 12.6789 34.31C12.6789 33.7767 12.7922 33.3 13.0189 32.88C13.2456 32.46 13.5589 32.13 13.9589 31.89C14.3589 31.6433 14.8222 31.52 15.3489 31.52C15.6822 31.52 15.9956 31.58 16.2889 31.7C16.5822 31.82 16.8422 31.9833 17.0689 32.19C17.2956 32.39 17.4656 32.6233 17.5789 32.89L16.8989 33.24C16.7656 32.9533 16.5622 32.72 16.2889 32.54C16.0156 32.36 15.7022 32.27 15.3489 32.27C14.9956 32.27 14.6756 32.36 14.3889 32.54C14.1089 32.7133 13.8856 32.9567 13.7189 33.27C13.5589 33.5767 13.4789 33.9267 13.4789 34.32C13.4789 34.7067 13.5589 35.0567 13.7189 35.37C13.8856 35.6767 14.1089 35.92 14.3889 36.1C14.6756 36.28 14.9956 36.37 15.3489 36.37C15.7022 36.37 16.0122 36.28 16.2789 36.1C16.5522 35.92 16.7589 35.68 16.8989 35.38L17.5789 35.75C17.4656 36.01 17.2956 36.2433 17.0689 36.45C16.8422 36.6567 16.5822 36.82 16.2889 36.94C15.9956 37.06 15.6822 37.12 15.3489 37.12ZM21.345 37.12C20.8183 37.12 20.355 36.9967 19.955 36.75C19.555 36.5033 19.2417 36.17 19.015 35.75C18.7883 35.3233 18.675 34.8433 18.675 34.31C18.675 33.7767 18.7883 33.3 19.015 32.88C19.2417 32.46 19.555 32.13 19.955 31.89C20.355 31.6433 20.8183 31.52 21.345 31.52C21.6783 31.52 21.9917 31.58 22.285 31.7C22.5783 31.82 22.8383 31.9833 23.065 32.19C23.2917 32.39 23.4617 32.6233 23.575 32.89L22.895 33.24C22.7617 32.9533 22.5583 32.72 22.285 32.54C22.0117 32.36 21.6983 32.27 21.345 32.27C20.9917 32.27 20.6717 32.36 20.385 32.54C20.105 32.7133 19.8817 32.9567 19.715 33.27C19.555 33.5767 19.475 33.9267 19.475 34.32C19.475 34.7067 19.555 35.0567 19.715 35.37C19.8817 35.6767 20.105 35.92 20.385 36.1C20.6717 36.28 20.9917 36.37 21.345 36.37C21.6983 36.37 22.0083 36.28 22.275 36.1C22.5483 35.92 22.755 35.68 22.895 35.38L23.575 35.75C23.4617 36.01 23.2917 36.2433 23.065 36.45C22.8383 36.6567 22.5783 36.82 22.285 36.94C21.9917 37.06 21.6783 37.12 21.345 37.12ZM27.4011 37.12C26.8944 37.12 26.4344 37 26.0211 36.76C25.6078 36.5133 25.2778 36.18 25.0311 35.76C24.7911 35.3333 24.6711 34.85 24.6711 34.31C24.6711 33.7767 24.7911 33.3 25.0311 32.88C25.2711 32.46 25.5944 32.13 26.0011 31.89C26.4144 31.6433 26.8811 31.52 27.4011 31.52C27.9211 31.52 28.3844 31.64 28.7911 31.88C29.2044 32.12 29.5278 32.45 29.7611 32.87C30.0011 33.29 30.1211 33.77 30.1211 34.31C30.1211 34.8567 29.9978 35.3433 29.7511 35.77C29.5044 36.19 29.1744 36.52 28.7611 36.76C28.3544 37 27.9011 37.12 27.4011 37.12ZM27.4011 36.37C27.7611 36.37 28.0844 36.28 28.3711 36.1C28.6644 35.92 28.8944 35.6733 29.0611 35.36C29.2344 35.0467 29.3211 34.6967 29.3211 34.31C29.3211 33.9233 29.2344 33.5767 29.0611 33.27C28.8944 32.9633 28.6644 32.72 28.3711 32.54C28.0844 32.36 27.7611 32.27 27.4011 32.27C27.0411 32.27 26.7144 32.36 26.4211 32.54C26.1344 32.72 25.9044 32.9633 25.7311 33.27C25.5578 33.5767 25.4711 33.9233 25.4711 34.31C25.4711 34.6967 25.5578 35.0467 25.7311 35.36C25.9044 35.6733 26.1344 35.92 26.4211 36.1C26.7144 36.28 27.0411 36.37 27.4011 36.37ZM33.9538 37.12C33.4472 37.12 32.9872 37 32.5738 36.76C32.1605 36.5133 31.8305 36.18 31.5838 35.76C31.3438 35.3333 31.2238 34.85 31.2238 34.31C31.2238 33.7767 31.3438 33.3 31.5838 32.88C31.8238 32.46 32.1472 32.13 32.5538 31.89C32.9672 31.6433 33.4338 31.52 33.9538 31.52C34.4738 31.52 34.9372 31.64 35.3438 31.88C35.7572 32.12 36.0805 32.45 36.3138 32.87C36.5538 33.29 36.6738 33.77 36.6738 34.31C36.6738 34.8567 36.5505 35.3433 36.3038 35.77C36.0572 36.19 35.7272 36.52 35.3138 36.76C34.9072 37 34.4538 37.12 33.9538 37.12ZM33.9538 36.37C34.3138 36.37 34.6372 36.28 34.9238 36.1C35.2172 35.92 35.4472 35.6733 35.6138 35.36C35.7872 35.0467 35.8738 34.6967 35.8738 34.31C35.8738 33.9233 35.7872 33.5767 35.6138 33.27C35.4472 32.9633 35.2172 32.72 34.9238 32.54C34.6372 32.36 34.3138 32.27 33.9538 32.27C33.5938 32.27 33.2672 32.36 32.9738 32.54C32.6872 32.72 32.4572 32.9633 32.2838 33.27C32.1105 33.5767 32.0238 33.9233 32.0238 34.31C32.0238 34.6967 32.1105 35.0467 32.2838 35.36C32.4572 35.6733 32.6872 35.92 32.9738 36.1C33.2672 36.28 33.5938 36.37 33.9538 36.37ZM37.9966 37V31.64H38.7466V32.68L38.5766 32.64C38.7099 32.2933 38.9266 32.02 39.2266 31.82C39.5332 31.62 39.8866 31.52 40.2866 31.52C40.6666 31.52 41.0066 31.6067 41.3066 31.78C41.6132 31.9533 41.8532 32.1933 42.0266 32.5C42.2066 32.8 42.2966 33.14 42.2966 33.52V37H41.5466V33.81C41.5466 33.4833 41.4866 33.2067 41.3666 32.98C41.2532 32.7533 41.0899 32.58 40.8766 32.46C40.6699 32.3333 40.4299 32.27 40.1566 32.27C39.8832 32.27 39.6399 32.3333 39.4266 32.46C39.2132 32.58 39.0466 32.7567 38.9266 32.99C38.8066 33.2167 38.7466 33.49 38.7466 33.81V37H37.9966Z" fill="#B4B4B4"/>
<path d="M511.487 37L514.077 33.61L514.227 33.52C514.127 33.68 514.01 33.8067 513.877 33.9C513.744 33.9933 513.597 34.06 513.437 34.1C513.277 34.14 513.1 34.16 512.907 34.16C512.474 34.16 512.084 34.06 511.737 33.86C511.39 33.6533 511.114 33.3733 510.907 33.02C510.707 32.66 510.607 32.25 510.607 31.79C510.607 31.3367 510.71 30.9333 510.917 30.58C511.13 30.2267 511.417 29.9467 511.777 29.74C512.144 29.5333 512.554 29.43 513.007 29.43C513.474 29.43 513.887 29.5367 514.247 29.75C514.607 29.9567 514.89 30.2467 515.097 30.62C515.304 30.9867 515.407 31.41 515.407 31.89C515.407 32.1567 515.374 32.42 515.307 32.68C515.247 32.94 515.154 33.1967 515.027 33.45C514.9 33.7033 514.74 33.9567 514.547 34.21L512.447 37H511.487ZM513.007 33.44C513.32 33.44 513.597 33.37 513.837 33.23C514.077 33.0833 514.264 32.8867 514.397 32.64C514.537 32.3867 514.607 32.1033 514.607 31.79C514.607 31.47 514.537 31.1867 514.397 30.94C514.257 30.6867 514.067 30.49 513.827 30.35C513.587 30.2033 513.314 30.13 513.007 30.13C512.7 30.13 512.427 30.2033 512.187 30.35C511.947 30.49 511.757 30.6867 511.617 30.94C511.477 31.1867 511.407 31.47 511.407 31.79C511.407 32.1033 511.474 32.3867 511.607 32.64C511.747 32.8867 511.937 33.0833 512.177 33.23C512.424 33.37 512.7 33.44 513.007 33.44ZM519.951 37V35.24H516.161V34.59L519.951 29.55H520.651V34.59H521.561V35.24H520.651V37H519.951ZM516.771 34.88L516.681 34.59H519.951V30.24L520.201 30.31L516.771 34.88Z" fill="#B4B4B4"/>
<line x1="118" y1="34" x2="482" y2="34" stroke="#343B4B" stroke-width="6" stroke-linecap="round"/>
<line x1="118" y1="34" x2="397" y2="34" stroke="url(#paint1_linear_91_101)" stroke-width="6" stroke-linecap="round"/>
<path d="M0.88 63V55.55H1.58L4.38 59.61H3.99L6.78 55.55H7.48V63H6.68V56.63L6.94 56.73L4.2 60.7H4.16L1.43 56.73L1.68 56.63V63H0.88ZM11.5694 63.12C11.0694 63.12 10.616 63 10.2094 62.76C9.80938 62.5133 9.49271 62.1767 9.25938 61.75C9.02604 61.3233 8.90938 60.84 8.90938 60.3C8.90938 59.76 9.02271 59.2833 9.24938 58.87C9.47604 58.45 9.78271 58.12 10.1694 57.88C10.5627 57.64 11.0027 57.52 11.4894 57.52C11.876 57.52 12.2194 57.5933 12.5194 57.74C12.826 57.88 13.086 58.0733 13.2994 58.32C13.5127 58.56 13.676 58.8333 13.7894 59.14C13.9027 59.44 13.9594 59.75 13.9594 60.07C13.9594 60.1367 13.956 60.2133 13.9494 60.3C13.9427 60.38 13.9327 60.4633 13.9194 60.55H9.38938V59.85H13.4894L13.1294 60.15C13.1894 59.7833 13.146 59.4567 12.9994 59.17C12.8594 58.8767 12.656 58.6467 12.3894 58.48C12.1227 58.3067 11.8227 58.22 11.4894 58.22C11.156 58.22 10.846 58.3067 10.5594 58.48C10.2794 58.6533 10.0594 58.8967 9.89938 59.21C9.73938 59.5167 9.67604 59.8833 9.70938 60.31C9.67604 60.7367 9.74271 61.11 9.90938 61.43C10.0827 61.7433 10.316 61.9867 10.6094 62.16C10.9094 62.3333 11.2294 62.42 11.5694 62.42C11.9627 62.42 12.2927 62.3267 12.5594 62.14C12.826 61.9533 13.0427 61.72 13.2094 61.44L13.8494 61.78C13.7427 62.02 13.5794 62.2433 13.3594 62.45C13.1394 62.65 12.876 62.8133 12.5694 62.94C12.2694 63.06 11.936 63.12 11.5694 63.12ZM17.3317 63.06C16.8517 63.06 16.4817 62.92 16.2217 62.64C15.9617 62.36 15.8317 61.96 15.8317 61.44V58.39H14.8417V57.64H15.0917C15.3184 57.64 15.4984 57.5667 15.6317 57.42C15.7651 57.2667 15.8317 57.0767 15.8317 56.85V56.4H16.5817V57.64H17.7617V58.39H16.5817V61.44C16.5817 61.62 16.6084 61.78 16.6617 61.92C16.7151 62.0533 16.8051 62.16 16.9317 62.24C17.0651 62.32 17.2417 62.36 17.4617 62.36C17.5151 62.36 17.5784 62.3567 17.6517 62.35C17.7251 62.3433 17.7884 62.3367 17.8417 62.33V63C17.7617 63.02 17.6717 63.0333 17.5717 63.04C17.4717 63.0533 17.3917 63.06 17.3317 63.06ZM20.611 63.12C20.271 63.12 19.9677 63.0567 19.701 62.93C19.4343 62.7967 19.2243 62.6167 19.071 62.39C18.9177 62.1633 18.841 61.9033 18.841 61.61C18.841 61.33 18.901 61.0767 19.021 60.85C19.141 60.6167 19.3277 60.42 19.581 60.26C19.8343 60.1 20.1577 59.9867 20.551 59.92L22.651 59.57V60.25L20.731 60.57C20.3443 60.6367 20.0643 60.76 19.891 60.94C19.7243 61.12 19.641 61.3333 19.641 61.58C19.641 61.82 19.7343 62.0233 19.921 62.19C20.1143 62.3567 20.361 62.44 20.661 62.44C21.0277 62.44 21.3477 62.3633 21.621 62.21C21.8943 62.05 22.1077 61.8367 22.261 61.57C22.4143 61.3033 22.491 61.0067 22.491 60.68V59.32C22.491 59 22.3743 58.74 22.141 58.54C21.9077 58.34 21.6043 58.24 21.231 58.24C20.9043 58.24 20.6177 58.3233 20.371 58.49C20.1243 58.65 19.941 58.86 19.821 59.12L19.141 58.75C19.241 58.5233 19.3977 58.3167 19.611 58.13C19.831 57.9433 20.081 57.7967 20.361 57.69C20.641 57.5767 20.931 57.52 21.231 57.52C21.6243 57.52 21.971 57.5967 22.271 57.75C22.5777 57.9033 22.8143 58.1167 22.981 58.39C23.1543 58.6567 23.241 58.9667 23.241 59.32V63H22.491V61.93L22.601 62.04C22.5077 62.24 22.361 62.4233 22.161 62.59C21.9677 62.75 21.7377 62.88 21.471 62.98C21.211 63.0733 20.9243 63.12 20.611 63.12Z" fill="#B4B4B4"/>
<path d="M512.559 63.12C512.172 63.12 511.812 63.0533 511.479 62.92C511.152 62.7867 510.866 62.5967 510.619 62.35C510.372 62.1033 510.186 61.81 510.059 61.47L510.669 61.17C510.822 61.5567 511.072 61.8633 511.419 62.09C511.772 62.31 512.152 62.42 512.559 62.42C512.886 62.42 513.176 62.3433 513.429 62.19C513.689 62.0367 513.892 61.83 514.039 61.57C514.186 61.3033 514.259 61.0067 514.259 60.68C514.259 60.34 514.182 60.04 514.029 59.78C513.882 59.52 513.682 59.3167 513.429 59.17C513.176 59.0167 512.889 58.94 512.569 58.94C512.242 58.94 511.939 59.0167 511.659 59.17C511.386 59.3167 511.186 59.4967 511.059 59.71L510.429 59.59L510.989 55.55H514.759V56.25H511.279L511.589 55.98L511.139 59.16L510.829 59.02C511.062 58.7333 511.336 58.53 511.649 58.41C511.962 58.2833 512.282 58.22 512.609 58.22C513.089 58.22 513.512 58.3333 513.879 58.56C514.246 58.78 514.532 59.0767 514.739 59.45C514.952 59.8167 515.059 60.2267 515.059 60.68C515.059 61.14 514.949 61.5567 514.729 61.93C514.516 62.2967 514.219 62.5867 513.839 62.8C513.466 63.0133 513.039 63.12 512.559 63.12ZM519.951 63V61.24H516.161V60.59L519.951 55.55H520.651V60.59H521.561V61.24H520.651V63H519.951ZM516.771 60.88L516.681 60.59H519.951V56.24L520.201 56.31L516.771 60.88Z" fill="#B4B4B4"/>
<line x1="118" y1="60" x2="482" y2="60" stroke="#343B4B" stroke-width="6" stroke-linecap="round"/>
<line x1="118" y1="60" x2="324" y2="60" stroke="url(#paint2_linear_91_101)" stroke-width="6" stroke-linecap="round"/>
<path d="M2.84 89L0.11 81.55H0.94L3.34 88.29H3.18L5.57 81.55H6.41L3.68 89H2.84ZM7.29344 89V83.64H8.04344V89H7.29344ZM7.29344 82.65V81.55H8.04344V82.65H7.29344ZM11.9986 89.12C11.4986 89.12 11.0486 89 10.6486 88.76C10.2486 88.5133 9.93193 88.18 9.69859 87.76C9.47193 87.3333 9.35859 86.8533 9.35859 86.32C9.35859 85.78 9.47193 85.3 9.69859 84.88C9.93193 84.46 10.2453 84.13 10.6386 83.89C11.0386 83.6433 11.4919 83.52 11.9986 83.52C12.4586 83.52 12.8686 83.62 13.2286 83.82C13.5886 84.02 13.8719 84.29 14.0786 84.63L13.9586 84.84V81.43H14.7086V89H13.9586V87.8L14.0786 87.91C13.8919 88.2967 13.6119 88.5967 13.2386 88.81C12.8719 89.0167 12.4586 89.12 11.9986 89.12ZM12.0386 88.37C12.3986 88.37 12.7219 88.28 13.0086 88.1C13.3019 87.92 13.5319 87.6767 13.6986 87.37C13.8719 87.0567 13.9586 86.7067 13.9586 86.32C13.9586 85.9333 13.8719 85.5867 13.6986 85.28C13.5319 84.9667 13.3019 84.72 13.0086 84.54C12.7219 84.36 12.3986 84.27 12.0386 84.27C11.6853 84.27 11.3653 84.36 11.0786 84.54C10.7919 84.72 10.5653 84.9633 10.3986 85.27C10.2386 85.5767 10.1586 85.9267 10.1586 86.32C10.1586 86.7067 10.2386 87.0567 10.3986 87.37C10.5653 87.6767 10.7886 87.92 11.0686 88.1C11.3553 88.28 11.6786 88.37 12.0386 88.37ZM17.7985 89.12C17.4585 89.12 17.1552 89.0567 16.8885 88.93C16.6218 88.7967 16.4118 88.6167 16.2585 88.39C16.1052 88.1633 16.0285 87.9033 16.0285 87.61C16.0285 87.33 16.0885 87.0767 16.2085 86.85C16.3285 86.6167 16.5152 86.42 16.7685 86.26C17.0218 86.1 17.3452 85.9867 17.7385 85.92L19.8385 85.57V86.25L17.9185 86.57C17.5318 86.6367 17.2518 86.76 17.0785 86.94C16.9118 87.12 16.8285 87.3333 16.8285 87.58C16.8285 87.82 16.9218 88.0233 17.1085 88.19C17.3018 88.3567 17.5485 88.44 17.8485 88.44C18.2152 88.44 18.5352 88.3633 18.8085 88.21C19.0818 88.05 19.2952 87.8367 19.4485 87.57C19.6018 87.3033 19.6785 87.0067 19.6785 86.68V85.32C19.6785 85 19.5618 84.74 19.3285 84.54C19.0952 84.34 18.7918 84.24 18.4185 84.24C18.0918 84.24 17.8052 84.3233 17.5585 84.49C17.3118 84.65 17.1285 84.86 17.0085 85.12L16.3285 84.75C16.4285 84.5233 16.5852 84.3167 16.7985 84.13C17.0185 83.9433 17.2685 83.7967 17.5485 83.69C17.8285 83.5767 18.1185 83.52 18.4185 83.52C18.8118 83.52 19.1585 83.5967 19.4585 83.75C19.7652 83.9033 20.0018 84.1167 20.1685 84.39C20.3418 84.6567 20.4285 84.9667 20.4285 85.32V89H19.6785V87.93L19.7885 88.04C19.6952 88.24 19.5485 88.4233 19.3485 88.59C19.1552 88.75 18.9252 88.88 18.6585 88.98C18.3985 89.0733 18.1118 89.12 17.7985 89.12ZM21.9712 89V83.64H22.7212V84.52L22.6212 84.39C22.7478 84.1367 22.9378 83.9367 23.1912 83.79C23.4512 83.6433 23.7645 83.57 24.1312 83.57H24.4712V84.32H24.0012C23.6145 84.32 23.3045 84.44 23.0712 84.68C22.8378 84.92 22.7212 85.26 22.7212 85.7V89H21.9712Z" fill="#B4B4B4"/>
<path d="M516.24 89V87.24H512.45V86.59L516.24 81.55H516.94V86.59H517.85V87.24H516.94V89H516.24ZM513.06 86.88L512.97 86.59H516.24V82.24L516.49 82.31L513.06 86.88ZM520.099 89V82.25H518.699V81.55H520.899V89H520.099Z" fill="#B4B4B4"/>
<line x1="118" y1="86" x2="482" y2="86" stroke="#343B4B" stroke-width="6" stroke-linecap="round"/>
<line x1="118" y1="86" x2="258" y2="86" stroke="url(#paint3_linear_91_101)" stroke-width="6" stroke-linecap="round"/>
<path d="M4.28 115.12C3.75333 115.12 3.27 115.027 2.83 114.84C2.39 114.647 2.00667 114.38 1.68 114.04C1.36 113.693 1.11 113.287 0.93 112.82C0.75 112.353 0.66 111.84 0.66 111.28C0.66 110.72 0.75 110.207 0.93 109.74C1.11 109.273 1.36 108.867 1.68 108.52C2.00667 108.173 2.39 107.907 2.83 107.72C3.27 107.527 3.75333 107.43 4.28 107.43C4.78667 107.43 5.24 107.52 5.64 107.7C6.04667 107.88 6.38667 108.113 6.66 108.4C6.94 108.68 7.14 108.977 7.26 109.29L6.54 109.64C6.35333 109.187 6.06667 108.83 5.68 108.57C5.29333 108.31 4.82667 108.18 4.28 108.18C3.73333 108.18 3.24667 108.31 2.82 108.57C2.39333 108.83 2.06 109.193 1.82 109.66C1.58 110.12 1.46 110.66 1.46 111.28C1.46 111.893 1.58 112.433 1.82 112.9C2.06 113.367 2.39333 113.73 2.82 113.99C3.24667 114.243 3.73333 114.37 4.28 114.37C4.76667 114.37 5.20333 114.263 5.59 114.05C5.98333 113.837 6.29333 113.547 6.52 113.18C6.74667 112.807 6.86 112.38 6.86 111.9V111.49L7.22 111.85H4.28V111.15H7.66V111.77C7.66 112.257 7.57333 112.707 7.4 113.12C7.22667 113.527 6.98667 113.88 6.68 114.18C6.37333 114.48 6.01333 114.713 5.6 114.88C5.19333 115.04 4.75333 115.12 4.28 115.12ZM11.4229 115.12C10.9229 115.12 10.4696 115 10.0629 114.76C9.66289 114.513 9.34622 114.177 9.11289 113.75C8.87956 113.323 8.76289 112.84 8.76289 112.3C8.76289 111.76 8.87622 111.283 9.10289 110.87C9.32956 110.45 9.63622 110.12 10.0229 109.88C10.4162 109.64 10.8562 109.52 11.3429 109.52C11.7296 109.52 12.0729 109.593 12.3729 109.74C12.6796 109.88 12.9396 110.073 13.1529 110.32C13.3662 110.56 13.5296 110.833 13.6429 111.14C13.7562 111.44 13.8129 111.75 13.8129 112.07C13.8129 112.137 13.8096 112.213 13.8029 112.3C13.7962 112.38 13.7862 112.463 13.7729 112.55H9.24289V111.85H13.3429L12.9829 112.15C13.0429 111.783 12.9996 111.457 12.8529 111.17C12.7129 110.877 12.5096 110.647 12.2429 110.48C11.9762 110.307 11.6762 110.22 11.3429 110.22C11.0096 110.22 10.6996 110.307 10.4129 110.48C10.1329 110.653 9.91289 110.897 9.75289 111.21C9.59289 111.517 9.52956 111.883 9.56289 112.31C9.52956 112.737 9.59622 113.11 9.76289 113.43C9.93622 113.743 10.1696 113.987 10.4629 114.16C10.7629 114.333 11.0829 114.42 11.4229 114.42C11.8162 114.42 12.1462 114.327 12.4129 114.14C12.6796 113.953 12.8962 113.72 13.0629 113.44L13.7029 113.78C13.5962 114.02 13.4329 114.243 13.2129 114.45C12.9929 114.65 12.7296 114.813 12.4229 114.94C12.1229 115.06 11.7896 115.12 11.4229 115.12ZM15.1352 115V109.64H15.8852V110.68L15.7152 110.64C15.8486 110.293 16.0652 110.02 16.3652 109.82C16.6719 109.62 17.0252 109.52 17.4252 109.52C17.8052 109.52 18.1452 109.607 18.4452 109.78C18.7519 109.953 18.9919 110.193 19.1652 110.5C19.3452 110.8 19.4352 111.14 19.4352 111.52V115H18.6852V111.81C18.6852 111.483 18.6252 111.207 18.5052 110.98C18.3919 110.753 18.2286 110.58 18.0152 110.46C17.8086 110.333 17.5686 110.27 17.2952 110.27C17.0219 110.27 16.7786 110.333 16.5652 110.46C16.3519 110.58 16.1852 110.757 16.0652 110.99C15.9452 111.217 15.8852 111.49 15.8852 111.81V115H15.1352ZM23.3077 115.12C22.8077 115.12 22.3543 115 21.9477 114.76C21.5477 114.513 21.231 114.177 20.9977 113.75C20.7643 113.323 20.6477 112.84 20.6477 112.3C20.6477 111.76 20.761 111.283 20.9877 110.87C21.2143 110.45 21.521 110.12 21.9077 109.88C22.301 109.64 22.741 109.52 23.2277 109.52C23.6143 109.52 23.9577 109.593 24.2577 109.74C24.5643 109.88 24.8243 110.073 25.0377 110.32C25.251 110.56 25.4143 110.833 25.5277 111.14C25.641 111.44 25.6977 111.75 25.6977 112.07C25.6977 112.137 25.6943 112.213 25.6877 112.3C25.681 112.38 25.671 112.463 25.6577 112.55H21.1277V111.85H25.2277L24.8677 112.15C24.9277 111.783 24.8843 111.457 24.7377 111.17C24.5977 110.877 24.3943 110.647 24.1277 110.48C23.861 110.307 23.561 110.22 23.2277 110.22C22.8943 110.22 22.5843 110.307 22.2977 110.48C22.0177 110.653 21.7977 110.897 21.6377 111.21C21.4777 111.517 21.4143 111.883 21.4477 112.31C21.4143 112.737 21.481 113.11 21.6477 113.43C21.821 113.743 22.0543 113.987 22.3477 114.16C22.6477 114.333 22.9677 114.42 23.3077 114.42C23.701 114.42 24.031 114.327 24.2977 114.14C24.5643 113.953 24.781 113.72 24.9477 113.44L25.5877 113.78C25.481 114.02 25.3177 114.243 25.0977 114.45C24.8777 114.65 24.6143 114.813 24.3077 114.94C24.0077 115.06 23.6743 115.12 23.3077 115.12ZM27.02 115V109.64H27.77V110.52L27.67 110.39C27.7967 110.137 27.9867 109.937 28.24 109.79C28.5 109.643 28.8133 109.57 29.18 109.57H29.52V110.32H29.05C28.6633 110.32 28.3533 110.44 28.12 110.68C27.8867 110.92 27.77 111.26 27.77 111.7V115H27.02ZM30.3989 115V109.64H31.1489V115H30.3989ZM30.3989 108.65V107.55H31.1489V108.65H30.3989ZM35.1341 115.12C34.6074 115.12 34.1441 114.997 33.7441 114.75C33.3441 114.503 33.0307 114.17 32.8041 113.75C32.5774 113.323 32.4641 112.843 32.4641 112.31C32.4641 111.777 32.5774 111.3 32.8041 110.88C33.0307 110.46 33.3441 110.13 33.7441 109.89C34.1441 109.643 34.6074 109.52 35.1341 109.52C35.4674 109.52 35.7807 109.58 36.0741 109.7C36.3674 109.82 36.6274 109.983 36.8541 110.19C37.0807 110.39 37.2507 110.623 37.3641 110.89L36.6841 111.24C36.5507 110.953 36.3474 110.72 36.0741 110.54C35.8007 110.36 35.4874 110.27 35.1341 110.27C34.7807 110.27 34.4607 110.36 34.1741 110.54C33.8941 110.713 33.6707 110.957 33.5041 111.27C33.3441 111.577 33.2641 111.927 33.2641 112.32C33.2641 112.707 33.3441 113.057 33.5041 113.37C33.6707 113.677 33.8941 113.92 34.1741 114.1C34.4607 114.28 34.7807 114.37 35.1341 114.37C35.4874 114.37 35.7974 114.28 36.0641 114.1C36.3374 113.92 36.5441 113.68 36.6841 113.38L37.3641 113.75C37.2507 114.01 37.0807 114.243 36.8541 114.45C36.6274 114.657 36.3674 114.82 36.0741 114.94C35.7807 115.06 35.4674 115.12 35.1341 115.12Z" fill="#B4B4B4"/>
<path d="M512.567 115.12C512.18 115.12 511.824 115.053 511.497 114.92C511.17 114.787 510.884 114.597 510.637 114.35C510.397 114.103 510.214 113.81 510.087 113.47L510.727 113.17C510.88 113.557 511.12 113.863 511.447 114.09C511.774 114.31 512.147 114.42 512.567 114.42C512.9 114.42 513.197 114.357 513.457 114.23C513.717 114.097 513.92 113.907 514.067 113.66C514.214 113.413 514.287 113.113 514.287 112.76C514.287 112.407 514.21 112.107 514.057 111.86C513.91 111.613 513.707 111.427 513.447 111.3C513.187 111.173 512.89 111.11 512.557 111.11C512.47 111.11 512.374 111.113 512.267 111.12C512.167 111.127 512.084 111.137 512.017 111.15L511.857 110.8L513.867 108.25H510.437V107.55H514.767V108.25L512.887 110.62L512.787 110.49C513.234 110.503 513.63 110.61 513.977 110.81C514.324 111.003 514.594 111.267 514.787 111.6C514.987 111.933 515.087 112.32 515.087 112.76C515.087 113.2 514.98 113.6 514.767 113.96C514.554 114.313 514.257 114.597 513.877 114.81C513.497 115.017 513.06 115.12 512.567 115.12ZM518.861 115.12C518.381 115.12 517.951 115.023 517.571 114.83C517.197 114.63 516.901 114.36 516.681 114.02C516.467 113.673 516.361 113.283 516.361 112.85C516.361 112.377 516.494 111.953 516.761 111.58C517.034 111.207 517.401 110.947 517.861 110.8V111.01C517.507 110.857 517.234 110.63 517.041 110.33C516.847 110.023 516.751 109.697 516.751 109.35C516.751 108.983 516.844 108.657 517.031 108.37C517.217 108.083 517.467 107.857 517.781 107.69C518.101 107.517 518.461 107.43 518.861 107.43C519.267 107.43 519.627 107.513 519.941 107.68C520.254 107.84 520.501 108.067 520.681 108.36C520.867 108.647 520.961 108.977 520.961 109.35C520.961 109.723 520.861 110.057 520.661 110.35C520.461 110.637 520.197 110.857 519.871 111.01L519.861 110.8C520.321 110.947 520.684 111.207 520.951 111.58C521.224 111.953 521.361 112.377 521.361 112.85C521.361 113.283 521.251 113.673 521.031 114.02C520.817 114.36 520.521 114.63 520.141 114.83C519.767 115.023 519.341 115.12 518.861 115.12ZM518.861 114.42C519.201 114.42 519.497 114.357 519.751 114.23C520.004 114.097 520.201 113.913 520.341 113.68C520.487 113.44 520.561 113.163 520.561 112.85C520.561 112.537 520.487 112.263 520.341 112.03C520.201 111.79 520.004 111.607 519.751 111.48C519.497 111.347 519.201 111.28 518.861 111.28C518.521 111.28 518.221 111.347 517.961 111.48C517.707 111.607 517.511 111.79 517.371 112.03C517.231 112.263 517.161 112.537 517.161 112.85C517.161 113.163 517.231 113.44 517.371 113.68C517.511 113.913 517.707 114.097 517.961 114.23C518.221 114.357 518.521 114.42 518.861 114.42ZM518.861 110.58C519.107 110.58 519.327 110.53 519.521 110.43C519.714 110.323 519.867 110.18 519.981 110C520.101 109.813 520.161 109.597 520.161 109.35C520.161 109.103 520.101 108.89 519.981 108.71C519.867 108.53 519.714 108.39 519.521 108.29C519.327 108.183 519.107 108.13 518.861 108.13C518.614 108.13 518.391 108.183 518.191 108.29C517.997 108.39 517.841 108.53 517.721 108.71C517.607 108.89 517.551 109.103 517.551 109.35C517.551 109.597 517.607 109.813 517.721 110C517.841 110.18 517.997 110.323 518.191 110.43C518.391 110.53 518.614 110.58 518.861 110.58Z" fill="#B4B4B4"/>
<line x1="118" y1="112" x2="482" y2="112" stroke="#343B4B" stroke-width="6" stroke-linecap="round"/>
<line x1="118" y1="112" x2="239" y2="112" stroke="url(#paint4_linear_91_101)" stroke-width="6" stroke-linecap="round"/>
<path d="M0.88 141V133.55H1.68V140.25H4.98V141H0.88ZM7.9825 141.12C7.60917 141.12 7.26917 141.033 6.9625 140.86C6.65583 140.68 6.4125 140.433 6.2325 140.12C6.05917 139.8 5.9725 139.433 5.9725 139.02V135.64H6.7225V138.93C6.7225 139.217 6.77917 139.47 6.8925 139.69C7.0125 139.903 7.17583 140.07 7.3825 140.19C7.59583 140.31 7.83917 140.37 8.1125 140.37C8.38583 140.37 8.62917 140.31 8.8425 140.19C9.05583 140.063 9.2225 139.887 9.3425 139.66C9.4625 139.427 9.5225 139.15 9.5225 138.83V135.64H10.2725V141H9.5225V139.96L9.6925 140C9.56583 140.347 9.34917 140.62 9.0425 140.82C8.73583 141.02 8.3825 141.12 7.9825 141.12ZM11.8149 141V135.64H12.5649V136.66L12.4449 136.51C12.5916 136.197 12.8083 135.953 13.0949 135.78C13.3883 135.607 13.7083 135.52 14.0549 135.52C14.4683 135.52 14.8416 135.637 15.1749 135.87C15.5083 136.103 15.7449 136.407 15.8849 136.78L15.6749 136.79C15.8083 136.377 16.0383 136.063 16.3649 135.85C16.6983 135.63 17.0649 135.52 17.4649 135.52C17.8249 135.52 18.1549 135.607 18.4549 135.78C18.7616 135.953 19.0049 136.193 19.1849 136.5C19.3716 136.8 19.4649 137.14 19.4649 137.52V141H18.7149V137.81C18.7149 137.483 18.6549 137.207 18.5349 136.98C18.4216 136.753 18.2649 136.58 18.0649 136.46C17.8649 136.333 17.6349 136.27 17.3749 136.27C17.1216 136.27 16.8916 136.333 16.6849 136.46C16.4783 136.58 16.3149 136.757 16.1949 136.99C16.0749 137.217 16.0149 137.49 16.0149 137.81V141H15.2649V137.81C15.2649 137.483 15.2049 137.207 15.0849 136.98C14.9716 136.753 14.8149 136.58 14.6149 136.46C14.4149 136.333 14.1849 136.27 13.9249 136.27C13.6649 136.27 13.4316 136.333 13.2249 136.46C13.0249 136.58 12.8649 136.757 12.7449 136.99C12.6249 137.217 12.5649 137.49 12.5649 137.81V141H11.8149ZM20.897 141V135.64H21.647V136.66L21.527 136.51C21.6736 136.197 21.8903 135.953 22.177 135.78C22.4703 135.607 22.7903 135.52 23.137 135.52C23.5503 135.52 23.9236 135.637 24.257 135.87C24.5903 136.103 24.827 136.407 24.967 136.78L24.757 136.79C24.8903 136.377 25.1203 136.063 25.447 135.85C25.7803 135.63 26.147 135.52 26.547 135.52C26.907 135.52 27.237 135.607 27.537 135.78C27.8436 135.953 28.087 136.193 28.267 136.5C28.4536 136.8 28.547 137.14 28.547 137.52V141H27.797V137.81C27.797 137.483 27.737 137.207 27.617 136.98C27.5036 136.753 27.347 136.58 27.147 136.46C26.947 136.333 26.717 136.27 26.457 136.27C26.2036 136.27 25.9736 136.333 25.767 136.46C25.5603 136.58 25.397 136.757 25.277 136.99C25.157 137.217 25.097 137.49 25.097 137.81V141H24.347V137.81C24.347 137.483 24.287 137.207 24.167 136.98C24.0536 136.753 23.897 136.58 23.697 136.46C23.497 136.333 23.267 136.27 23.007 136.27C22.747 136.27 22.5136 136.333 22.307 136.46C22.107 136.58 21.947 136.757 21.827 136.99C21.707 137.217 21.647 137.49 21.647 137.81V141H20.897ZM31.529 141.12C31.189 141.12 30.8857 141.057 30.619 140.93C30.3523 140.797 30.1423 140.617 29.989 140.39C29.8357 140.163 29.759 139.903 29.759 139.61C29.759 139.33 29.819 139.077 29.939 138.85C30.059 138.617 30.2457 138.42 30.499 138.26C30.7523 138.1 31.0757 137.987 31.469 137.92L33.569 137.57V138.25L31.649 138.57C31.2623 138.637 30.9823 138.76 30.809 138.94C30.6423 139.12 30.559 139.333 30.559 139.58C30.559 139.82 30.6523 140.023 30.839 140.19C31.0323 140.357 31.279 140.44 31.579 140.44C31.9457 140.44 32.2657 140.363 32.539 140.21C32.8123 140.05 33.0257 139.837 33.179 139.57C33.3323 139.303 33.409 139.007 33.409 138.68V137.32C33.409 137 33.2923 136.74 33.059 136.54C32.8257 136.34 32.5223 136.24 32.149 136.24C31.8223 136.24 31.5357 136.323 31.289 136.49C31.0423 136.65 30.859 136.86 30.739 137.12L30.059 136.75C30.159 136.523 30.3157 136.317 30.529 136.13C30.749 135.943 30.999 135.797 31.279 135.69C31.559 135.577 31.849 135.52 32.149 135.52C32.5423 135.52 32.889 135.597 33.189 135.75C33.4957 135.903 33.7323 136.117 33.899 136.39C34.0723 136.657 34.159 136.967 34.159 137.32V141H33.409V139.93L33.519 140.04C33.4257 140.24 33.279 140.423 33.079 140.59C32.8857 140.75 32.6557 140.88 32.389 140.98C32.129 141.073 31.8423 141.12 31.529 141.12Z" fill="#B4B4B4"/>
<path d="M512.879 141.12C512.493 141.12 512.136 141.053 511.809 140.92C511.483 140.787 511.196 140.597 510.949 140.35C510.709 140.103 510.526 139.81 510.399 139.47L511.039 139.17C511.193 139.557 511.433 139.863 511.759 140.09C512.086 140.31 512.459 140.42 512.879 140.42C513.213 140.42 513.509 140.357 513.769 140.23C514.029 140.097 514.233 139.907 514.379 139.66C514.526 139.413 514.599 139.113 514.599 138.76C514.599 138.407 514.523 138.107 514.369 137.86C514.223 137.613 514.019 137.427 513.759 137.3C513.499 137.173 513.203 137.11 512.869 137.11C512.783 137.11 512.686 137.113 512.579 137.12C512.479 137.127 512.396 137.137 512.329 137.15L512.169 136.8L514.179 134.25H510.749V133.55H515.079V134.25L513.199 136.62L513.099 136.49C513.546 136.503 513.943 136.61 514.289 136.81C514.636 137.003 514.906 137.267 515.099 137.6C515.299 137.933 515.399 138.32 515.399 138.76C515.399 139.2 515.293 139.6 515.079 139.96C514.866 140.313 514.569 140.597 514.189 140.81C513.809 141.017 513.373 141.12 512.879 141.12ZM519.033 141.12C518.567 141.12 518.153 141.017 517.793 140.81C517.433 140.597 517.15 140.307 516.943 139.94C516.737 139.567 516.633 139.14 516.633 138.66C516.633 138.393 516.663 138.13 516.723 137.87C516.79 137.61 516.887 137.353 517.013 137.1C517.147 136.847 517.307 136.593 517.493 136.34L519.593 133.55H520.553L517.963 136.94L517.813 137.03C517.913 136.863 518.03 136.737 518.163 136.65C518.297 136.557 518.443 136.49 518.603 136.45C518.77 136.41 518.947 136.39 519.133 136.39C519.567 136.39 519.957 136.493 520.303 136.7C520.65 136.9 520.923 137.177 521.123 137.53C521.33 137.883 521.433 138.293 521.433 138.76C521.433 139.207 521.327 139.61 521.113 139.97C520.907 140.323 520.623 140.603 520.263 140.81C519.903 141.017 519.493 141.12 519.033 141.12ZM519.033 140.42C519.34 140.42 519.613 140.35 519.853 140.21C520.093 140.063 520.283 139.863 520.423 139.61C520.563 139.357 520.633 139.073 520.633 138.76C520.633 138.44 520.563 138.157 520.423 137.91C520.29 137.663 520.103 137.47 519.863 137.33C519.623 137.183 519.347 137.11 519.033 137.11C518.727 137.11 518.45 137.183 518.203 137.33C517.963 137.47 517.773 137.663 517.633 137.91C517.5 138.157 517.433 138.44 517.433 138.76C517.433 139.073 517.503 139.357 517.643 139.61C517.783 139.863 517.973 140.063 518.213 140.21C518.453 140.35 518.727 140.42 519.033 140.42Z" fill="#B4B4B4"/>
<line x1="118" y1="138" x2="482" y2="138" stroke="#343B4B" stroke-width="6" stroke-linecap="round"/>
<line x1="118" y1="138" x2="226" y2="138" stroke="url(#paint5_linear_91_101)" stroke-width="6" stroke-linecap="round"/>
<path d="M3.39 167.12C2.91667 167.12 2.48667 167.03 2.1 166.85C1.71333 166.67 1.38667 166.43 1.12 166.13C0.853333 165.823 0.663333 165.487 0.55 165.12L1.27 164.85C1.44333 165.357 1.71333 165.743 2.08 166.01C2.44667 166.27 2.88333 166.4 3.39 166.4C3.71 166.4 3.99 166.35 4.23 166.25C4.47667 166.143 4.66667 165.997 4.8 165.81C4.93333 165.623 5 165.407 5 165.16C5 164.793 4.9 164.51 4.7 164.31C4.5 164.11 4.21333 163.957 3.84 163.85L2.5 163.45C1.97333 163.297 1.56667 163.04 1.28 162.68C1 162.32 0.86 161.91 0.86 161.45C0.86 161.057 0.956667 160.71 1.15 160.41C1.34333 160.103 1.60667 159.863 1.94 159.69C2.28 159.517 2.66333 159.43 3.09 159.43C3.53667 159.43 3.93667 159.513 4.29 159.68C4.65 159.84 4.95333 160.053 5.2 160.32C5.44667 160.587 5.62333 160.883 5.73 161.21L5.03 161.49C4.87 161.05 4.62 160.717 4.28 160.49C3.94667 160.263 3.55333 160.15 3.1 160.15C2.81333 160.15 2.56 160.2 2.34 160.3C2.12667 160.4 1.96 160.543 1.84 160.73C1.72 160.917 1.66 161.137 1.66 161.39C1.66 161.697 1.75667 161.973 1.95 162.22C2.14333 162.46 2.44 162.64 2.84 162.76L4.02 163.11C4.60667 163.283 5.05 163.533 5.35 163.86C5.65 164.187 5.8 164.597 5.8 165.09C5.8 165.49 5.69667 165.843 5.49 166.15C5.29 166.45 5.00667 166.687 4.64 166.86C4.28 167.033 3.86333 167.12 3.39 167.12ZM9.28484 167.06C8.80484 167.06 8.43484 166.92 8.17484 166.64C7.91484 166.36 7.78484 165.96 7.78484 165.44V162.39H6.79484V161.64H7.04484C7.27151 161.64 7.45151 161.567 7.58484 161.42C7.71818 161.267 7.78484 161.077 7.78484 160.85V160.4H8.53484V161.64H9.71484V162.39H8.53484V165.44C8.53484 165.62 8.56151 165.78 8.61484 165.92C8.66818 166.053 8.75818 166.16 8.88484 166.24C9.01818 166.32 9.19484 166.36 9.41484 166.36C9.46818 166.36 9.53151 166.357 9.60484 166.35C9.67818 166.343 9.74151 166.337 9.79484 166.33V167C9.71484 167.02 9.62484 167.033 9.52484 167.04C9.42484 167.053 9.34484 167.06 9.28484 167.06ZM13.3565 167.12C12.8565 167.12 12.4032 167 11.9965 166.76C11.5965 166.513 11.2798 166.177 11.0465 165.75C10.8132 165.323 10.6965 164.84 10.6965 164.3C10.6965 163.76 10.8098 163.283 11.0365 162.87C11.2632 162.45 11.5698 162.12 11.9565 161.88C12.3498 161.64 12.7898 161.52 13.2765 161.52C13.6632 161.52 14.0065 161.593 14.3065 161.74C14.6132 161.88 14.8732 162.073 15.0865 162.32C15.2998 162.56 15.4632 162.833 15.5765 163.14C15.6898 163.44 15.7465 163.75 15.7465 164.07C15.7465 164.137 15.7432 164.213 15.7365 164.3C15.7298 164.38 15.7198 164.463 15.7065 164.55H11.1765V163.85H15.2765L14.9165 164.15C14.9765 163.783 14.9332 163.457 14.7865 163.17C14.6465 162.877 14.4432 162.647 14.1765 162.48C13.9098 162.307 13.6098 162.22 13.2765 162.22C12.9432 162.22 12.6332 162.307 12.3465 162.48C12.0665 162.653 11.8465 162.897 11.6865 163.21C11.5265 163.517 11.4632 163.883 11.4965 164.31C11.4632 164.737 11.5298 165.11 11.6965 165.43C11.8698 165.743 12.1032 165.987 12.3965 166.16C12.6965 166.333 13.0165 166.42 13.3565 166.42C13.7498 166.42 14.0798 166.327 14.3465 166.14C14.6132 165.953 14.8298 165.72 14.9965 165.44L15.6365 165.78C15.5298 166.02 15.3665 166.243 15.1465 166.45C14.9265 166.65 14.6632 166.813 14.3565 166.94C14.0565 167.06 13.7232 167.12 13.3565 167.12ZM18.5212 167.12C18.1812 167.12 17.8778 167.057 17.6112 166.93C17.3445 166.797 17.1345 166.617 16.9812 166.39C16.8278 166.163 16.7512 165.903 16.7512 165.61C16.7512 165.33 16.8112 165.077 16.9312 164.85C17.0512 164.617 17.2378 164.42 17.4912 164.26C17.7445 164.1 18.0678 163.987 18.4612 163.92L20.5612 163.57V164.25L18.6412 164.57C18.2545 164.637 17.9745 164.76 17.8012 164.94C17.6345 165.12 17.5512 165.333 17.5512 165.58C17.5512 165.82 17.6445 166.023 17.8312 166.19C18.0245 166.357 18.2712 166.44 18.5712 166.44C18.9378 166.44 19.2578 166.363 19.5312 166.21C19.8045 166.05 20.0178 165.837 20.1712 165.57C20.3245 165.303 20.4012 165.007 20.4012 164.68V163.32C20.4012 163 20.2845 162.74 20.0512 162.54C19.8178 162.34 19.5145 162.24 19.1412 162.24C18.8145 162.24 18.5278 162.323 18.2812 162.49C18.0345 162.65 17.8512 162.86 17.7312 163.12L17.0512 162.75C17.1512 162.523 17.3078 162.317 17.5212 162.13C17.7412 161.943 17.9912 161.797 18.2712 161.69C18.5512 161.577 18.8412 161.52 19.1412 161.52C19.5345 161.52 19.8812 161.597 20.1812 161.75C20.4878 161.903 20.7245 162.117 20.8912 162.39C21.0645 162.657 21.1512 162.967 21.1512 163.32V167H20.4012V165.93L20.5112 166.04C20.4178 166.24 20.2712 166.423 20.0712 166.59C19.8778 166.75 19.6478 166.88 19.3812 166.98C19.1212 167.073 18.8345 167.12 18.5212 167.12ZM22.6938 167V159.43H23.4438V167H22.6938ZM27.429 167.12C26.9023 167.12 26.439 166.997 26.039 166.75C25.639 166.503 25.3257 166.17 25.099 165.75C24.8723 165.323 24.759 164.843 24.759 164.31C24.759 163.777 24.8723 163.3 25.099 162.88C25.3257 162.46 25.639 162.13 26.039 161.89C26.439 161.643 26.9023 161.52 27.429 161.52C27.7623 161.52 28.0757 161.58 28.369 161.7C28.6623 161.82 28.9223 161.983 29.149 162.19C29.3757 162.39 29.5457 162.623 29.659 162.89L28.979 163.24C28.8457 162.953 28.6423 162.72 28.369 162.54C28.0957 162.36 27.7823 162.27 27.429 162.27C27.0757 162.27 26.7557 162.36 26.469 162.54C26.189 162.713 25.9657 162.957 25.799 163.27C25.639 163.577 25.559 163.927 25.559 164.32C25.559 164.707 25.639 165.057 25.799 165.37C25.9657 165.677 26.189 165.92 26.469 166.1C26.7557 166.28 27.0757 166.37 27.429 166.37C27.7823 166.37 28.0923 166.28 28.359 166.1C28.6323 165.92 28.839 165.68 28.979 165.38L29.659 165.75C29.5457 166.01 29.3757 166.243 29.149 166.45C28.9223 166.657 28.6623 166.82 28.369 166.94C28.0757 167.06 27.7623 167.12 27.429 167.12Z" fill="#B4B4B4"/>
<path d="M510.383 167V166.5L512.463 164.21C512.869 163.763 513.199 163.393 513.453 163.1C513.713 162.807 513.906 162.54 514.033 162.3C514.159 162.06 514.223 161.8 514.223 161.52C514.223 161.073 514.093 160.73 513.833 160.49C513.573 160.25 513.226 160.13 512.793 160.13C512.346 160.13 511.969 160.257 511.663 160.51C511.363 160.763 511.159 161.117 511.053 161.57L510.323 161.41C510.409 161.003 510.566 160.653 510.793 160.36C511.019 160.067 511.303 159.84 511.643 159.68C511.983 159.513 512.363 159.43 512.783 159.43C513.229 159.43 513.619 159.52 513.953 159.7C514.286 159.88 514.546 160.127 514.733 160.44C514.926 160.753 515.023 161.113 515.023 161.52C515.023 161.8 514.963 162.07 514.843 162.33C514.729 162.59 514.556 162.87 514.323 163.17C514.089 163.47 513.789 163.82 513.423 164.22L511.533 166.3H515.223V167H510.383ZM519.951 167V165.24H516.161V164.59L519.951 159.55H520.651V164.59H521.561V165.24H520.651V167H519.951ZM516.771 164.88L516.681 164.59H519.951V160.24L520.201 160.31L516.771 164.88Z" fill="#B4B4B4"/>
<line x1="118" y1="164" x2="482" y2="164" stroke="#343B4B" stroke-width="6" stroke-linecap="round"/>
<line x1="118" y1="164" x2="212" y2="164" stroke="url(#paint6_linear_91_101)" stroke-width="6" stroke-linecap="round"/>
<path d="M0.88 193V185.55H3.44C3.92667 185.55 4.35333 185.647 4.72 185.84C5.08667 186.027 5.37 186.293 5.57 186.64C5.77667 186.98 5.88 187.377 5.88 187.83C5.88 188.357 5.74 188.807 5.46 189.18C5.18667 189.553 4.81333 189.817 4.34 189.97L6.08 193H5.14L3.32 189.79L3.86 190.1H1.68V193H0.88ZM1.68 189.35H3.48C3.8 189.35 4.08 189.29 4.32 189.17C4.56 189.043 4.74667 188.867 4.88 188.64C5.01333 188.407 5.08 188.133 5.08 187.82C5.08 187.507 5.01333 187.237 4.88 187.01C4.74667 186.783 4.56 186.61 4.32 186.49C4.08 186.363 3.8 186.3 3.48 186.3H1.68V189.35ZM9.31352 193.12C8.81352 193.12 8.36018 193 7.95352 192.76C7.55352 192.513 7.23685 192.177 7.00352 191.75C6.77018 191.323 6.65352 190.84 6.65352 190.3C6.65352 189.76 6.76685 189.283 6.99352 188.87C7.22018 188.45 7.52685 188.12 7.91352 187.88C8.30685 187.64 8.74685 187.52 9.23352 187.52C9.62018 187.52 9.96352 187.593 10.2635 187.74C10.5702 187.88 10.8302 188.073 11.0435 188.32C11.2568 188.56 11.4202 188.833 11.5335 189.14C11.6468 189.44 11.7035 189.75 11.7035 190.07C11.7035 190.137 11.7002 190.213 11.6935 190.3C11.6868 190.38 11.6768 190.463 11.6635 190.55H7.13352V189.85H11.2335L10.8735 190.15C10.9335 189.783 10.8902 189.457 10.7435 189.17C10.6035 188.877 10.4002 188.647 10.1335 188.48C9.86685 188.307 9.56685 188.22 9.23352 188.22C8.90018 188.22 8.59018 188.307 8.30352 188.48C8.02352 188.653 7.80352 188.897 7.64352 189.21C7.48352 189.517 7.42018 189.883 7.45352 190.31C7.42018 190.737 7.48685 191.11 7.65352 191.43C7.82685 191.743 8.06018 191.987 8.35352 192.16C8.65352 192.333 8.97352 192.42 9.31352 192.42C9.70685 192.42 10.0368 192.327 10.3035 192.14C10.5702 191.953 10.7868 191.72 10.9535 191.44L11.5935 191.78C11.4868 192.02 11.3235 192.243 11.1035 192.45C10.8835 192.65 10.6202 192.813 10.3135 192.94C10.0135 193.06 9.68018 193.12 9.31352 193.12ZM15.4459 193.12C14.9459 193.12 14.4959 193 14.0959 192.76C13.6959 192.513 13.3792 192.18 13.1459 191.76C12.9192 191.333 12.8059 190.853 12.8059 190.32C12.8059 189.78 12.9192 189.3 13.1459 188.88C13.3792 188.46 13.6925 188.13 14.0859 187.89C14.4859 187.643 14.9392 187.52 15.4459 187.52C15.9059 187.52 16.3159 187.62 16.6759 187.82C17.0359 188.02 17.3192 188.29 17.5259 188.63L17.4059 188.84V185.43H18.1559V193H17.4059V191.8L17.5259 191.91C17.3392 192.297 17.0592 192.597 16.6859 192.81C16.3192 193.017 15.9059 193.12 15.4459 193.12ZM15.4859 192.37C15.8459 192.37 16.1692 192.28 16.4559 192.1C16.7492 191.92 16.9792 191.677 17.1459 191.37C17.3192 191.057 17.4059 190.707 17.4059 190.32C17.4059 189.933 17.3192 189.587 17.1459 189.28C16.9792 188.967 16.7492 188.72 16.4559 188.54C16.1692 188.36 15.8459 188.27 15.4859 188.27C15.1325 188.27 14.8125 188.36 14.5259 188.54C14.2392 188.72 14.0125 188.963 13.8459 189.27C13.6859 189.577 13.6059 189.927 13.6059 190.32C13.6059 190.707 13.6859 191.057 13.8459 191.37C14.0125 191.677 14.2359 191.92 14.5159 192.1C14.8025 192.28 15.1259 192.37 15.4859 192.37ZM19.6958 193V185.43H20.4458V193H19.6958ZM21.9809 193V187.64H22.7309V193H21.9809ZM21.9809 186.65V185.55H22.7309V186.65H21.9809ZM24.2661 193V187.64H25.0161V188.68L24.8461 188.64C24.9794 188.293 25.1961 188.02 25.4961 187.82C25.8028 187.62 26.1561 187.52 26.5561 187.52C26.9361 187.52 27.2761 187.607 27.5761 187.78C27.8828 187.953 28.1228 188.193 28.2961 188.5C28.4761 188.8 28.5661 189.14 28.5661 189.52V193H27.8161V189.81C27.8161 189.483 27.7561 189.207 27.6361 188.98C27.5228 188.753 27.3594 188.58 27.1461 188.46C26.9394 188.333 26.6994 188.27 26.4261 188.27C26.1528 188.27 25.9094 188.333 25.6961 188.46C25.4828 188.58 25.3161 188.757 25.1961 188.99C25.0761 189.217 25.0161 189.49 25.0161 189.81V193H24.2661ZM32.4385 193.12C31.9385 193.12 31.4852 193 31.0785 192.76C30.6785 192.513 30.3618 192.177 30.1285 191.75C29.8952 191.323 29.7785 190.84 29.7785 190.3C29.7785 189.76 29.8918 189.283 30.1185 188.87C30.3452 188.45 30.6518 188.12 31.0385 187.88C31.4318 187.64 31.8718 187.52 32.3585 187.52C32.7452 187.52 33.0885 187.593 33.3885 187.74C33.6952 187.88 33.9552 188.073 34.1685 188.32C34.3818 188.56 34.5452 188.833 34.6585 189.14C34.7718 189.44 34.8285 189.75 34.8285 190.07C34.8285 190.137 34.8252 190.213 34.8185 190.3C34.8118 190.38 34.8018 190.463 34.7885 190.55H30.2585V189.85H34.3585L33.9985 190.15C34.0585 189.783 34.0152 189.457 33.8685 189.17C33.7285 188.877 33.5252 188.647 33.2585 188.48C32.9918 188.307 32.6918 188.22 32.3585 188.22C32.0252 188.22 31.7152 188.307 31.4285 188.48C31.1485 188.653 30.9285 188.897 30.7685 189.21C30.6085 189.517 30.5452 189.883 30.5785 190.31C30.5452 190.737 30.6118 191.11 30.7785 191.43C30.9518 191.743 31.1852 191.987 31.4785 192.16C31.7785 192.333 32.0985 192.42 32.4385 192.42C32.8318 192.42 33.1618 192.327 33.4285 192.14C33.6952 191.953 33.9118 191.72 34.0785 191.44L34.7185 191.78C34.6118 192.02 34.4485 192.243 34.2285 192.45C34.0085 192.65 33.7452 192.813 33.4385 192.94C33.1385 193.06 32.8052 193.12 32.4385 193.12Z" fill="#B4B4B4"/>
<path d="M517.483 193L520.073 189.61L520.223 189.52C520.123 189.68 520.007 189.807 519.873 189.9C519.74 189.993 519.593 190.06 519.433 190.1C519.273 190.14 519.097 190.16 518.903 190.16C518.47 190.16 518.08 190.06 517.733 189.86C517.387 189.653 517.11 189.373 516.903 189.02C516.703 188.66 516.603 188.25 516.603 187.79C516.603 187.337 516.707 186.933 516.913 186.58C517.127 186.227 517.413 185.947 517.773 185.74C518.14 185.533 518.55 185.43 519.003 185.43C519.47 185.43 519.883 185.537 520.243 185.75C520.603 185.957 520.887 186.247 521.093 186.62C521.3 186.987 521.403 187.41 521.403 187.89C521.403 188.157 521.37 188.42 521.303 188.68C521.243 188.94 521.15 189.197 521.023 189.45C520.897 189.703 520.737 189.957 520.543 190.21L518.443 193H517.483ZM519.003 189.44C519.317 189.44 519.593 189.37 519.833 189.23C520.073 189.083 520.26 188.887 520.393 188.64C520.533 188.387 520.603 188.103 520.603 187.79C520.603 187.47 520.533 187.187 520.393 186.94C520.253 186.687 520.063 186.49 519.823 186.35C519.583 186.203 519.31 186.13 519.003 186.13C518.697 186.13 518.423 186.203 518.183 186.35C517.943 186.49 517.753 186.687 517.613 186.94C517.473 187.187 517.403 187.47 517.403 187.79C517.403 188.103 517.47 188.387 517.603 188.64C517.743 188.887 517.933 189.083 518.173 189.23C518.42 189.37 518.697 189.44 519.003 189.44Z" fill="#B4B4B4"/>
<line x1="118" y1="190" x2="482" y2="190" stroke="#343B4B" stroke-width="6" stroke-linecap="round"/>
<line x1="118" y1="190" x2="154" y2="190" stroke="url(#paint7_linear_91_101)" stroke-width="6" stroke-linecap="round"/>
<path d="M0.88 219V211.55H3.44C3.92667 211.55 4.35333 211.647 4.72 211.84C5.08667 212.027 5.37 212.293 5.57 212.64C5.77667 212.98 5.88 213.377 5.88 213.83C5.88 214.357 5.74 214.807 5.46 215.18C5.18667 215.553 4.81333 215.817 4.34 215.97L6.08 219H5.14L3.32 215.79L3.86 216.1H1.68V219H0.88ZM1.68 215.35H3.48C3.8 215.35 4.08 215.29 4.32 215.17C4.56 215.043 4.74667 214.867 4.88 214.64C5.01333 214.407 5.08 214.133 5.08 213.82C5.08 213.507 5.01333 213.237 4.88 213.01C4.74667 212.783 4.56 212.61 4.32 212.49C4.08 212.363 3.8 212.3 3.48 212.3H1.68V215.35ZM7.17625 219V213.64H7.92625V219H7.17625ZM7.17625 212.65V211.55H7.92625V212.65H7.17625ZM11.3214 219.12C10.8081 219.12 10.3581 218.99 9.97141 218.73C9.58474 218.47 9.30474 218.117 9.13141 217.67L9.76141 217.37C9.91474 217.697 10.1281 217.957 10.4014 218.15C10.6814 218.343 10.9881 218.44 11.3214 218.44C11.6414 218.44 11.9114 218.363 12.1314 218.21C12.3514 218.05 12.4614 217.843 12.4614 217.59C12.4614 217.403 12.4081 217.257 12.3014 217.15C12.1947 217.037 12.0714 216.95 11.9314 216.89C11.7914 216.83 11.6681 216.787 11.5614 216.76L10.7914 216.54C10.2981 216.4 9.94141 216.203 9.72141 215.95C9.50141 215.697 9.39141 215.403 9.39141 215.07C9.39141 214.757 9.47141 214.483 9.63141 214.25C9.79141 214.017 10.0081 213.837 10.2814 213.71C10.5547 213.583 10.8581 213.52 11.1914 213.52C11.6447 213.52 12.0547 213.64 12.4214 213.88C12.7947 214.113 13.0581 214.44 13.2114 214.86L12.5714 215.16C12.4381 214.86 12.2447 214.627 11.9914 214.46C11.7447 214.287 11.4681 214.2 11.1614 214.2C10.8614 214.2 10.6214 214.277 10.4414 214.43C10.2614 214.583 10.1714 214.777 10.1714 215.01C10.1714 215.19 10.2181 215.333 10.3114 215.44C10.4047 215.547 10.5114 215.627 10.6314 215.68C10.7581 215.733 10.8681 215.773 10.9614 215.8L11.8514 216.06C12.2847 216.187 12.6214 216.383 12.8614 216.65C13.1081 216.917 13.2314 217.23 13.2314 217.59C13.2314 217.883 13.1481 218.147 12.9814 218.38C12.8214 218.613 12.5981 218.797 12.3114 218.93C12.0247 219.057 11.6947 219.12 11.3214 219.12ZM16.9893 219.12C16.4893 219.12 16.036 219 15.6293 218.76C15.2293 218.513 14.9126 218.177 14.6793 217.75C14.446 217.323 14.3293 216.84 14.3293 216.3C14.3293 215.76 14.4426 215.283 14.6693 214.87C14.896 214.45 15.2026 214.12 15.5893 213.88C15.9826 213.64 16.4226 213.52 16.9093 213.52C17.296 213.52 17.6393 213.593 17.9393 213.74C18.246 213.88 18.506 214.073 18.7193 214.32C18.9326 214.56 19.096 214.833 19.2093 215.14C19.3226 215.44 19.3793 215.75 19.3793 216.07C19.3793 216.137 19.376 216.213 19.3693 216.3C19.3626 216.38 19.3526 216.463 19.3393 216.55H14.8093V215.85H18.9093L18.5493 216.15C18.6093 215.783 18.566 215.457 18.4193 215.17C18.2793 214.877 18.076 214.647 17.8093 214.48C17.5426 214.307 17.2426 214.22 16.9093 214.22C16.576 214.22 16.266 214.307 15.9793 214.48C15.6993 214.653 15.4793 214.897 15.3193 215.21C15.1593 215.517 15.096 215.883 15.1293 216.31C15.096 216.737 15.1626 217.11 15.3293 217.43C15.5026 217.743 15.736 217.987 16.0293 218.16C16.3293 218.333 16.6493 218.42 16.9893 218.42C17.3826 218.42 17.7126 218.327 17.9793 218.14C18.246 217.953 18.4626 217.72 18.6293 217.44L19.2693 217.78C19.1626 218.02 18.9993 218.243 18.7793 218.45C18.5593 218.65 18.296 218.813 17.9893 218.94C17.6893 219.06 17.356 219.12 16.9893 219.12ZM20.7016 221V213.64H21.4516V214.84L21.3316 214.63C21.545 214.29 21.8283 214.02 22.1816 213.82C22.5416 213.62 22.9516 213.52 23.4116 213.52C23.9183 213.52 24.3683 213.643 24.7616 213.89C25.1616 214.13 25.475 214.46 25.7016 214.88C25.935 215.3 26.0516 215.78 26.0516 216.32C26.0516 216.853 25.935 217.333 25.7016 217.76C25.475 218.18 25.1616 218.513 24.7616 218.76C24.3683 219 23.9183 219.12 23.4116 219.12C22.9516 219.12 22.535 219.017 22.1616 218.81C21.795 218.597 21.5183 218.297 21.3316 217.91L21.4516 217.8V221H20.7016ZM23.3716 218.37C23.7316 218.37 24.0516 218.28 24.3316 218.1C24.6183 217.92 24.8416 217.677 25.0016 217.37C25.1683 217.057 25.2516 216.707 25.2516 216.32C25.2516 215.927 25.1683 215.577 25.0016 215.27C24.8416 214.963 24.6183 214.72 24.3316 214.54C24.0516 214.36 23.7316 214.27 23.3716 214.27C23.0116 214.27 22.685 214.36 22.3916 214.54C22.105 214.72 21.875 214.967 21.7016 215.28C21.535 215.587 21.4516 215.933 21.4516 216.32C21.4516 216.707 21.535 217.057 21.7016 217.37C21.875 217.677 22.105 217.92 22.3916 218.1C22.685 218.28 23.0116 218.37 23.3716 218.37ZM27.3716 219V213.64H28.1216V214.52L28.0216 214.39C28.1482 214.137 28.3382 213.937 28.5916 213.79C28.8516 213.643 29.1649 213.57 29.5316 213.57H29.8716V214.32H29.4016C29.0149 214.32 28.7049 214.44 28.4716 214.68C28.2382 214.92 28.1216 215.26 28.1216 215.7V219H27.3716ZM33.2605 219.12C32.7538 219.12 32.2938 219 31.8805 218.76C31.4671 218.513 31.1371 218.18 30.8905 217.76C30.6505 217.333 30.5305 216.85 30.5305 216.31C30.5305 215.777 30.6505 215.3 30.8905 214.88C31.1305 214.46 31.4538 214.13 31.8605 213.89C32.2738 213.643 32.7405 213.52 33.2605 213.52C33.7805 213.52 34.2438 213.64 34.6505 213.88C35.0638 214.12 35.3871 214.45 35.6205 214.87C35.8605 215.29 35.9805 215.77 35.9805 216.31C35.9805 216.857 35.8571 217.343 35.6105 217.77C35.3638 218.19 35.0338 218.52 34.6205 218.76C34.2138 219 33.7605 219.12 33.2605 219.12ZM33.2605 218.37C33.6205 218.37 33.9438 218.28 34.2305 218.1C34.5238 217.92 34.7538 217.673 34.9205 217.36C35.0938 217.047 35.1805 216.697 35.1805 216.31C35.1805 215.923 35.0938 215.577 34.9205 215.27C34.7538 214.963 34.5238 214.72 34.2305 214.54C33.9438 214.36 33.6205 214.27 33.2605 214.27C32.9005 214.27 32.5738 214.36 32.2805 214.54C31.9938 214.72 31.7638 214.963 31.5905 215.27C31.4171 215.577 31.3305 215.923 31.3305 216.31C31.3305 216.697 31.4171 217.047 31.5905 217.36C31.7638 217.673 31.9938 217.92 32.2805 218.1C32.5738 218.28 32.9005 218.37 33.2605 218.37Z" fill="#B4B4B4"/>
<path d="M519.033 219.12C518.567 219.12 518.153 219.017 517.793 218.81C517.433 218.597 517.15 218.307 516.943 217.94C516.737 217.567 516.633 217.14 516.633 216.66C516.633 216.393 516.663 216.13 516.723 215.87C516.79 215.61 516.887 215.353 517.013 215.1C517.147 214.847 517.307 214.593 517.493 214.34L519.593 211.55H520.553L517.963 214.94L517.813 215.03C517.913 214.863 518.03 214.737 518.163 214.65C518.297 214.557 518.443 214.49 518.603 214.45C518.77 214.41 518.947 214.39 519.133 214.39C519.567 214.39 519.957 214.493 520.303 214.7C520.65 214.9 520.923 215.177 521.123 215.53C521.33 215.883 521.433 216.293 521.433 216.76C521.433 217.207 521.327 217.61 521.113 217.97C520.907 218.323 520.623 218.603 520.263 218.81C519.903 219.017 519.493 219.12 519.033 219.12ZM519.033 218.42C519.34 218.42 519.613 218.35 519.853 218.21C520.093 218.063 520.283 217.863 520.423 217.61C520.563 217.357 520.633 217.073 520.633 216.76C520.633 216.44 520.563 216.157 520.423 215.91C520.29 215.663 520.103 215.47 519.863 215.33C519.623 215.183 519.347 215.11 519.033 215.11C518.727 215.11 518.45 215.183 518.203 215.33C517.963 215.47 517.773 215.663 517.633 215.91C517.5 216.157 517.433 216.44 517.433 216.76C517.433 217.073 517.503 217.357 517.643 217.61C517.783 217.863 517.973 218.063 518.213 218.21C518.453 218.35 518.727 218.42 519.033 218.42Z" fill="#B4B4B4"/>
<line x1="118" y1="216" x2="482" y2="216" stroke="#343B4B" stroke-width="6" stroke-linecap="round"/>
<line x1="118" y1="216" x2="140" y2="216" stroke="url(#paint8_linear_91_101)" stroke-width="6" stroke-linecap="round"/>
<path d="M3.39 245.12C2.91667 245.12 2.48667 245.03 2.1 244.85C1.71333 244.67 1.38667 244.43 1.12 244.13C0.853333 243.823 0.663333 243.487 0.55 243.12L1.27 242.85C1.44333 243.357 1.71333 243.743 2.08 244.01C2.44667 244.27 2.88333 244.4 3.39 244.4C3.71 244.4 3.99 244.35 4.23 244.25C4.47667 244.143 4.66667 243.997 4.8 243.81C4.93333 243.623 5 243.407 5 243.16C5 242.793 4.9 242.51 4.7 242.31C4.5 242.11 4.21333 241.957 3.84 241.85L2.5 241.45C1.97333 241.297 1.56667 241.04 1.28 240.68C1 240.32 0.86 239.91 0.86 239.45C0.86 239.057 0.956667 238.71 1.15 238.41C1.34333 238.103 1.60667 237.863 1.94 237.69C2.28 237.517 2.66333 237.43 3.09 237.43C3.53667 237.43 3.93667 237.513 4.29 237.68C4.65 237.84 4.95333 238.053 5.2 238.32C5.44667 238.587 5.62333 238.883 5.73 239.21L5.03 239.49C4.87 239.05 4.62 238.717 4.28 238.49C3.94667 238.263 3.55333 238.15 3.1 238.15C2.81333 238.15 2.56 238.2 2.34 238.3C2.12667 238.4 1.96 238.543 1.84 238.73C1.72 238.917 1.66 239.137 1.66 239.39C1.66 239.697 1.75667 239.973 1.95 240.22C2.14333 240.46 2.44 240.64 2.84 240.76L4.02 241.11C4.60667 241.283 5.05 241.533 5.35 241.86C5.65 242.187 5.8 242.597 5.8 243.09C5.8 243.49 5.69667 243.843 5.49 244.15C5.29 244.45 5.00667 244.687 4.64 244.86C4.28 245.033 3.86333 245.12 3.39 245.12ZM7.23484 245V239.64H7.98484V245H7.23484ZM7.23484 238.65V237.55H7.98484V238.65H7.23484ZM9.52 245V237.43H10.27V245H9.52ZM14.2452 245.12C13.7452 245.12 13.2918 245 12.8852 244.76C12.4852 244.513 12.1685 244.177 11.9352 243.75C11.7018 243.323 11.5852 242.84 11.5852 242.3C11.5852 241.76 11.6985 241.283 11.9252 240.87C12.1518 240.45 12.4585 240.12 12.8452 239.88C13.2385 239.64 13.6785 239.52 14.1652 239.52C14.5518 239.52 14.8952 239.593 15.1952 239.74C15.5018 239.88 15.7618 240.073 15.9752 240.32C16.1885 240.56 16.3518 240.833 16.4652 241.14C16.5785 241.44 16.6352 241.75 16.6352 242.07C16.6352 242.137 16.6318 242.213 16.6252 242.3C16.6185 242.38 16.6085 242.463 16.5952 242.55H12.0652V241.85H16.1652L15.8052 242.15C15.8652 241.783 15.8218 241.457 15.6752 241.17C15.5352 240.877 15.3318 240.647 15.0652 240.48C14.7985 240.307 14.4985 240.22 14.1652 240.22C13.8318 240.22 13.5218 240.307 13.2352 240.48C12.9552 240.653 12.7352 240.897 12.5752 241.21C12.4152 241.517 12.3518 241.883 12.3852 242.31C12.3518 242.737 12.4185 243.11 12.5852 243.43C12.7585 243.743 12.9918 243.987 13.2852 244.16C13.5852 244.333 13.9052 244.42 14.2452 244.42C14.6385 244.42 14.9685 244.327 15.2352 244.14C15.5018 243.953 15.7185 243.72 15.8852 243.44L16.5252 243.78C16.4185 244.02 16.2552 244.243 16.0352 244.45C15.8152 244.65 15.5518 244.813 15.2452 244.94C14.9452 245.06 14.6118 245.12 14.2452 245.12ZM17.9575 245V239.64H18.7075V240.68L18.5375 240.64C18.6708 240.293 18.8875 240.02 19.1875 239.82C19.4942 239.62 19.8475 239.52 20.2475 239.52C20.6275 239.52 20.9675 239.607 21.2675 239.78C21.5742 239.953 21.8142 240.193 21.9875 240.5C22.1675 240.8 22.2575 241.14 22.2575 241.52V245H21.5075V241.81C21.5075 241.483 21.4475 241.207 21.3275 240.98C21.2142 240.753 21.0508 240.58 20.8375 240.46C20.6308 240.333 20.3908 240.27 20.1175 240.27C19.8442 240.27 19.6008 240.333 19.3875 240.46C19.1742 240.58 19.0075 240.757 18.8875 240.99C18.7675 241.217 18.7075 241.49 18.7075 241.81V245H17.9575ZM26.1399 245.12C25.6133 245.12 25.1499 244.997 24.7499 244.75C24.3499 244.503 24.0366 244.17 23.8099 243.75C23.5833 243.323 23.4699 242.843 23.4699 242.31C23.4699 241.777 23.5833 241.3 23.8099 240.88C24.0366 240.46 24.3499 240.13 24.7499 239.89C25.1499 239.643 25.6133 239.52 26.1399 239.52C26.4733 239.52 26.7866 239.58 27.0799 239.7C27.3733 239.82 27.6333 239.983 27.8599 240.19C28.0866 240.39 28.2566 240.623 28.3699 240.89L27.6899 241.24C27.5566 240.953 27.3533 240.72 27.0799 240.54C26.8066 240.36 26.4933 240.27 26.1399 240.27C25.7866 240.27 25.4666 240.36 25.1799 240.54C24.8999 240.713 24.6766 240.957 24.5099 241.27C24.3499 241.577 24.2699 241.927 24.2699 242.32C24.2699 242.707 24.3499 243.057 24.5099 243.37C24.6766 243.677 24.8999 243.92 25.1799 244.1C25.4666 244.28 25.7866 244.37 26.1399 244.37C26.4933 244.37 26.8033 244.28 27.0699 244.1C27.3433 243.92 27.5499 243.68 27.6899 243.38L28.3699 243.75C28.2566 244.01 28.0866 244.243 27.8599 244.45C27.6333 244.657 27.3733 244.82 27.0799 244.94C26.7866 245.06 26.4733 245.12 26.1399 245.12ZM32.126 245.12C31.626 245.12 31.1727 245 30.766 244.76C30.366 244.513 30.0493 244.177 29.816 243.75C29.5827 243.323 29.466 242.84 29.466 242.3C29.466 241.76 29.5793 241.283 29.806 240.87C30.0327 240.45 30.3393 240.12 30.726 239.88C31.1193 239.64 31.5593 239.52 32.046 239.52C32.4327 239.52 32.776 239.593 33.076 239.74C33.3827 239.88 33.6427 240.073 33.856 240.32C34.0693 240.56 34.2327 240.833 34.346 241.14C34.4593 241.44 34.516 241.75 34.516 242.07C34.516 242.137 34.5127 242.213 34.506 242.3C34.4993 242.38 34.4893 242.463 34.476 242.55H29.946V241.85H34.046L33.686 242.15C33.746 241.783 33.7027 241.457 33.556 241.17C33.416 240.877 33.2127 240.647 32.946 240.48C32.6793 240.307 32.3793 240.22 32.046 240.22C31.7127 240.22 31.4027 240.307 31.116 240.48C30.836 240.653 30.616 240.897 30.456 241.21C30.296 241.517 30.2327 241.883 30.266 242.31C30.2327 242.737 30.2993 243.11 30.466 243.43C30.6393 243.743 30.8727 243.987 31.166 244.16C31.466 244.333 31.786 244.42 32.126 244.42C32.5193 244.42 32.8493 244.327 33.116 244.14C33.3827 243.953 33.5993 243.72 33.766 243.44L34.406 243.78C34.2993 244.02 34.136 244.243 33.916 244.45C33.696 244.65 33.4327 244.813 33.126 244.94C32.826 245.06 32.4927 245.12 32.126 245.12ZM35.8384 245V239.64H36.5884V240.52L36.4884 240.39C36.615 240.137 36.805 239.937 37.0584 239.79C37.3184 239.643 37.6317 239.57 37.9984 239.57H38.3384V240.32H37.8684C37.4817 240.32 37.1717 240.44 36.9384 240.68C36.705 240.92 36.5884 241.26 36.5884 241.7V245H35.8384Z" fill="#B4B4B4"/>
<path d="M518.846 245.12C518.46 245.12 518.103 245.053 517.776 244.92C517.45 244.787 517.163 244.597 516.916 244.35C516.676 244.103 516.493 243.81 516.366 243.47L517.006 243.17C517.16 243.557 517.4 243.863 517.726 244.09C518.053 244.31 518.426 244.42 518.846 244.42C519.18 244.42 519.476 244.357 519.736 244.23C519.996 244.097 520.2 243.907 520.346 243.66C520.493 243.413 520.566 243.113 520.566 242.76C520.566 242.407 520.49 242.107 520.336 241.86C520.19 241.613 519.986 241.427 519.726 241.3C519.466 241.173 519.17 241.11 518.836 241.11C518.75 241.11 518.653 241.113 518.546 241.12C518.446 241.127 518.363 241.137 518.296 241.15L518.136 240.8L520.146 238.25H516.716V237.55H521.046V238.25L519.166 240.62L519.066 240.49C519.513 240.503 519.91 240.61 520.256 240.81C520.603 241.003 520.873 241.267 521.066 241.6C521.266 241.933 521.366 242.32 521.366 242.76C521.366 243.2 521.26 243.6 521.046 243.96C520.833 244.313 520.536 244.597 520.156 244.81C519.776 245.017 519.34 245.12 518.846 245.12Z" fill="#B4B4B4"/>
<line x1="118" y1="242" x2="482" y2="242" stroke="#343B4B" stroke-width="6" stroke-linecap="round"/>
<line x1="118" y1="242" x2="129" y2="242" stroke="url(#paint9_linear_91_101)" stroke-width="6" stroke-linecap="round"/>
<path d="M2.17 271V264.3H0.11V263.55H5.01V264.3H2.97V271H2.17ZM6.84148 271.12C6.50148 271.12 6.19815 271.057 5.93148 270.93C5.66482 270.797 5.45482 270.617 5.30148 270.39C5.14815 270.163 5.07148 269.903 5.07148 269.61C5.07148 269.33 5.13148 269.077 5.25148 268.85C5.37148 268.617 5.55815 268.42 5.81148 268.26C6.06482 268.1 6.38815 267.987 6.78148 267.92L8.88148 267.57V268.25L6.96148 268.57C6.57482 268.637 6.29482 268.76 6.12148 268.94C5.95482 269.12 5.87148 269.333 5.87148 269.58C5.87148 269.82 5.96482 270.023 6.15148 270.19C6.34482 270.357 6.59148 270.44 6.89148 270.44C7.25815 270.44 7.57815 270.363 7.85148 270.21C8.12482 270.05 8.33815 269.837 8.49148 269.57C8.64482 269.303 8.72148 269.007 8.72148 268.68V267.32C8.72148 267 8.60482 266.74 8.37148 266.54C8.13815 266.34 7.83482 266.24 7.46148 266.24C7.13482 266.24 6.84815 266.323 6.60148 266.49C6.35482 266.65 6.17148 266.86 6.05148 267.12L5.37148 266.75C5.47148 266.523 5.62815 266.317 5.84148 266.13C6.06148 265.943 6.31148 265.797 6.59148 265.69C6.87148 265.577 7.16148 265.52 7.46148 265.52C7.85482 265.52 8.20148 265.597 8.50148 265.75C8.80815 265.903 9.04482 266.117 9.21148 266.39C9.38482 266.657 9.47148 266.967 9.47148 267.32V271H8.72148V269.93L8.83148 270.04C8.73815 270.24 8.59148 270.423 8.39148 270.59C8.19815 270.75 7.96815 270.88 7.70148 270.98C7.44148 271.073 7.15482 271.12 6.84148 271.12ZM12.9141 271.12C12.5408 271.12 12.2008 271.033 11.8941 270.86C11.5875 270.68 11.3441 270.433 11.1641 270.12C10.9908 269.8 10.9041 269.433 10.9041 269.02V265.64H11.6541V268.93C11.6541 269.217 11.7108 269.47 11.8241 269.69C11.9441 269.903 12.1075 270.07 12.3141 270.19C12.5275 270.31 12.7708 270.37 13.0441 270.37C13.3175 270.37 13.5608 270.31 13.7741 270.19C13.9875 270.063 14.1541 269.887 14.2741 269.66C14.3941 269.427 14.4541 269.15 14.4541 268.83V265.64H15.2041V271H14.4541V269.96L14.6241 270C14.4975 270.347 14.2808 270.62 13.9741 270.82C13.6675 271.02 13.3141 271.12 12.9141 271.12ZM16.7466 271V265.64H17.4966V266.52L17.3966 266.39C17.5232 266.137 17.7132 265.937 17.9666 265.79C18.2266 265.643 18.5399 265.57 18.9066 265.57H19.2466V266.32H18.7766C18.3899 266.32 18.0799 266.44 17.8466 266.68C17.6132 266.92 17.4966 267.26 17.4966 267.7V271H16.7466ZM22.0255 271.12C21.6521 271.12 21.3121 271.033 21.0055 270.86C20.6988 270.68 20.4555 270.433 20.2755 270.12C20.1021 269.8 20.0155 269.433 20.0155 269.02V265.64H20.7655V268.93C20.7655 269.217 20.8221 269.47 20.9355 269.69C21.0555 269.903 21.2188 270.07 21.4255 270.19C21.6388 270.31 21.8821 270.37 22.1555 270.37C22.4288 270.37 22.6721 270.31 22.8855 270.19C23.0988 270.063 23.2655 269.887 23.3855 269.66C23.5055 269.427 23.5655 269.15 23.5655 268.83V265.64H24.3155V271H23.5655V269.96L23.7355 270C23.6088 270.347 23.3921 270.62 23.0855 270.82C22.7788 271.02 22.4255 271.12 22.0255 271.12ZM27.7179 271.12C27.2046 271.12 26.7546 270.99 26.3679 270.73C25.9812 270.47 25.7012 270.117 25.5279 269.67L26.1579 269.37C26.3112 269.697 26.5246 269.957 26.7979 270.15C27.0779 270.343 27.3846 270.44 27.7179 270.44C28.0379 270.44 28.3079 270.363 28.5279 270.21C28.7479 270.05 28.8579 269.843 28.8579 269.59C28.8579 269.403 28.8046 269.257 28.6979 269.15C28.5912 269.037 28.4679 268.95 28.3279 268.89C28.1879 268.83 28.0646 268.787 27.9579 268.76L27.1879 268.54C26.6946 268.4 26.3379 268.203 26.1179 267.95C25.8979 267.697 25.7879 267.403 25.7879 267.07C25.7879 266.757 25.8679 266.483 26.0279 266.25C26.1879 266.017 26.4046 265.837 26.6779 265.71C26.9512 265.583 27.2546 265.52 27.5879 265.52C28.0412 265.52 28.4512 265.64 28.8179 265.88C29.1912 266.113 29.4546 266.44 29.6079 266.86L28.9679 267.16C28.8346 266.86 28.6412 266.627 28.3879 266.46C28.1412 266.287 27.8646 266.2 27.5579 266.2C27.2579 266.2 27.0179 266.277 26.8379 266.43C26.6579 266.583 26.5679 266.777 26.5679 267.01C26.5679 267.19 26.6146 267.333 26.7079 267.44C26.8012 267.547 26.9079 267.627 27.0279 267.68C27.1546 267.733 27.2646 267.773 27.3579 267.8L28.2479 268.06C28.6812 268.187 29.0179 268.383 29.2579 268.65C29.5046 268.917 29.6279 269.23 29.6279 269.59C29.6279 269.883 29.5446 270.147 29.3779 270.38C29.2179 270.613 28.9946 270.797 28.7079 270.93C28.4212 271.057 28.0912 271.12 27.7179 271.12Z" fill="#B4B4B4"/>
<path d="M516.584 271V270.5L518.664 268.21C519.071 267.763 519.401 267.393 519.654 267.1C519.914 266.807 520.107 266.54 520.234 266.3C520.361 266.06 520.424 265.8 520.424 265.52C520.424 265.073 520.294 264.73 520.034 264.49C519.774 264.25 519.427 264.13 518.994 264.13C518.547 264.13 518.171 264.257 517.864 264.51C517.564 264.763 517.361 265.117 517.254 265.57L516.524 265.41C516.611 265.003 516.767 264.653 516.994 264.36C517.221 264.067 517.504 263.84 517.844 263.68C518.184 263.513 518.564 263.43 518.984 263.43C519.431 263.43 519.821 263.52 520.154 263.7C520.487 263.88 520.747 264.127 520.934 264.44C521.127 264.753 521.224 265.113 521.224 265.52C521.224 265.8 521.164 266.07 521.044 266.33C520.931 266.59 520.757 266.87 520.524 267.17C520.291 267.47 519.991 267.82 519.624 268.22L517.734 270.3H521.424V271H516.584Z" fill="#B4B4B4"/>
<line x1="118" y1="268" x2="482" y2="268" stroke="#343B4B" stroke-width="6" stroke-linecap="round"/>
<line x1="118" y1="268" x2="121" y2="268" stroke="url(#paint10_linear_91_101)" stroke-width="6" stroke-linecap="round"/>
<defs>
<linearGradient id="paint0_linear_91_101" x1="115" y1="11.5" x2="485" y2="11.5" gradientUnits="userSpaceOnUse">
<stop stop-color="#FF5D5C"/>
<stop offset="1" stop-color="#FFB454"/>
</linearGradient>
<linearGradient id="paint1_linear_91_101" x1="115" y1="37.5" x2="400" y2="37.5" gradientUnits="userSpaceOnUse">
<stop stop-color="#FF5D5C"/>
<stop offset="1" stop-color="#FFB454"/>
</linearGradient>
<linearGradient id="paint2_linear_91_101" x1="115" y1="63.5" x2="327" y2="63.5" gradientUnits="userSpaceOnUse">
<stop stop-color="#FF5D5C"/>
<stop offset="1" stop-color="#FFB454"/>
</linearGradient>
<linearGradient id="paint3_linear_91_101" x1="115" y1="89.5" x2="261" y2="89.5" gradientUnits="userSpaceOnUse">
<stop stop-color="#FF5D5C"/>
<stop offset="1" stop-color="#FFB454"/>
</linearGradient>
<linearGradient id="paint4_linear_91_101" x1="115" y1="115.5" x2="242" y2="115.5" gradientUnits="userSpaceOnUse">
<stop stop-color="#FF5D5C"/>
<stop offset="1" stop-color="#FFB454"/>
</linearGradient>
<linearGradient id="paint5_linear_91_101" x1="115" y1="141.5" x2="229" y2="141.5" gradientUnits="userSpaceOnUse">
<stop stop-color="#FF5D5C"/>
<stop offset="1" stop-color="#FFB454"/>
</linearGradient>
<linearGradient id="paint6_linear_91_101" x1="115" y1="167.5" x2="215" y2="167.5" gradientUnits="userSpaceOnUse">
<stop stop-color="#FF5D5C"/>
<stop offset="1" stop-color="#FFB454"/>
</linearGradient>
<linearGradient id="paint7_linear_91_101" x1="115" y1="193.5" x2="157" y2="193.5" gradientUnits="userSpaceOnUse">
<stop stop-color="#FF5D5C"/>
<stop offset="1" stop-color="#FFB454"/>
</linearGradient>
<linearGradient id="paint8_linear_91_101" x1="115" y1="219.5" x2="143" y2="219.5" gradientUnits="userSpaceOnUse">
<stop stop-color="#FF5D5C"/>
<stop offset="1" stop-color="#FFB454"/>
</linearGradient>
<linearGradient id="paint9_linear_91_101" x1="115" y1="245.5" x2="132" y2="245.5" gradientUnits="userSpaceOnUse">
<stop stop-color="#FF5D5C"/>
<stop offset="1" stop-color="#FFB454"/>
</linearGradient>
<linearGradient id="paint10_linear_91_101" x1="115" y1="271.5" x2="124" y2="271.5" gradientUnits="userSpaceOnUse">
<stop stop-color="#FF5D5C"/>
<stop offset="1" stop-color="#FFB454"/>
</linearGradient>
</defs>
</svg>
