<svg width="320" height="336" viewBox="0 0 320 336" fill="none" xmlns="http://www.w3.org/2000/svg">
<path d="M226.556 201.957C226.556 201.957 225.516 158.148 245.654 146.423C265.793 134.698 304.082 127.367 305.518 64.4632C306.359 27.6364 307.268 11.5348 307.877 4.51359C308.116 1.77519 305.686 -0.436407 302.99 0.0735926C283.917 3.67359 221.958 18.4912 208.967 60.8644C193.567 111.095 226.556 201.957 226.556 201.957Z" fill="#CFC1D8"/>
<path d="M288.239 17.5744C267.303 36.2824 243.094 69.3928 230.191 102.503C228.534 107.96 223.69 119.565 221.585 140.182C219.706 157.378 220.641 175.548 222.92 187.577C223.063 188.338 223.795 188.837 224.554 188.693C225.86 188.445 225.686 187.038 225.674 187.083C223.072 166.533 224.152 140.954 230.115 117.875C237.734 89.5372 254.725 62.062 272.299 38.7592L274.108 36.4648C287.724 18.9448 290.59 18.8152 289.317 17.5936C289.015 17.3056 288.546 17.302 288.239 17.5744Z" fill="white"/>
<path d="M194.193 286.184C191.468 287.523 219.987 251.59 228.92 195.155C233.13 168.562 233.185 135.242 248.304 122.402C260.888 111.716 303.707 118.462 317.717 121.026C319.468 121.347 320.058 123.562 318.695 124.709C311.976 130.362 297.603 143.698 293.857 157.138C288.922 174.852 272.113 186.12 257.064 189.17C242.015 192.219 233.645 195.178 226.314 219.291C218.983 243.404 201.934 282.381 194.193 286.184Z" fill="#EAE4EF"/>
<path d="M298.012 128.511C280.137 129.261 260.949 137.43 251.212 152.757L250.294 154.22C248.171 157.648 236.141 182.025 229.46 202.232C229.378 202.484 229.513 202.756 229.764 202.839C230.192 202.98 230.405 202.51 230.364 202.551C235.02 191.135 241.705 176.663 247.03 165.84C252.74 154.03 256.737 146.033 269.762 138.371C284.259 130.121 298.109 129.272 298.067 129.28C298.278 129.258 298.432 129.069 298.411 128.858C298.391 128.654 298.215 128.502 298.012 128.511Z" fill="white"/>
<path d="M206.418 290.91C204.801 291.765 215.525 273.269 216.348 256.976C217.171 240.681 220.839 212.871 234.864 196.234C248.889 179.598 264.246 178.08 283.597 193.204C299.724 205.808 309.783 212.168 315.681 213.35C317.142 213.642 317.887 215.295 317.177 216.606C313.394 223.588 302.696 239.625 284.734 238.496C261.822 237.056 234.056 222.132 225.593 234.581C217.13 247.03 218.217 253.996 217.957 259.895C217.698 265.796 217.118 285.258 206.418 290.91Z" fill="#CFC1D8"/>
<path d="M288.108 213.18C279.768 206.439 266.187 199.814 254.317 201.048C238.873 203.146 228.585 211.844 222.974 224.789C220.78 230.286 219.878 233.22 218.581 239.958C218.476 240.496 219.418 240.657 219.575 240.132C220.518 236.968 221.454 233.654 222.852 230.226C230.992 208.113 248.368 205.134 249.044 204.682C250.358 204.791 258.322 199.763 277.22 208.338C280.748 209.958 284.183 211.808 287.408 213.846L287.426 213.857C287.66 214.005 287.99 213.965 288.165 213.768C288.326 213.586 288.298 213.334 288.108 213.18Z" fill="white"/>
<path d="M31.6694 17.6536C31.3663 66.7612 30.5364 236.146 33.0419 296.128C33.3078 302.483 37.7319 307.52 43.1586 307.647C69.9982 308.272 168.372 309.401 212.215 306.585C221.347 305.998 228.484 297.212 228.513 286.491C228.653 234.95 228.494 89.992 222.717 23.6716C222.025 15.7252 216.603 9.47079 209.815 8.77839C180.551 5.79159 81.6683 -1.09641 43.8053 2.35719C36.9774 2.97999 31.7185 9.62319 31.6694 17.6536Z" fill="#EAE4EF"/>
<path d="M43.864 32.536C43.0137 72.1816 40.4339 204.07 42.61 252.792C42.9274 259.913 47.8055 265.602 53.8825 265.928C78.9065 267.267 164.252 269.765 200.868 265.772C207.461 265.053 212.549 258.716 212.789 250.958C214.041 210.506 217.537 87.682 215.431 39.5056C215.094 31.8196 209.919 25.6168 203.371 25.0276C176.284 22.588 85.5535 17.1784 54.425 19.6408C48.5804 20.1016 44.0113 25.672 43.864 32.536Z" fill="#6C5D82"/>
<path opacity="0.5" d="M97.8643 10.1236C97.8871 11.6296 98.9075 12.8572 100.191 12.9172C106.533 13.2112 124.397 14.0428 132.382 14.4652C133.956 14.548 135.166 12.8728 134.841 11.0644L134.785 10.756C134.563 9.52118 133.673 8.60438 132.601 8.50478C127.201 8.00678 110.908 6.64598 100.136 7.25918C98.8404 7.33238 97.8416 8.60558 97.8643 10.1236Z" fill="white"/>
<path d="M119.479 254.742H57.0395C55.8658 254.742 54.9136 253.788 54.9136 252.612V194.028C54.9136 192.852 55.8658 191.898 57.0395 191.898H119.479C120.652 191.898 121.604 192.852 121.604 194.028V252.612C121.604 253.79 120.652 254.742 119.479 254.742Z" fill="#8E7A9D"/>
<path d="M119.961 177.699H57.3976C56.2574 177.699 55.334 176.774 55.334 175.631V116.921C55.334 115.779 56.2574 114.854 57.3976 114.854H119.961C121.101 114.854 122.025 115.779 122.025 116.921V175.63C122.025 176.772 121.101 177.699 119.961 177.699Z" fill="#8E7A9D"/>
<path d="M120.7 100.846H57.8958C56.8227 100.846 55.952 99.9736 55.952 98.8984V39.9484C55.952 38.8732 56.8227 38.0008 57.8958 38.0008H120.7C121.773 38.0008 122.644 38.8732 122.644 39.9484V98.8984C122.644 99.9736 121.773 100.846 120.7 100.846Z" fill="#8E7A9D"/>
<path d="M197.594 254.646H134.76C133.695 254.646 132.831 253.781 132.831 252.714V193.733C132.831 192.666 133.695 191.801 134.76 191.801H197.594C198.659 191.801 199.522 192.666 199.522 193.733V252.714C199.522 253.782 198.659 254.646 197.594 254.646Z" fill="#8E7A9D"/>
<path d="M197.957 177.602H135.237C134.14 177.602 133.252 176.711 133.252 175.612V116.747C133.252 115.648 134.14 114.758 135.237 114.758H197.957C199.054 114.758 199.942 115.648 199.942 116.747V175.613C199.942 176.711 199.054 177.602 197.957 177.602Z" fill="#8E7A9D"/>
<path d="M198.455 100.75H135.974C134.811 100.75 133.869 99.8056 133.869 98.6404V40.0144C133.869 38.8492 134.811 37.9048 135.974 37.9048H198.455C199.618 37.9048 200.561 38.8492 200.561 40.0144V98.6404C200.561 99.8056 199.618 100.75 198.455 100.75Z" fill="#8E7A9D"/>
<path d="M154.437 211.364C154.312 211.388 154.189 211.425 154.073 211.473C153.739 211.611 153.453 211.844 153.246 212.15C152.668 213.002 152.89 214.166 153.74 214.744C154.152 215.024 154.648 215.127 155.138 215.033C155.627 214.94 156.051 214.661 156.33 214.248C156.907 213.396 156.685 212.232 155.835 211.654C155.422 211.372 154.926 211.27 154.437 211.364Z" fill="url(#paint0_linear_71_113)"/>
<path d="M163.996 206.698L162.301 204.79C162.252 204.735 162.172 204.716 162.103 204.744L160.143 205.563C159.308 204.974 158.394 204.537 157.443 204.254L156.868 202.204C156.848 202.132 156.785 202.082 156.71 202.077L154.165 201.928C154.091 201.923 154.022 201.968 153.994 202.036L153.186 204.005C152.208 204.176 151.25 204.502 150.352 204.99L148.5 203.949C148.436 203.913 148.354 203.921 148.299 203.97L146.395 205.668C146.34 205.718 146.321 205.798 146.349 205.866L147.166 207.831C146.578 208.667 146.142 209.583 145.86 210.536L143.814 211.112C143.742 211.132 143.691 211.196 143.687 211.27L143.538 213.82C143.534 213.894 143.577 213.964 143.646 213.992L145.612 214.802C145.782 215.781 146.107 216.741 146.595 217.641L145.555 219.496C145.519 219.561 145.528 219.642 145.577 219.698L147.272 221.606C147.321 221.661 147.401 221.68 147.469 221.651L149.43 220.833C150.265 221.422 151.178 221.859 152.129 222.142L152.704 224.192C152.725 224.264 152.788 224.315 152.862 224.319L155.407 224.468C155.482 224.472 155.551 224.428 155.579 224.36L156.387 222.39C157.364 222.22 158.322 221.894 159.221 221.405L161.072 222.447C161.137 222.483 161.218 222.474 161.273 222.425L163.178 220.728C163.233 220.679 163.252 220.599 163.223 220.53L162.406 218.566C162.995 217.73 163.43 216.814 163.713 215.861L165.759 215.285C165.831 215.265 165.882 215.201 165.886 215.127L166.034 212.577C166.039 212.502 165.995 212.433 165.926 212.405L163.961 211.595C163.791 210.616 163.465 209.656 162.978 208.756L164.017 206.901C164.053 206.836 164.045 206.754 163.996 206.698ZM160.287 210.518C160.095 210.627 159.851 210.558 159.743 210.366C159.543 210.011 159.302 209.676 159.03 209.368C158.009 208.218 156.603 207.536 155.068 207.446C153.534 207.356 152.059 207.87 150.91 208.893C149.763 209.916 149.081 211.325 148.991 212.862C148.94 213.742 149.086 214.602 149.412 215.393C149.655 215.985 149.999 216.537 150.436 217.029C151.457 218.178 152.863 218.861 154.398 218.951C155.931 219.041 157.407 218.526 158.556 217.504C159.336 216.809 159.911 215.919 160.221 214.928C160.287 214.716 160.511 214.6 160.721 214.665C160.839 214.702 160.927 214.788 160.97 214.894C161.005 214.978 161.011 215.073 160.982 215.166C160.629 216.296 159.974 217.311 159.087 218.102C158.527 218.601 157.898 218.993 157.225 219.27C156.327 219.641 155.35 219.808 154.351 219.749C152.605 219.647 151.002 218.87 149.839 217.559C149.342 216.999 148.951 216.37 148.673 215.697C148.302 214.796 148.135 213.816 148.194 212.814C148.296 211.065 149.072 209.459 150.38 208.294C151.686 207.129 153.368 206.543 155.115 206.645C156.861 206.747 158.464 207.525 159.627 208.835C159.648 208.859 159.669 208.883 159.69 208.907C159.925 209.18 160.138 209.471 160.324 209.776C160.324 209.777 160.325 209.777 160.325 209.778C160.338 209.8 160.351 209.822 160.364 209.843C160.369 209.852 160.374 209.859 160.379 209.867C160.399 209.902 160.42 209.936 160.439 209.97C160.447 209.985 160.454 210 160.46 210.015C160.536 210.202 160.464 210.418 160.287 210.518ZM156.989 214.696C156.686 215.144 156.27 215.47 155.805 215.662C155.005 215.992 154.059 215.927 153.291 215.405C152.077 214.578 151.759 212.916 152.583 211.7C152.983 211.11 153.587 210.712 154.286 210.578C154.985 210.443 155.694 210.591 156.282 210.99C157.497 211.817 157.815 213.479 156.989 214.696Z" fill="url(#paint1_linear_71_113)"/>
<path d="M174.962 230.308C174.759 230.279 174.557 230.272 174.357 230.284C173.782 230.32 173.23 230.522 172.759 230.877C171.45 231.864 171.185 233.734 172.171 235.047C172.648 235.683 173.345 236.094 174.13 236.205C174.916 236.316 175.698 236.114 176.333 235.636C177.642 234.648 177.907 232.779 176.921 231.466C176.443 230.831 175.747 230.42 174.962 230.308Z" fill="url(#paint2_linear_71_113)"/>
<path d="M191.784 228.21L190.21 224.457C190.165 224.348 190.053 224.279 189.935 224.286L186.556 224.508C185.599 223.188 184.447 222.057 183.157 221.139L183.345 217.749C183.351 217.63 183.283 217.52 183.173 217.475L179.411 215.936C179.301 215.89 179.175 215.92 179.096 216.01L176.862 218.562C175.299 218.314 173.686 218.313 172.081 218.584L169.824 216.056C169.745 215.967 169.618 215.938 169.509 215.985L165.762 217.562C165.653 217.607 165.585 217.719 165.592 217.838L165.814 221.223C164.496 222.182 163.367 223.336 162.451 224.628L159.067 224.44C158.949 224.434 158.839 224.502 158.794 224.613L157.258 228.382C157.212 228.492 157.242 228.618 157.332 228.698L159.879 230.936C159.632 232.502 159.63 234.118 159.902 235.726L157.379 237.988C157.29 238.067 157.261 238.194 157.308 238.304L158.882 242.058C158.927 242.168 159.039 242.236 159.157 242.229L162.536 242.007C163.492 243.327 164.645 244.458 165.935 245.376L165.747 248.766C165.74 248.885 165.809 248.996 165.919 249.04L169.681 250.58C169.791 250.625 169.917 250.595 169.996 250.505L172.23 247.953C173.793 248.201 175.406 248.202 177.011 247.931L179.268 250.46C179.347 250.548 179.474 250.577 179.583 250.53L183.33 248.954C183.439 248.908 183.507 248.796 183.5 248.678L183.278 245.292C184.596 244.334 185.725 243.179 186.641 241.887L190.023 242.075C190.142 242.082 190.252 242.013 190.297 241.902L191.833 238.133C191.879 238.023 191.849 237.897 191.759 237.818L189.211 235.58C189.459 234.014 189.461 232.397 189.19 230.789L191.713 228.527C191.801 228.447 191.83 228.32 191.784 228.21ZM184.223 232.056C183.878 232.122 183.545 231.893 183.481 231.548C183.361 230.909 183.172 230.278 182.918 229.673C181.969 227.411 180.198 225.653 177.931 224.726C175.663 223.798 173.171 223.811 170.912 224.76C168.655 225.711 166.9 227.486 165.974 229.757C165.445 231.057 165.222 232.431 165.306 233.793C165.37 234.81 165.603 235.821 166.009 236.789C166.958 239.052 168.729 240.809 170.996 241.737C173.263 242.664 175.756 242.651 178.014 241.702C179.547 241.056 180.875 240.01 181.852 238.674C182.06 238.39 182.458 238.33 182.742 238.538C182.9 238.654 182.988 238.83 183 239.012C183.01 239.156 182.97 239.303 182.878 239.429C181.764 240.951 180.253 242.142 178.508 242.878C177.407 243.341 176.256 243.609 175.099 243.681C173.553 243.777 171.993 243.522 170.516 242.918C167.934 241.86 165.917 239.86 164.837 237.284C164.374 236.182 164.107 235.03 164.035 233.872C163.94 232.322 164.192 230.757 164.796 229.276C165.851 226.689 167.847 224.668 170.419 223.586C172.99 222.502 175.829 222.489 178.411 223.546C180.993 224.603 183.01 226.604 184.09 229.18C184.109 229.227 184.13 229.274 184.149 229.322C184.363 229.854 184.533 230.403 184.658 230.96C184.658 230.961 184.658 230.962 184.659 230.963C184.668 231.003 184.676 231.042 184.684 231.082C184.688 231.096 184.69 231.111 184.694 231.125C184.707 231.188 184.719 231.25 184.731 231.312C184.736 231.339 184.739 231.365 184.741 231.392C184.761 231.707 184.542 231.996 184.223 232.056ZM177.098 236.656C176.411 237.174 175.614 237.452 174.814 237.501C173.437 237.586 172.044 236.999 171.154 235.814C169.747 233.939 170.124 231.268 171.995 229.858C172.902 229.175 174.018 228.886 175.141 229.046C176.265 229.205 177.258 229.792 177.939 230.7C179.345 232.575 178.968 235.246 177.098 236.656Z" fill="url(#paint3_linear_71_113)"/>
<path d="M153.091 160.474H144.893C144.728 160.474 144.594 160.34 144.594 160.174V126.776C144.594 126.61 144.728 126.476 144.893 126.476H153.091C153.256 126.476 153.39 126.61 153.39 126.776V160.174C153.39 160.34 153.256 160.474 153.091 160.474Z" fill="url(#paint4_linear_71_113)"/>
<path d="M141.766 149.456C140.899 149.456 140.195 148.751 140.195 147.881V139.067C140.195 138.198 140.898 137.493 141.766 137.493C142.633 137.493 143.337 138.197 143.337 139.067V147.881C143.337 148.751 142.633 149.456 141.766 149.456Z" fill="url(#paint5_linear_71_113)"/>
<path d="M181.338 160.474H189.536C189.701 160.474 189.835 160.34 189.835 160.174V126.776C189.835 126.61 189.701 126.476 189.536 126.476H181.338C181.173 126.476 181.039 126.61 181.039 126.776V160.174C181.039 160.34 181.173 160.474 181.338 160.474Z" fill="url(#paint6_linear_71_113)"/>
<path d="M192.664 149.456C193.531 149.456 194.236 148.751 194.236 147.881V139.067C194.236 138.198 193.533 137.493 192.664 137.493C191.797 137.493 191.093 138.197 191.093 139.067V147.881C191.093 148.751 191.796 149.456 192.664 149.456Z" fill="url(#paint7_linear_71_113)"/>
<path d="M179.483 145.709H154.947C154.782 145.709 154.648 145.575 154.648 145.409V141.225C154.648 141.059 154.782 140.925 154.947 140.925H179.484C179.649 140.925 179.783 141.059 179.783 141.225V145.409C179.782 145.575 179.648 145.709 179.483 145.709Z" fill="url(#paint8_linear_71_113)"/>
<path d="M179.398 48.8236C175.256 48.8236 171.567 51.0004 169.174 54.3904C166.783 50.9992 163.094 48.8236 158.951 48.8236C151.739 48.8236 145.893 55.414 145.893 63.5428C145.893 64.2004 145.998 64.9084 146.192 65.6548H149.024L155.788 58.2316C156.194 57.7864 156.797 57.5752 157.393 57.6676C157.988 57.7612 158.497 58.15 158.746 58.6996L164.22 70.7644L169.791 60.6628C170.123 60.0604 170.77 59.7016 171.457 59.7376C172.143 59.7748 172.748 60.2008 173.015 60.8356L175.333 66.352H181.733C182.724 66.352 183.527 67.1572 183.527 68.1496C183.527 69.142 182.724 69.9472 181.733 69.9472H174.142C173.42 69.9472 172.769 69.514 172.488 68.8468L171.143 65.6452L165.634 75.634C165.318 76.2076 164.716 76.5616 164.064 76.5616C164.04 76.5616 164.017 76.5604 163.993 76.5604C163.316 76.534 162.711 76.1272 162.43 75.508L156.605 62.6668L151.14 68.6632C150.8 69.0364 150.32 69.2488 149.815 69.2488H147.634C151.353 76.4128 160.254 85.2724 166.538 89.3128C168.13 90.3364 170.19 90.2452 171.691 89.0932C178.684 83.7244 192.456 70.696 192.456 63.5416C192.456 55.414 186.609 48.8236 179.398 48.8236Z" fill="url(#paint9_linear_71_113)"/>
<path d="M79.3017 87.784H71.3767C71.1911 87.784 71.0402 87.6328 71.0402 87.4468V72.97C71.0402 72.784 71.1911 72.6328 71.3767 72.6328H79.3017C79.4873 72.6328 79.6382 72.784 79.6382 72.97V87.4456C79.6382 87.6328 79.4873 87.784 79.3017 87.784Z" fill="url(#paint10_linear_71_113)"/>
<path d="M92.6185 87.784H84.6935C84.5079 87.784 84.357 87.6328 84.357 87.4468V63.3424C84.357 63.1564 84.5079 63.0052 84.6935 63.0052H92.6185C92.8041 63.0052 92.955 63.1564 92.955 63.3424V87.4456C92.955 87.6328 92.8041 87.784 92.6185 87.784Z" fill="url(#paint11_linear_71_113)"/>
<path d="M105.951 87.784H98.0259C97.8403 87.784 97.6894 87.6328 97.6894 87.4468V56.8588C97.6894 56.6728 97.8403 56.5216 98.0259 56.5216H105.951C106.137 56.5216 106.287 56.6728 106.287 56.8588V87.4456C106.287 87.6328 106.137 87.784 105.951 87.784Z" fill="url(#paint12_linear_71_113)"/>
<path d="M84.3571 137.861V152.879C84.3571 153.563 84.9786 154.011 85.5116 153.71L98.7889 146.201C99.3878 145.863 99.3878 144.879 98.7889 144.54L85.5116 137.032C84.9786 136.73 84.3571 137.176 84.3571 137.861Z" fill="url(#paint13_linear_71_113)"/>
<path d="M89.0674 164.48C78.5507 164.48 69.9946 155.907 69.9946 145.37C69.9946 134.832 78.5507 126.26 89.0674 126.26C99.5841 126.26 108.14 134.832 108.14 145.37C108.141 155.907 99.5853 164.48 89.0674 164.48ZM89.0674 129.095C80.1113 129.095 72.8247 136.396 72.8247 145.37C72.8247 154.343 80.1113 161.644 89.0674 161.644C98.0236 161.644 105.31 154.343 105.31 145.37C105.31 136.396 98.0248 129.095 89.0674 129.095Z" fill="url(#paint14_linear_71_113)"/>
<path d="M54.995 184.701C54.8645 184.948 46.6772 190.984 46.6772 190.984C46.6772 190.984 48.4857 203.944 55.8274 209.062C63.8997 214.689 75.3002 204.428 75.3002 204.428C75.3002 204.428 84.3726 206.589 89.1979 187.666C90.3046 183.324 83.915 182.957 76.2033 183.758C66.2591 184.788 54.995 184.701 54.995 184.701Z" fill="#2E0E3F"/>
<path d="M39.6913 228.917C42.8938 226.71 46.4353 225.047 50.19 224.024C51.5996 223.64 59.2144 225.856 63.9212 225.748C70.3826 225.599 76.959 222.653 82.285 223.983C87.5751 225.304 91.9047 227.028 94.4054 228.81C101.888 234.143 106.283 244.086 108.959 253.936C103.89 259.15 97.5098 261.468 97.5098 261.468L96.3312 309.345L68.0759 323.83L35.8252 307.607L36.9809 260.82C36.9809 260.82 26.7397 256.042 25.9888 254.303C25.2366 252.566 30.6561 235.142 39.6913 228.917Z" fill="url(#paint15_linear_71_113)"/>
<path d="M26.4655 254.096C26.4655 254.096 12.7414 292.217 44.0364 307.884C50.5349 307.019 48.0354 296.207 48.0354 296.207C48.0354 296.207 34.4383 293.192 38.5212 261.392C34.7617 258.292 26.4655 254.096 26.4655 254.096Z" fill="url(#paint16_linear_71_113)"/>
<path d="M108.3 254.096C108.3 254.096 117.743 293.889 90.7286 307.884C84.2301 307.019 86.7296 296.207 86.7296 296.207C86.7296 296.207 97.6882 290.8 96.2439 261.392C100.003 258.292 108.3 254.096 108.3 254.096Z" fill="url(#paint17_linear_71_113)"/>
<path d="M96.9277 310.562H35.939C35.672 310.562 35.454 310.343 35.454 310.076V269.123C35.454 268.856 35.672 268.637 35.939 268.637H96.9277C97.1948 268.637 97.4128 268.856 97.4128 269.123V310.076C97.414 310.342 97.1948 310.562 96.9277 310.562Z" fill="#2E0E3F"/>
<path d="M124.59 322.99C117.499 321.359 101.111 322.236 101.111 322.236L100.444 324.045L99.3398 333.035C99.3398 333.035 114.947 335.854 122.64 335.847C123.425 335.846 124.143 335.728 124.799 335.524C125.033 335.313 125.262 335.094 125.479 334.857C128.744 331.286 127.801 326.039 124.59 322.99Z" fill="#2E0E3F"/>
<path d="M96.4019 321.73L99.1769 321.849C100.668 321.912 102.073 322.641 103.075 323.868C104.078 325.096 104.594 326.721 104.505 328.377C104.436 329.697 103.895 330.93 103.003 331.806C102.112 332.682 100.943 333.126 99.7566 333.042L95.5109 332.74L96.4019 321.73Z" fill="url(#paint18_linear_71_113)"/>
<path d="M3.08705 322.126C10.2155 320.714 26.5769 322.094 26.5769 322.094L27.1984 323.922L28.0775 332.943C28.0775 332.943 12.4061 335.28 4.71587 335.037C3.9314 335.012 3.21639 334.872 2.56606 334.647C2.33731 334.428 2.11334 334.203 1.90256 333.959C-1.27126 330.29 -0.198149 325.074 3.08705 322.126Z" fill="#2E0E3F"/>
<path d="M31.2968 321.732L28.5195 321.766C27.0272 321.784 25.6043 322.468 24.572 323.666C23.5396 324.862 22.9838 326.47 23.0306 328.128C23.0677 329.45 23.5767 330.7 24.4462 331.602C25.3157 332.505 26.4726 332.986 27.6619 332.937L31.9136 332.765L31.2968 321.732Z" fill="url(#paint19_linear_71_113)"/>
<path d="M126.574 294.807C123.358 287.391 115.493 286.187 108.799 289.655C108.683 289.809 66.2879 311.578 28.9016 321.119C29.9723 324.557 30.522 328.215 30.6418 331.811C30.6633 332.613 30.6501 333.402 30.6034 334.182C59.2731 332.706 90.3897 323.127 117.128 314.708C125.418 312.028 130.138 303.026 126.574 294.807Z" fill="#897398"/>
<path d="M96.6056 332.375C96.493 328.23 97.2978 324.372 99.0177 320.8C99.0668 320.637 99.1255 320.48 99.1782 320.318C97.0427 319.655 94.2857 318.758 90.6616 317.526C64.1129 308.423 43.8604 299.231 24.5301 288.65C17.0207 284.538 8.48256 287.294 6.07884 296.196C3.93263 304.144 8.64544 310.929 15.7979 313.313C37.1954 320.447 26.0547 318.466 33.0419 320.718C51.8093 326.534 75.1626 331.829 96.6499 333.275C96.6343 332.976 96.6152 332.675 96.6056 332.375Z" fill="#897398"/>
<path d="M50.19 224.024C50.19 224.024 53.0452 236.421 66.907 236.163C81.0263 235.905 82.285 223.983 82.285 223.983L73.0618 222.005L72.2905 211.709L58.4168 212.739L58.1605 222.52L50.19 224.024Z" fill="url(#paint20_linear_71_113)"/>
<path d="M60.3654 182.536C60.3654 182.536 44.4664 213.393 63.326 220.88C76.6285 226.16 84.9691 200.388 82.4815 193.408C78.6346 182.615 76.1015 183.896 76.1015 183.896L60.3654 182.536Z" fill="url(#paint21_linear_71_113)"/>
<path d="M86.308 179.728C94.1623 181.892 87.4494 198.958 75.6248 194.922C63.7991 190.887 59.1533 190.946 57.3101 194.199C55.4669 197.452 55.0717 209.006 51.0739 203.295C46.6904 197.034 44.246 184.468 49.6211 180.417C54.4237 176.796 55.5447 171.183 61.3067 171.377C68.9538 171.635 74.8679 168.239 78.3184 170.688C82.2814 173.501 80.528 178.137 86.308 179.728Z" fill="#401656"/>
<path d="M56.5832 196.852C56.5832 196.852 53.1926 193.197 52.65 197.602C52.1075 202.007 53.8501 207.682 55.8909 204.572C57.9317 201.461 56.5832 196.852 56.5832 196.852Z" fill="url(#paint22_linear_71_113)"/>
<path d="M70.088 279.989C70.4162 282.214 69.2269 284.232 67.0076 284.561C64.7871 284.89 62.7212 283.354 62.393 281.129C62.0648 278.904 63.0805 276.695 65.3009 276.366C67.5202 276.039 69.7598 277.766 70.088 279.989Z" fill="#401656"/>
<path d="M133.533 238.354C145.994 238.354 156.096 228.233 156.096 215.747C156.096 203.262 145.994 193.14 133.533 193.14C121.072 193.14 110.97 203.262 110.97 215.747C110.97 228.233 121.072 238.354 133.533 238.354Z" fill="#B7883B"/>
<path d="M133.533 237.603C145.58 237.603 155.346 227.818 155.346 215.747C155.346 203.677 145.58 193.892 133.533 193.892C121.486 193.892 111.72 203.677 111.72 215.747C111.72 227.818 121.486 237.603 133.533 237.603Z" fill="#FFC668"/>
<path opacity="0.59" d="M114.877 209.03C114.767 209.039 114.653 209.025 114.543 208.98C114.168 208.832 113.986 208.406 114.135 208.031C117.065 200.649 123.789 195.627 131.682 194.922C132.941 194.81 134.212 194.811 135.46 194.926C135.861 194.963 136.156 195.318 136.12 195.72C136.084 196.122 135.731 196.421 135.327 196.382C134.167 196.276 132.983 196.275 131.811 196.379C124.47 197.034 118.217 201.706 115.49 208.571C115.386 208.838 115.143 209.007 114.877 209.03Z" fill="white"/>
<path opacity="0.78" d="M147.101 229.258C154.31 222.035 154.31 210.322 147.101 203.099C139.891 195.875 128.201 195.875 120.992 203.099C113.782 210.322 113.782 222.035 120.992 229.258C128.201 236.482 139.891 236.482 147.101 229.258Z" fill="white"/>
<path d="M133.461 230.037L133.283 228.033C131.189 228.135 129.083 227.826 127.56 227.314C127.017 227.132 126.698 226.566 126.799 226.001L127.141 224.088C127.267 223.386 127.978 222.966 128.656 223.182C130.164 223.664 132.001 223.986 133.937 223.814C135.945 223.635 137.384 222.819 137.259 221.42C137.146 220.157 135.922 219.51 133.064 219.009C128.983 218.272 125.969 216.788 125.656 213.274C125.375 210.101 127.474 207.473 131.435 206.466L131.256 204.461C131.199 203.816 131.674 203.247 132.319 203.189L133.495 203.085C134.138 203.027 134.707 203.504 134.764 204.149L134.925 205.949C136.861 205.854 138.296 206.06 139.446 206.352C140.035 206.502 140.402 207.092 140.295 207.69L139.981 209.459C139.86 210.141 139.182 210.569 138.517 210.383C137.455 210.086 135.968 209.811 134.082 209.979C131.698 210.191 131.105 211.241 131.184 212.128C131.281 213.22 132.779 213.843 135.962 214.522C140.506 215.458 142.508 217.136 142.803 220.445C143.072 223.481 141.069 226.41 136.77 227.482L136.969 229.725C137.027 230.37 136.551 230.939 135.907 230.997L134.731 231.101C134.086 231.159 133.518 230.682 133.461 230.037Z" fill="#FFC668"/>
<path d="M193.474 215.494C216.302 215.494 234.808 196.952 234.808 174.08C234.808 151.207 216.302 132.665 193.474 132.665C170.646 132.665 152.14 151.207 152.14 174.08C152.14 196.952 170.646 215.494 193.474 215.494Z" fill="#B7883B"/>
<path d="M193.474 214.118C215.543 214.118 233.434 196.192 233.434 174.08C233.434 151.967 215.543 134.042 193.474 134.042C171.405 134.042 153.514 151.967 153.514 174.08C153.514 196.192 171.405 214.118 193.474 214.118Z" fill="#FFC668"/>
<path opacity="0.59" d="M159.261 161.174C159.145 161.183 159.026 161.168 158.911 161.122C158.516 160.965 158.325 160.517 158.482 160.124C163.785 146.806 175.927 137.753 190.172 136.497C192.445 136.296 194.74 136.3 196.991 136.51C197.414 136.548 197.724 136.923 197.685 137.346C197.645 137.769 197.273 138.084 196.85 138.041C194.69 137.841 192.488 137.836 190.307 138.029C176.643 139.234 164.996 147.92 159.908 160.692C159.797 160.971 159.542 161.148 159.261 161.174Z" fill="white"/>
<path opacity="0.78" d="M218.33 198.833C231.538 185.6 231.538 164.144 218.33 150.911C205.122 137.677 183.708 137.677 170.5 150.911C157.293 164.144 157.293 185.6 170.5 198.833C183.708 212.067 205.122 212.067 218.33 198.833Z" fill="white"/>
<path d="M193.317 200.259L192.995 196.587C189.16 196.77 185.301 196.2 182.514 195.26C181.519 194.924 180.936 193.889 181.121 192.854L181.751 189.351C181.982 188.066 183.288 187.296 184.529 187.694C187.289 188.577 190.656 189.172 194.201 188.859C197.881 188.534 200.516 187.042 200.291 184.479C200.087 182.166 197.847 180.978 192.61 180.054C185.137 178.698 179.617 175.973 179.05 169.535C178.54 163.722 182.392 158.91 189.647 157.074L189.325 153.401C189.221 152.219 190.093 151.176 191.273 151.073L193.426 150.884C194.606 150.779 195.646 151.653 195.749 152.835L196.039 156.132C199.588 155.962 202.214 156.341 204.32 156.88C205.399 157.156 206.07 158.235 205.873 159.333L205.295 162.572C205.072 163.821 203.829 164.603 202.61 164.261C200.667 163.714 197.942 163.208 194.487 163.512C190.12 163.898 189.033 165.82 189.175 167.445C189.352 169.445 192.092 170.589 197.922 171.838C206.246 173.56 209.911 176.638 210.444 182.7C210.932 188.264 207.254 193.626 199.381 195.581L199.743 199.691C199.847 200.873 198.975 201.916 197.795 202.019L195.642 202.209C194.461 202.314 193.42 201.441 193.317 200.259Z" fill="#FFC668"/>
<path d="M249.153 134.304C277.606 134.304 300.672 111.194 300.672 82.6852C300.672 54.1767 277.606 31.066 249.153 31.066C220.7 31.066 197.635 54.1767 197.635 82.6852C197.635 111.194 220.7 134.304 249.153 134.304Z" fill="#B7883B"/>
<path d="M249.153 132.587C276.66 132.587 298.958 110.245 298.958 82.6852C298.958 55.1251 276.66 32.7832 249.153 32.7832C221.647 32.7832 199.349 55.1251 199.349 82.6852C199.349 110.245 221.647 132.587 249.153 132.587Z" fill="#FFC668"/>
<path opacity="0.59" d="M207.392 64.396C207.252 64.4008 207.107 64.3744 206.97 64.3108C206.503 64.096 206.3 63.5428 206.514 63.076C213.962 46.8496 229.647 36.3676 247.448 35.7184C250.289 35.6152 253.143 35.7676 255.931 36.1732C256.439 36.2464 256.792 36.7192 256.718 37.2292C256.644 37.738 256.177 38.0944 255.664 38.0164C252.986 37.6276 250.243 37.4812 247.515 37.5808C230.42 38.2036 215.356 48.2716 208.203 63.8536C208.052 64.1848 207.732 64.384 207.392 64.396Z" fill="white"/>
<path opacity="0.78" d="M280.082 113.598C296.544 97.1042 296.544 70.3619 280.082 53.8677C263.62 37.3735 236.929 37.3735 220.467 53.8677C204.005 70.3619 204.005 97.1042 220.467 113.598C236.929 130.093 263.62 130.093 280.082 113.598Z" fill="white"/>
<path d="M247.283 115.26L247.116 110.668C242.331 110.65 237.565 109.692 234.155 108.344C232.937 107.861 232.277 106.536 232.575 105.258L233.584 100.938C233.954 99.3532 235.628 98.4796 237.147 99.0544C240.528 100.331 244.679 101.288 249.111 101.127C253.713 100.959 257.088 99.2704 256.972 96.0664C256.866 93.1756 254.152 91.5532 247.695 90.0664C238.479 87.898 231.781 84.1516 231.489 76.102C231.225 68.8336 236.328 63.0916 245.478 61.2724L245.311 56.68C245.257 55.2028 246.409 53.9608 247.885 53.9068L250.577 53.8084C252.052 53.7544 253.291 54.9088 253.345 56.3872L253.495 60.5104C257.923 60.526 261.168 61.1668 263.755 61.9732C265.081 62.386 265.846 63.772 265.533 65.1268L264.606 69.1216C264.248 70.6624 262.651 71.5576 261.155 71.0524C258.772 70.2472 255.414 69.4408 251.092 69.598C245.632 69.7972 244.155 72.1204 244.229 74.152C244.32 76.6528 247.657 78.2524 254.835 80.182C265.086 82.8604 269.45 86.9272 269.726 94.5076C269.978 101.463 265.057 107.902 255.131 109.829L255.318 114.969C255.372 116.446 254.219 117.688 252.744 117.742L250.05 117.84C248.575 117.893 247.336 116.739 247.283 115.26Z" fill="#FFC668"/>
<defs>
<linearGradient id="paint0_linear_71_113" x1="152.923" y1="213.198" x2="156.65" y2="213.198" gradientUnits="userSpaceOnUse">
<stop stop-color="#DAE3FE"/>
<stop offset="1" stop-color="#E9EFFD"/>
</linearGradient>
<linearGradient id="paint1_linear_71_113" x1="143.54" y1="213.198" x2="166.034" y2="213.198" gradientUnits="userSpaceOnUse">
<stop stop-color="#DAE3FE"/>
<stop offset="1" stop-color="#E9EFFD"/>
</linearGradient>
<linearGradient id="paint2_linear_71_113" x1="171.575" y1="233.257" x2="177.517" y2="233.257" gradientUnits="userSpaceOnUse">
<stop stop-color="#DAE3FE"/>
<stop offset="1" stop-color="#E9EFFD"/>
</linearGradient>
<linearGradient id="paint3_linear_71_113" x1="157.238" y1="233.257" x2="191.854" y2="233.257" gradientUnits="userSpaceOnUse">
<stop stop-color="#DAE3FE"/>
<stop offset="1" stop-color="#E9EFFD"/>
</linearGradient>
<linearGradient id="paint4_linear_71_113" x1="144.594" y1="143.474" x2="153.391" y2="143.474" gradientUnits="userSpaceOnUse">
<stop stop-color="#DAE3FE"/>
<stop offset="1" stop-color="#E9EFFD"/>
</linearGradient>
<linearGradient id="paint5_linear_71_113" x1="140.195" y1="143.474" x2="143.337" y2="143.474" gradientUnits="userSpaceOnUse">
<stop stop-color="#DAE3FE"/>
<stop offset="1" stop-color="#E9EFFD"/>
</linearGradient>
<linearGradient id="paint6_linear_71_113" x1="181.039" y1="143.474" x2="189.836" y2="143.474" gradientUnits="userSpaceOnUse">
<stop stop-color="#DAE3FE"/>
<stop offset="1" stop-color="#E9EFFD"/>
</linearGradient>
<linearGradient id="paint7_linear_71_113" x1="191.093" y1="143.474" x2="194.235" y2="143.474" gradientUnits="userSpaceOnUse">
<stop stop-color="#DAE3FE"/>
<stop offset="1" stop-color="#E9EFFD"/>
</linearGradient>
<linearGradient id="paint8_linear_71_113" x1="154.648" y1="143.317" x2="179.782" y2="143.317" gradientUnits="userSpaceOnUse">
<stop stop-color="#DAE3FE"/>
<stop offset="1" stop-color="#E9EFFD"/>
</linearGradient>
<linearGradient id="paint9_linear_71_113" x1="145.893" y1="69.4234" x2="192.456" y2="69.4234" gradientUnits="userSpaceOnUse">
<stop stop-color="#DAE3FE"/>
<stop offset="1" stop-color="#E9EFFD"/>
</linearGradient>
<linearGradient id="paint10_linear_71_113" x1="71.0394" y1="80.2081" x2="79.638" y2="80.2081" gradientUnits="userSpaceOnUse">
<stop stop-color="#DAE3FE"/>
<stop offset="1" stop-color="#E9EFFD"/>
</linearGradient>
<linearGradient id="paint11_linear_71_113" x1="84.3568" y1="75.3942" x2="92.9554" y2="75.3942" gradientUnits="userSpaceOnUse">
<stop stop-color="#DAE3FE"/>
<stop offset="1" stop-color="#E9EFFD"/>
</linearGradient>
<linearGradient id="paint12_linear_71_113" x1="97.689" y1="72.1523" x2="106.288" y2="72.1523" gradientUnits="userSpaceOnUse">
<stop stop-color="#DAE3FE"/>
<stop offset="1" stop-color="#E9EFFD"/>
</linearGradient>
<linearGradient id="paint13_linear_71_113" x1="84.3568" y1="145.37" x2="99.237" y2="145.37" gradientUnits="userSpaceOnUse">
<stop stop-color="#DAE3FE"/>
<stop offset="1" stop-color="#E9EFFD"/>
</linearGradient>
<linearGradient id="paint14_linear_71_113" x1="69.9946" y1="145.37" x2="108.141" y2="145.37" gradientUnits="userSpaceOnUse">
<stop stop-color="#DAE3FE"/>
<stop offset="1" stop-color="#E9EFFD"/>
</linearGradient>
<linearGradient id="paint15_linear_71_113" x1="67.4393" y1="229.506" x2="67.4393" y2="342.771" gradientUnits="userSpaceOnUse">
<stop stop-color="#FE7062"/>
<stop offset="1" stop-color="#FF928E"/>
</linearGradient>
<linearGradient id="paint16_linear_71_113" x1="19.4534" y1="243.845" x2="73.325" y2="373.724" gradientUnits="userSpaceOnUse">
<stop stop-color="#FEBBBA"/>
<stop offset="1" stop-color="#FF928E"/>
</linearGradient>
<linearGradient id="paint17_linear_71_113" x1="114.638" y1="243.566" x2="60.7665" y2="373.444" gradientUnits="userSpaceOnUse">
<stop stop-color="#FEBBBA"/>
<stop offset="1" stop-color="#FF928E"/>
</linearGradient>
<linearGradient id="paint18_linear_71_113" x1="118.739" y1="275.782" x2="87.6612" y2="359.796" gradientUnits="userSpaceOnUse">
<stop stop-color="#FEBBBA"/>
<stop offset="1" stop-color="#FF928E"/>
</linearGradient>
<linearGradient id="paint19_linear_71_113" x1="56.6867" y1="250.453" x2="25.5924" y2="334.511" gradientUnits="userSpaceOnUse">
<stop stop-color="#FEBBBA"/>
<stop offset="1" stop-color="#FF928E"/>
</linearGradient>
<linearGradient id="paint20_linear_71_113" x1="66.5879" y1="254.575" x2="65.8707" y2="192.296" gradientUnits="userSpaceOnUse">
<stop stop-color="#FEBBBA"/>
<stop offset="1" stop-color="#FF928E"/>
</linearGradient>
<linearGradient id="paint21_linear_71_113" x1="64.5166" y1="220.004" x2="75.4514" y2="166.881" gradientUnits="userSpaceOnUse">
<stop stop-color="#FEBBBA"/>
<stop offset="1" stop-color="#FF928E"/>
</linearGradient>
<linearGradient id="paint22_linear_71_113" x1="57.2968" y1="227.061" x2="49.4581" y2="142.427" gradientUnits="userSpaceOnUse">
<stop stop-color="#FEBBBA"/>
<stop offset="1" stop-color="#FF928E"/>
</linearGradient>
</defs>
</svg>
